<svg width="20" height="24" viewBox="0 0 20 24" fill="none" xmlns="http://www.w3.org/2000/svg">
<path d="M17.248 0H7.165C5.70039 0 4.50877 1.19201 4.50877 2.65601V2.98199H2.75195C1.28732 2.98199 0.0957031 4.174 0.0957031 5.638V21.344C0.0957031 22.808 1.28732 24 2.75195 24H12.8349C14.2996 24 15.4911 22.808 15.4911 21.344V21.018H17.2479C18.7125 21.018 19.9041 19.826 19.9041 18.362V2.65601C19.9042 1.19201 18.7126 0 17.248 0ZM13.7778 21.344C13.7778 21.864 13.3548 22.287 12.835 22.287H2.75195C2.2321 22.287 1.80912 21.864 1.80912 21.344V5.638C1.80912 5.119 2.2321 4.696 2.75195 4.696H12.8349C13.3548 4.696 13.7776 5.119 13.7776 5.638V21.344H13.7778ZM18.1908 18.362C18.1908 18.881 17.7678 19.304 17.248 19.304H15.4912V5.638C15.4912 4.174 14.2996 2.98199 12.835 2.98199H6.2222V2.65601C6.2222 2.13601 6.6452 1.713 7.165 1.713H17.248C17.7678 1.713 18.1908 2.13601 18.1908 2.65601V18.362Z" fill="black"/>
</svg>
