<svg width="18" height="20" viewBox="0 0 18 20" fill="none" xmlns="http://www.w3.org/2000/svg">
<path fill-rule="evenodd" clip-rule="evenodd" d="M11.607 0.0119441C11.564 0.00426406 11.52 0.000244141 11.474 0.000244141C11.429 0.000244141 11.385 0.00426406 11.342 0.0119441H4.979C2.505 0.0119441 0.5 2.01704 0.5 4.49094V15.3399C0.5 17.909 2.576 19.8649 5.19 19.8649H13.073C15.541 19.8649 17.552 17.8201 17.552 15.3399V6.03794C17.552 5.84433 17.477 5.65821 17.343 5.51854L12.278 0.242544C12.137 0.0952239 11.941 0.0119441 11.737 0.0119441H11.607ZM10.724 1.51114L4.979 1.51194C3.334 1.51194 2 2.84553 2 4.49094V15.3399C2 17.0599 3.385 18.3649 5.19 18.3649H13.073C14.707 18.3649 16.052 16.9973 16.052 15.3399L16.051 6.98333L15.176 6.98631C14.842 6.98591 14.463 6.9852 14.041 6.98424C12.271 6.9805 10.827 5.59353 10.73 3.84763L10.724 3.65924V1.51114ZM15.231 5.48408L14.044 5.48425C13.039 5.48212 12.224 4.6657 12.224 3.65924V2.35259L15.231 5.48408ZM6.58002 8.6513C6.84702 8.385 7.26301 8.3608 7.55701 8.5787L7.64099 8.6513L8.84399 9.8541L10.047 8.6513C10.34 8.3584 10.814 8.3584 11.107 8.6513C11.374 8.9176 11.398 9.3342 11.18 9.6279L11.107 9.712L9.90503 10.9147L11.107 12.1173C11.4 12.4102 11.4 12.8851 11.107 13.178C10.841 13.4442 10.424 13.4684 10.131 13.2506L10.046 13.178L8.84399 11.9754L7.64099 13.178C7.34799 13.4709 6.87399 13.4709 6.58099 13.178C6.31399 12.9117 6.29 12.495 6.508 12.2014L6.58099 12.1173L7.78302 10.9147L6.58002 9.712C6.28802 9.4191 6.28802 8.9442 6.58002 8.6513Z" fill="black"/>
</svg>
