<svg width="20" height="20" viewBox="0 0 20 20" fill="none" xmlns="http://www.w3.org/2000/svg">
<path fill-rule="evenodd" clip-rule="evenodd" d="M10.058 8.14109e-05C6.54602 -0.0140286 3.286 1.80685 1.461 4.79994C-0.364998 7.79343 -0.486996 11.5225 1.138 14.629L1.32102 14.9874C1.39202 15.1191 1.40499 15.2612 1.36499 15.3925C1.10199 16.0863 0.871015 16.8356 0.687015 17.5968L0.668003 17.7608C0.668003 18.5262 1.076 19.0521 1.887 19.0341L2.02201 19.0179C2.75801 18.8553 3.483 18.6458 4.193 18.3907C4.287 18.367 4.44099 18.3762 4.57999 18.4331L5.262 18.8193C5.264 18.8241 5.26501 18.8276 5.27201 18.8318L5.318 18.8478C8.993 20.7802 13.481 20.2471 16.6 17.5077C19.719 14.768 20.82 10.39 19.368 6.50371C17.915 2.61787 14.211 0.0306114 10.058 8.14109e-05ZM9.767 1.39887L10.048 1.39447C13.623 1.42166 16.811 3.64846 18.06 6.99219C19.31 10.3356 18.363 14.102 15.679 16.4594L15.459 16.6465C12.863 18.7779 9.25801 19.2075 6.23301 17.7466L5.94501 17.6024L5.957 17.6041L5.939 17.5991L5.517 17.3568C5.365 17.2708 5.24401 17.2057 5.14701 17.1589C4.68401 16.968 4.214 16.9398 3.771 17.0616L3.353 17.2054C3.076 17.2967 2.80399 17.3793 2.53299 17.454L2.138 17.5572L2.04401 17.9248C2.21401 17.2191 2.42799 16.5245 2.68399 15.845C2.84899 15.3181 2.79802 14.7904 2.55802 14.3401L2.37702 13.9872C0.976018 11.3097 1.08201 8.10178 2.65201 5.52633C4.17301 3.03105 6.855 1.4822 9.767 1.39887ZM4.47501 10.0001C4.47501 9.36988 4.986 8.85938 5.616 8.85938C6.246 8.85938 6.75699 9.36988 6.75699 10.0001C6.75699 10.6303 6.246 11.1407 5.616 11.1407C4.986 11.1407 4.47501 10.6303 4.47501 10.0001ZM8.91101 10.0001C8.91101 9.36988 9.42301 8.85938 10.053 8.85938C10.683 8.85938 11.194 9.36988 11.194 10.0001C11.194 10.6303 10.683 11.1407 10.053 11.1407C9.42301 11.1407 8.91101 10.6303 8.91101 10.0001ZM14.49 8.85938C13.86 8.85938 13.348 9.36988 13.348 10.0001C13.348 10.6303 13.86 11.1407 14.49 11.1407C15.12 11.1407 15.631 10.6303 15.631 10.0001C15.631 9.36988 15.12 8.85938 14.49 8.85938Z" fill="black"/>
</svg>
