<svg width="21" height="20" viewBox="0 0 21 20"  xmlns="http://www.w3.org/2000/svg">
<path 
fill-rule="evenodd" clip-rule="evenodd" 
d="M9.37 1.39502V11.619L7.73999 9.97902L7.65002 9.90602C7.36002 9.68802 6.93999 9.71102 6.67999 9.97702C6.37999 10.269 6.37998 10.744 6.66998 11.038L9.59003 13.966V13.968C9.62003 13.992 9.63998 14.015 9.66998 14.036L9.67999 14.039C9.96999 14.258 10.39 14.233 10.65 13.966L13.57 11.038L13.64 10.953C13.86 10.659 13.83 10.243 13.57 9.97702L13.48 9.90502C13.19 9.68702 12.77 9.71202 12.51 9.97902L10.87 11.62V1.39502V1.29302C10.82 0.927022 10.5 0.64502 10.12 0.64502C9.71 0.64502 9.37 0.98102 9.37 1.39502ZM15.91 19.117C18.25 19.008 20.12 17.071 20.12 14.697V9.81303V9.60402C20.01 7.25102 18.0699 5.37802 15.6899 5.37802H14.76L14.65 5.38503C14.29 5.43503 14.01 5.74802 14.01 6.12802C14.01 6.54202 14.34 6.87802 14.76 6.87802H15.6899L15.86 6.88303C17.4 6.97203 18.62 8.24903 18.62 9.81303V14.697V14.869C18.53 16.405 17.26 17.622 15.7 17.622H4.56L4.38 17.617C2.84 17.528 1.62 16.25 1.62 14.687V9.80202L1.63 9.63002C1.72 8.09602 2.98999 6.87802 4.54999 6.87802H5.48999L5.59003 6.87103C5.96003 6.82203 6.23999 6.50802 6.23999 6.12802C6.23999 5.71402 5.89999 5.37802 5.48999 5.37802H4.54999L4.33002 5.38303C1.99002 5.49503 0.119995 7.43102 0.119995 9.80202V14.687L0.130005 14.896C0.240005 17.248 2.18 19.122 4.56 19.122H15.7L15.91 19.117Z" />
</svg>
