<svg width="20" height="21" viewBox="0 0 20 21" fill="none" xmlns="http://www.w3.org/2000/svg">
<path fill-rule="evenodd" clip-rule="evenodd" d="M7.86406 1.88768C8.99106 0.756179 10.793 0.70638 11.951 1.71638L12.133 1.88648L12.852 2.60518C13.099 2.85088 13.4231 3.00238 13.7671 3.03648L13.9161 3.04378H14.944C16.548 3.04378 17.859 4.29788 17.951 5.87878L17.956 6.05578V7.08278C17.956 7.43258 18.0771 7.76888 18.2941 8.03618L18.3931 8.14648L19.112 8.86528C20.244 9.99168 20.294 11.7929 19.258 12.98L19.1221 13.1251L18.394 13.8535C18.149 14.099 17.9971 14.4231 17.9631 14.7672L17.956 14.9158V15.9448C17.956 17.5485 16.702 18.8591 15.121 18.9507L14.944 18.9558H13.9161C13.5671 18.9558 13.2311 19.0769 12.9631 19.2951L12.8531 19.3945L12.1351 20.1113C11.0101 21.2442 9.20707 21.2944 8.02007 20.2574L7.86608 20.1131L7.14904 19.396C6.90004 19.1494 6.57604 18.9973 6.23204 18.9631L6.08403 18.9558H5.05504C3.45204 18.9558 2.14106 17.7023 2.04906 16.1217L2.04406 15.9448V14.9158C2.04406 14.5678 1.92307 14.2308 1.70507 13.9637L1.60503 13.8537L0.88805 13.1356C-0.24395 12.0094 -0.294946 10.2068 0.742054 9.02038L0.87804 8.87548L1.60405 8.14828C1.85105 7.89958 2.00304 7.57578 2.03704 7.23148L2.04406 7.08278V6.05578L2.04906 5.87888C2.13706 4.35668 3.35604 3.13708 4.87804 3.04888L5.05504 3.04378H6.08403C6.43203 3.04378 6.76906 2.92288 7.03606 2.70568L7.14605 2.60678L7.86406 1.88768ZM11.105 2.97728L11.0651 2.94028C10.5111 2.38848 9.63507 2.35618 9.04107 2.84258L8.92705 2.94668L8.20507 3.66898C7.68807 4.18258 7.00403 4.48968 6.28203 4.53728L6.08403 4.54378H5.05504C4.26704 4.54378 3.62004 5.14788 3.55004 5.91818L3.54406 6.05578V7.08278C3.54406 7.81188 3.27905 8.51308 2.80205 9.06118L2.66704 9.20668L1.94005 9.93488C1.38805 10.4892 1.35607 11.3649 1.84307 11.9589L1.94805 12.0738L2.66704 12.7941C3.18104 13.3097 3.49004 13.995 3.53704 14.7178L3.54406 14.9158V15.9448C3.54406 16.7328 4.14804 17.3801 4.91704 17.4496L5.05504 17.4558H6.08403C6.81203 17.4558 7.51406 17.7207 8.06206 18.198L8.20702 18.3335L8.93108 19.0568C9.48908 19.6119 10.3651 19.6442 10.9581 19.1565L11.073 19.0521L11.7941 18.3322C12.3111 17.8179 12.9951 17.5101 13.7181 17.4623L13.9161 17.4558H14.944C15.733 17.4558 16.3801 16.8524 16.4501 16.0823L16.456 15.9448V14.9158C16.456 14.1869 16.7211 13.4839 17.1971 12.9383L17.3331 12.7935L18.06 12.066C18.612 11.511 18.644 10.6358 18.157 10.0419L18.053 9.92708L17.331 9.20518C16.817 8.68768 16.51 8.00418 16.462 7.28088L16.456 7.08278V6.05578C16.456 5.26738 15.852 4.61948 15.082 4.54998L14.944 4.54378H13.9161C13.1871 4.54378 12.485 4.27938 11.938 3.80238L11.7931 3.66708L11.105 2.97728ZM12.0361 14.1024C12.1761 14.2424 12.366 14.3224 12.566 14.3224C12.766 14.3224 12.9561 14.2424 13.0961 14.1024C13.1661 14.0324 13.226 13.9424 13.266 13.8524C13.296 13.7624 13.316 13.6734 13.316 13.5724C13.316 13.4724 13.296 13.3724 13.266 13.2824C13.226 13.1924 13.1661 13.1124 13.0961 13.0424C12.8161 12.7624 12.3161 12.7624 12.0361 13.0424C11.9661 13.1124 11.916 13.1924 11.876 13.2824C11.836 13.3724 11.816 13.4724 11.816 13.5724C11.816 13.6734 11.836 13.7624 11.876 13.8524C11.916 13.9424 11.9661 14.0324 12.0361 14.1024ZM7.42607 9.18278C7.32608 9.18278 7.23605 9.16178 7.14605 9.12178C7.05605 9.08178 6.96605 9.03278 6.89605 8.96278C6.82605 8.88278 6.77607 8.80278 6.73607 8.71278C6.69607 8.62178 6.67607 8.53278 6.67607 8.43278C6.67607 8.33178 6.69607 8.23278 6.73607 8.14278C6.77607 8.05278 6.82605 7.96278 6.89605 7.90278C7.18605 7.62178 7.67604 7.62178 7.95604 7.90278C8.09604 8.04178 8.17607 8.23278 8.17607 8.43278C8.17607 8.53278 8.16603 8.62178 8.12603 8.71278C8.08603 8.80278 8.02604 8.88278 7.95604 8.96278C7.88604 9.03278 7.80605 9.08178 7.71605 9.12178C7.62605 9.16178 7.52607 9.18278 7.42607 9.18278ZM13.1 7.89918C12.807 7.60628 12.3321 7.60628 12.0391 7.89918L6.89904 13.0392L6.82708 13.1233C6.60908 13.4169 6.63304 13.8335 6.89904 14.0998C7.19204 14.3927 7.66707 14.3927 7.96007 14.0998L13.1 8.95978L13.173 8.87568C13.39 8.58208 13.366 8.16538 13.1 7.89918Z" fill="black"/>
</svg>
