<svg width="18" height="20" viewBox="0 0 18 20" fill="none" xmlns="http://www.w3.org/2000/svg">
<path fill-rule="evenodd" clip-rule="evenodd" d="M9.01001 4.55029e-05C11.32 4.55029e-05 13.36 1.44905 14.1 3.56705C14.24 3.95805 14.03 4.38504 13.63 4.52104C13.23 4.65604 12.8 4.44905 12.66 4.05705C12.13 2.53905 10.67 1.50005 9.01001 1.50005C6.94001 1.49205 5.25 3.08104 5.13 5.08604V5.28105V6.62605H12.88C15.43 6.62605 17.5 8.66005 17.5 11.1691V15.457C17.5 17.966 15.43 20 12.88 20H5.12C2.57 20 0.5 17.966 0.5 15.457V11.1691C0.5 9.18205 1.79998 7.49305 3.59998 6.87605V5.27805C3.61998 2.35105 6.04001 -0.0119545 9.01001 4.55029e-05ZM12.88 8.12605H5.12C3.41 8.12605 2.02002 9.48905 2.02002 11.1691V15.457C2.02002 17.138 3.41 18.5 5.12 18.5H12.88C14.59 18.5 15.98 17.138 15.98 15.457V11.1691C15.98 9.48905 14.59 8.12605 12.88 8.12605ZM9.76001 12.101C9.71001 11.735 9.39 11.452 9 11.452C8.58 11.452 8.23999 11.788 8.23999 12.202V14.424V14.526C8.29999 14.892 8.61 15.174 9 15.174C9.42 15.174 9.76001 14.839 9.76001 14.424V12.202V12.101Z" fill="black"/>
</svg>
