<svg width="20" height="20" viewBox="0 0 20 20" fill="none" xmlns="http://www.w3.org/2000/svg">
<path fill-rule="evenodd" clip-rule="evenodd" d="M10.616 0H9.38102C8.68502 0 8.01902 0.271997 7.52802 0.754997C7.09302 1.183 6.82702 1.747 6.77602 2.348L6.76702 2.542C6.75802 3.174 6.24702 3.666 5.62102 3.666C5.47902 3.665 5.33102 3.632 5.19602 3.571L5.06202 3.502C3.83202 2.81 2.23102 3.234 1.50902 4.462L0.86002 5.507C0.16902 6.68 0.510013 8.155 1.62401 8.914L1.77903 9.012C2.16103 9.228 2.38002 9.599 2.38002 10C2.38002 10.369 2.19502 10.714 1.88602 10.923L1.78103 10.987C0.627025 11.641 0.172019 13.084 0.752019 14.284L0.837025 14.444L1.47402 15.522C1.80502 16.108 2.37303 16.55 3.04403 16.737C3.64003 16.902 4.27502 16.857 4.83802 16.608L5.01603 16.521C5.31503 16.352 5.62501 16.311 5.91501 16.387C6.20601 16.463 6.45302 16.65 6.60302 16.906C6.68502 17.042 6.73303 17.182 6.75103 17.328L6.75902 17.475C6.75802 18.849 7.93202 20 9.38102 20H10.616C11.984 20 13.12 18.97 13.231 17.641L13.239 17.47C13.238 17.138 13.358 16.852 13.573 16.642C13.787 16.432 14.079 16.315 14.382 16.316C14.521 16.32 14.675 16.354 14.817 16.416L14.953 16.485C16.101 17.134 17.606 16.801 18.381 15.709L18.48 15.557L19.14 14.48C19.495 13.883 19.591 13.182 19.412 12.523C19.253 11.939 18.889 11.43 18.384 11.084L18.217 10.979C17.927 10.815 17.736 10.571 17.658 10.284C17.58 9.998 17.622 9.693 17.774 9.437C17.858 9.293 17.971 9.173 18.105 9.081L18.362 8.922C19.404 8.229 19.795 6.865 19.246 5.718L19.189 5.607C19.177 5.578 19.163 5.549 19.147 5.522L18.533 4.479C17.851 3.319 16.376 2.869 15.146 3.435L14.982 3.518C14.688 3.687 14.378 3.729 14.086 3.655C13.793 3.581 13.543 3.396 13.391 3.141C13.312 3.011 13.264 2.871 13.247 2.725L13.238 2.578C13.26 1.95 12.992 1.277 12.498 0.778999C12.004 0.280999 11.325 0 10.616 0ZM9.38102 1.448H10.616C10.926 1.448 11.223 1.57 11.439 1.788C11.655 2.005 11.771 2.299 11.762 2.602L11.776 2.855C11.82 3.24 11.936 3.575 12.118 3.876C12.467 4.46 13.042 4.885 13.714 5.056C14.386 5.227 15.1 5.129 15.698 4.784L15.801 4.733L15.912 4.689C16.401 4.529 16.976 4.732 17.253 5.202L17.838 6.197L17.85 6.225L17.921 6.359C18.158 6.855 17.96 7.483 17.448 7.776L17.287 7.875C16.946 8.107 16.685 8.387 16.495 8.713C16.147 9.297 16.051 9.999 16.23 10.657C16.393 11.256 16.772 11.775 17.292 12.12L17.565 12.288C17.757 12.421 17.915 12.642 17.984 12.896C18.062 13.182 18.02 13.487 17.868 13.744L17.224 14.796L17.151 14.907C16.853 15.326 16.265 15.481 15.769 15.268L15.453 15.11C15.1 14.955 14.756 14.878 14.405 14.869C13.691 14.865 13.021 15.135 12.528 15.619C12.034 16.102 11.759 16.758 11.762 17.442L11.756 17.551C11.71 18.102 11.214 18.552 10.616 18.552H9.38102C8.79002 18.552 8.30402 18.114 8.24202 17.552L8.22202 17.198C8.17702 16.813 8.06202 16.478 7.87902 16.177C7.54002 15.596 6.96902 15.165 6.29702 14.989C5.62602 14.813 4.91102 14.907 4.31102 15.25L4.20202 15.302C3.98602 15.396 3.70802 15.416 3.44802 15.344C3.15502 15.262 2.90701 15.07 2.76001 14.808L2.13002 13.745L2.07402 13.638C1.83602 13.144 2.03402 12.516 2.54603 12.226L2.70202 12.13C3.43402 11.634 3.85802 10.845 3.85802 10C3.85802 9.143 3.42201 8.347 2.70401 7.871L2.44301 7.709C1.98301 7.395 1.83402 6.75 2.13102 6.245L2.78103 5.199C3.10503 4.648 3.80402 4.463 4.35202 4.771L4.54403 4.87C4.90403 5.033 5.25603 5.11 5.61303 5.114C7.00003 5.114 8.13302 4.071 8.23702 2.742L8.25002 2.437C8.27102 2.207 8.38602 1.962 8.57502 1.776C8.78902 1.566 9.07902 1.448 9.38102 1.448ZM10.003 6.732C8.16103 6.732 6.66703 8.195 6.66703 10C6.66703 11.805 8.16103 13.268 10.003 13.268C11.846 13.268 13.339 11.805 13.339 10C13.339 8.195 11.846 6.732 10.003 6.732ZM10.003 8.18C11.029 8.18 11.861 8.995 11.861 10C11.861 11.005 11.029 11.82 10.003 11.82C8.97703 11.82 8.14502 11.005 8.14502 10C8.14502 8.995 8.97703 8.18 10.003 8.18Z" fill="black"/>
</svg>
