<svg width="22" height="18" viewBox="0 0 22 18" fill="none" xmlns="http://www.w3.org/2000/svg">
<path fill-rule="evenodd" clip-rule="evenodd" d="M19.538 0.326115C19.302 -0.0178848 18.837 -0.10388 18.499 0.13612C18.161 0.37612 18.077 0.850119 18.313 1.19512C19.716 3.25312 20.508 5.98212 20.508 8.94212C20.508 11.9021 19.716 14.6331 18.313 16.6911C18.077 17.0351 18.161 17.5091 18.499 17.7491C18.837 17.9891 19.302 17.9041 19.538 17.5591C21.12 15.2391 22 12.2051 22 8.94212C22 5.68012 21.12 2.64712 19.538 0.326115ZM9.53101 0.26112L9.68601 0.255116L9.827 0.256116C10.837 0.306116 11.701 1.06512 12.031 2.19012C12.123 2.54912 12.175 2.90012 12.236 3.47112L12.317 4.22012C12.479 5.95612 12.474 12.7741 12.301 14.1801L12.194 15.1881C12.152 15.5281 12.103 15.7891 12.024 16.0891C11.683 17.2521 10.74 18.0311 9.698 17.9991C9.167 18.0121 8.521 17.7371 8.072 17.3521L4.53 14.4191L2.70701 14.4201C1.36501 14.4201 0.40801 13.5011 0.17301 12.0991L0.147009 11.9141C-0.0519914 10.4721 -0.0459914 7.85212 0.147009 6.27712C0.340009 4.87112 1.34601 3.83512 2.70701 3.83512L4.529 3.83412L7.982 0.966122C8.4 0.605122 9.02401 0.30812 9.53101 0.26112ZM9.70099 1.77512H9.663C9.543 1.77212 9.15601 1.94612 8.93601 2.13612L5.266 5.18512C5.133 5.29612 4.96702 5.35612 4.79502 5.35612H2.70701C2.14201 5.35612 1.72001 5.79012 1.62601 6.47612C1.45101 7.91212 1.44501 10.3991 1.62601 11.7161C1.72101 12.5091 2.10301 12.8991 2.70701 12.8991H4.79502C4.96602 12.8991 5.13202 12.9591 5.26502 13.0691L9.02201 16.1791C9.22201 16.3511 9.52899 16.4821 9.70099 16.4781C10.072 16.4901 10.438 16.1871 10.589 15.6741C10.667 15.3751 10.708 15.0961 10.759 14.5821L10.792 14.2481L10.82 13.9931C10.983 12.6671 10.983 5.58812 10.82 4.25912L10.714 3.29612C10.689 3.09312 10.665 2.93112 10.638 2.79312L10.595 2.60112C10.438 2.06712 10.071 1.76412 9.70099 1.77512ZM15.086 3.24012C15.424 3.00012 15.889 3.08512 16.124 3.43012C17.141 4.92012 17.703 6.86112 17.703 8.94312C17.703 11.0241 17.141 12.9641 16.124 14.4541C15.889 14.7991 15.424 14.8841 15.086 14.6451C14.748 14.4051 14.664 13.9311 14.899 13.5861C15.737 12.3581 16.211 10.7221 16.211 8.94312C16.211 7.16312 15.737 5.52612 14.899 4.29812C14.664 3.95312 14.748 3.48012 15.086 3.24012Z" fill="black"/>
</svg>
