<svg width="16" height="18" viewBox="0 0 16 18" fill="none" xmlns="http://www.w3.org/2000/svg">
<path fill-rule="evenodd" clip-rule="evenodd" d="M7.18007 17.2931C7.23007 17.6921 7.58002 18.0001 8.00002 18.0001C8.46002 18.0001 8.82998 17.6341 8.82998 17.1821V2.8001L14.08 7.9951L14.1701 8.0751C14.5001 8.3131 14.96 8.2881 15.26 7.9981C15.58 7.6791 15.58 7.1611 15.26 6.8411L8.59999 0.252099C8.55999 0.213099 8.51999 0.178104 8.46999 0.146104C8.14999 -0.0768961 7.70005 -0.0449025 7.41005 0.241098L0.740009 6.8411L0.660053 6.9331C0.420053 7.2531 0.450009 7.7081 0.740009 7.9981C1.07001 8.3171 1.60006 8.3151 1.92006 7.9951L7.17006 2.7991V17.1821L7.18007 17.2931Z" fill="black"/>
</svg>
