<svg width="20" height="20" viewBox="0 0 20 20" fill="none" xmlns="http://www.w3.org/2000/svg">
<path fill-rule="evenodd" clip-rule="evenodd" d="M4.47001 0.00176785L4.49705 0.00277493C5.02105 0.0467749 5.47603 0.306766 5.89103 0.712766C6.68103 1.48377 8.37607 3.73376 8.50407 4.34576C8.64507 5.02876 8.49403 5.47277 8.04203 6.25677L7.93302 6.45077C7.72602 6.82877 7.69403 6.98477 7.75803 7.16377C8.74403 9.57577 10.426 11.2578 12.811 12.2318C13.036 12.3138 13.2071 12.2668 13.6841 11.9928L13.933 11.8518C14.604 11.4838 15.029 11.3678 15.657 11.4988C16.267 11.6258 18.518 13.3218 19.287 14.1108C19.693 14.5258 19.9541 14.9818 19.9991 15.5398C20.0471 16.8968 18.391 18.8078 17.381 19.3828C16.232 20.2048 14.774 20.1908 13.139 19.4298C8.86402 17.6508 2.32501 11.1538 0.58201 6.88377L0.478067 6.64477C-0.183933 5.06377 -0.168971 3.69777 0.589029 2.66777C1.28103 1.52177 3.14601 -0.0602321 4.47001 0.00176785ZM4.39005 1.46377L4.30106 1.46777C3.62206 1.55877 2.25903 2.73177 1.80503 3.47777L1.72703 3.59477C1.33603 4.23177 1.38103 5.10676 1.92503 6.30476L2.02903 6.54777C3.78503 10.4878 9.86307 16.4818 13.7281 18.0908L13.941 18.1858C15.059 18.6598 15.906 18.6388 16.591 18.1528L16.6421 18.1198C16.8541 17.9728 17.343 17.5288 17.72 17.0938C18.249 16.4828 18.549 15.9238 18.539 15.6258C18.528 15.4988 18.4301 15.3268 18.2411 15.1328C17.6681 14.5468 15.587 12.9788 15.357 12.9308C15.14 12.8858 14.9611 12.9458 14.4731 13.2268L14.2281 13.3648C13.5081 13.7528 13.001 13.8568 12.285 13.5968C9.50901 12.4638 7.53804 10.4938 6.39304 7.68977C6.12204 6.93977 6.26803 6.40977 6.74003 5.58777L6.85203 5.38977C7.06603 5.00277 7.11202 4.83877 7.07102 4.64377C7.02302 4.41277 5.45606 2.33276 4.86906 1.75976C4.67506 1.56976 4.50402 1.47177 4.37602 1.46177L4.39005 1.46377Z" fill="black"/>
</svg>
