<svg width="20" height="20" viewBox="0 0 20 20" fill="none" xmlns="http://www.w3.org/2000/svg">
<path fill-rule="evenodd" clip-rule="evenodd" d="M7.591 0.5C4.743 0.5 2.45697 2.786 2.45697 5.634C2.45697 8.482 4.743 10.769 7.591 10.769C10.439 10.769 12.726 8.482 12.726 5.634C12.726 2.786 10.439 0.5 7.591 0.5ZM7.591 2C9.611 2 11.226 3.615 11.226 5.634C11.226 7.654 9.611 9.269 7.591 9.269C5.571 9.269 3.95697 7.654 3.95697 5.634C3.95697 3.615 5.572 2 7.591 2ZM18.067 5.616C18.067 3.382 16.255 1.569 14.02 1.569C13.605 1.569 13.27 1.905 13.27 2.319C13.27 2.734 13.605 3.069 14.02 3.069C15.426 3.069 16.567 4.21 16.567 5.616C16.567 7.023 15.426 8.163 14.02 8.163C13.605 8.163 13.27 8.499 13.27 8.913C13.27 9.328 13.605 9.663 14.02 9.663C16.255 9.663 18.067 7.852 18.067 5.616ZM17.299 11.994C16.744 11.871 16.167 11.788 15.587 11.748C15.173 11.72 14.816 12.032 14.788 12.445C14.759 12.859 15.072 13.217 15.485 13.245C15.99 13.279 16.493 13.352 16.991 13.462C17.767 13.616 18.282 13.873 18.421 14.165C18.526 14.386 18.526 14.644 18.42 14.865C18.282 15.156 17.771 15.413 17.002 15.571C16.596 15.654 16.335 16.051 16.418 16.456C16.502 16.862 16.898 17.123 17.304 17.04C18.499 16.794 19.373 16.356 19.775 15.509C20.074 14.881 20.074 14.149 19.775 13.52C19.37 12.671 18.487 12.23 17.299 11.994ZM0 16.018C0 13.394 2.758 12.456 7.591 12.456L7.91101 12.458C12.555 12.498 15.183 13.436 15.183 15.998C15.183 18.506 12.665 19.474 8.22302 19.555L7.591 19.56C2.747 19.56 0 18.639 0 16.018ZM13.683 15.998C13.683 14.651 11.612 13.956 7.591 13.956C3.574 13.956 1.5 14.661 1.5 16.018C1.5 17.367 3.569 18.06 7.591 18.06C11.609 18.06 13.683 17.355 13.683 15.998Z" fill="black"/>
</svg>
