<svg width="20" height="20" viewBox="0 0 20 20" fill="none" xmlns="http://www.w3.org/2000/svg">
<path fill-rule="evenodd" clip-rule="evenodd" d="M14.334 0.000244141H5.66498C2.26698 0.000244141 0 2.43284 0 5.91624V14.0842C0 17.5709 2.26098 20.0002 5.66498 20.0002H14.333C17.738 20.0002 20 17.5709 20 14.0842V5.91624C20 2.42975 17.738 0.000244141 14.334 0.000244141ZM5.66498 1.50024H14.334C16.885 1.50024 18.5 3.23521 18.5 5.91624V14.0842C18.5 16.7654 16.884 18.5002 14.333 18.5002H5.66498C3.11498 18.5002 1.5 16.7656 1.5 14.0842V5.91624C1.5 3.23862 3.11998 1.50024 5.66498 1.50024ZM6.84003 7.39824C5.40403 7.39824 4.23901 8.564 4.23901 10.0002C4.23901 11.4365 5.40403 12.6022 6.84003 12.6022C8.01603 12.6022 9.00997 11.8214 9.33197 10.7502L11.431 10.7501V11.8517L11.438 11.9535C11.488 12.3196 11.802 12.6017 12.181 12.6017C12.595 12.6017 12.931 12.266 12.931 11.8517V10.7501L14.26 10.75V11.8522L14.267 11.954C14.316 12.3201 14.63 12.6022 15.01 12.6022C15.424 12.6022 15.76 12.2665 15.76 11.8522V10.0002L15.753 9.8985C15.703 9.5324 15.39 9.2502 15.01 9.2502H12.209C12.2 9.2499 12.19 9.2497 12.181 9.2497C12.172 9.2497 12.163 9.2499 12.154 9.2502H9.33197C9.00997 8.1791 8.01603 7.39824 6.84003 7.39824ZM6.84003 8.8982C7.44803 8.8982 7.94202 9.392 7.94202 10.0002C7.94202 10.6084 7.44803 11.1022 6.84003 11.1022C6.23203 11.1022 5.73901 10.6083 5.73901 10.0002C5.73901 9.3921 6.23203 8.8982 6.84003 8.8982Z" fill="black"/>
</svg>
