<svg width="20" height="20" viewBox="0 0 20 20" fill="none" xmlns="http://www.w3.org/2000/svg">
<path fill-rule="evenodd" clip-rule="evenodd" d="M11.423 0.00105018C11.047 -0.0133898 10.674 0.12156 10.392 0.37643C10.168 0.57938 10.016 0.84619 9.957 1.13824L9.935 1.30295L9.92999 1.44914L10.374 7.97348C10.429 8.8051 11.161 9.4382 12.013 9.39L18.659 8.9567C19.048 8.9286 19.404 8.7524 19.654 8.4668C19.854 8.2393 19.974 7.95621 19.998 7.65855L20 7.4567L19.99 7.34084C19.303 3.20162 15.708 0.12227 11.423 0.00105018ZM11.411 1.44902L11.629 1.45932C15.012 1.66443 17.832 4.0802 18.485 7.33352L18.518 7.51352L11.921 7.94502C11.888 7.94688 11.854 7.91719 11.851 7.87814L11.411 1.44902ZM6.78101 3.84532C7.50201 3.74681 8.211 4.12453 8.498 4.7606C8.585 4.93485 8.638 5.12392 8.653 5.32102L9.04201 10.8095C9.04701 10.8847 9.08301 10.9548 9.14101 11.0042C9.18401 11.0413 9.238 11.0645 9.298 11.0712L9.36 11.0724L14.934 10.7366C15.387 10.71 15.831 10.8675 16.16 11.1719C16.49 11.4763 16.677 11.9004 16.674 12.3912C16.427 16.0037 13.773 19.0237 10.159 19.8065C6.545 20.5893 2.836 18.9474 1.058 15.7848C0.581999 14.9695 0.261998 14.0778 0.113998 13.1749L0.0659943 12.8359C0.0249943 12.5821 0.003 12.3257 0 12.0795L0.00300598 11.8372C0.013006 8.0655 2.662 4.80403 6.388 3.92434L6.644 3.86807L6.78101 3.84532ZM7.01601 5.27813L6.93201 5.28772L6.70399 5.33933C3.73499 6.05478 1.60601 8.6103 1.48801 11.621L1.483 11.8661C1.476 12.0525 1.482 12.2392 1.505 12.4378L1.533 12.6408C1.632 13.495 1.908 14.3206 2.349 15.0772C3.816 17.6863 6.867 19.0367 9.839 18.3929C12.811 17.7491 14.994 15.2653 15.196 12.3414C15.196 12.2974 15.177 12.2552 15.145 12.225C15.123 12.2049 15.096 12.1912 15.067 12.1851L15.024 12.1817L9.459 12.5169C8.989 12.5503 8.525 12.3992 8.17 12.0971C7.815 11.7951 7.597 11.3669 7.565 10.91L7.177 5.42617C7.176 5.41708 7.174 5.40822 7.157 5.37299C7.132 5.31695 7.07601 5.28131 7.01601 5.27813Z" fill="black"/>
</svg>
