<svg width="18" height="20" viewBox="0 0 18 20" fill="none" xmlns="http://www.w3.org/2000/svg">
<path fill-rule="evenodd" clip-rule="evenodd" d="M1.742 2.36999L8.38501 0.102C8.78401 -0.034 9.218 -0.034 9.616 0.102L16.257 2.36999C17.002 2.62299 17.5 3.305 17.5 4.072V10.714C17.5 12.733 16.748 14.679 15.394 16.197C14.754 16.913 13.94 17.51 12.957 18.027L9.366 19.912C9.141 20.029 8.871 20.029 8.647 19.912L5.04999 18.026C4.06299 17.509 3.24901 16.913 2.60901 16.196C1.25301 14.679 0.5 12.731 0.5 10.71V4.072C0.5 3.305 0.998004 2.62299 1.742 2.36999ZM15.756 3.75799L9.11301 1.49C9.04001 1.465 8.95999 1.465 8.88699 1.49L2.24301 3.75799C2.10501 3.80499 2.01401 3.93 2.01401 4.072V10.71C2.01401 12.376 2.63399 13.981 3.75299 15.232C4.26099 15.802 4.93201 16.293 5.76801 16.732L9.005 18.428L12.237 16.733C12.966 16.35 13.571 15.925 14.052 15.443L14.251 15.233C15.366 13.983 15.986 12.378 15.986 10.714V4.072C15.986 3.93 15.895 3.80499 15.756 3.75799ZM6.56799 7.412C6.83699 7.151 7.25799 7.127 7.55399 7.341L7.63901 7.412L9 8.735L10.361 7.412C10.657 7.125 11.136 7.125 11.432 7.412C11.701 7.673 11.725 8.08199 11.505 8.36999L11.432 8.45199L10.071 9.77499L11.432 11.097C11.727 11.385 11.727 11.85 11.432 12.137C11.163 12.399 10.742 12.422 10.446 12.209L10.361 12.137L9 10.815L7.63901 12.137C7.34301 12.425 6.864 12.425 6.569 12.137C6.3 11.876 6.275 11.468 6.495 11.18L6.569 11.097L7.92999 9.77499L6.56799 8.45199C6.27299 8.16499 6.27299 7.699 6.56799 7.412Z" fill="black"/>
</svg>
