<svg width="20" height="20" viewBox="0 0 20 20" fill="none" xmlns="http://www.w3.org/2000/svg">
<path fill-rule="evenodd" clip-rule="evenodd" d="M5.66602 0H14.334C17.738 0 20 2.43001 20 5.91701V14.083C20 17.57 17.738 20 14.333 20H5.66602C2.26202 20 0 17.57 0 14.083V5.91701C0 2.43301 2.26702 0 5.66602 0ZM14.334 1.50301H5.66602C3.12202 1.50301 1.50299 3.24001 1.50299 5.91701V14.083C1.50299 14.828 1.62798 15.5 1.86298 16.082L3.013 14.686L3.521 14.059C4.8 12.475 5.97297 11.79 7.50897 12.433C7.74197 12.531 7.94102 12.637 8.19702 12.794L8.85699 13.221C9.51699 13.639 9.83103 13.699 10.314 13.437C10.742 13.205 11.043 12.881 11.501 12.177L11.801 11.699L12.005 11.371C12.189 11.081 12.32 10.891 12.48 10.684C13.538 9.31401 15.188 8.86799 16.63 9.73599C17.255 10.112 17.709 10.486 18.497 11.238V5.91701C18.497 3.23701 16.883 1.50301 14.334 1.50301ZM18.497 13.315L18.448 13.271C18.344 13.175 18.232 13.07 18.098 12.942L17.399 12.269C16.728 11.632 16.345 11.319 15.855 11.024C15.114 10.578 14.289 10.801 13.669 11.602L13.544 11.771C13.503 11.83 13.46 11.891 13.415 11.96L13.023 12.581C12.285 13.777 11.837 14.322 11.029 14.759C10.035 15.298 9.22501 15.186 8.23901 14.605L7.80103 14.328L7.43298 14.09C7.22898 13.963 7.082 13.885 6.927 13.82C6.257 13.539 5.66099 13.849 4.83899 14.825L3.03198 17.031C2.93498 17.149 2.834 17.271 2.729 17.398C3.446 18.102 4.45002 18.497 5.66602 18.497H14.333C16.883 18.497 18.497 16.763 18.497 14.083V13.315ZM4.271 6.8C4.271 5.364 5.43601 4.198 6.87201 4.198C8.30801 4.198 9.47302 5.364 9.47302 6.8C9.47302 8.236 8.30801 9.401 6.87201 9.401C5.43601 9.401 4.271 8.236 4.271 6.8ZM7.96997 6.8C7.96997 6.194 7.47801 5.701 6.87201 5.701C6.26601 5.701 5.77399 6.194 5.77399 6.8C5.77399 7.406 6.26601 7.89799 6.87201 7.89799C7.47801 7.89799 7.96997 7.406 7.96997 6.8Z" fill="black"/>
</svg>
