<svg width="20" height="20" viewBox="0 0 20 20" fill="none" xmlns="http://www.w3.org/2000/svg">
<path fill-rule="evenodd" clip-rule="evenodd" d="M7.87701 0C4.92701 0 2.55902 2.368 2.55902 5.318C2.55902 8.267 4.92801 10.636 7.87701 10.636C10.827 10.636 13.195 8.267 13.195 5.318C13.195 2.368 10.827 0 7.87701 0ZM7.87701 1.5C9.99901 1.5 11.695 3.196 11.695 5.318C11.695 7.439 9.99801 9.136 7.87701 9.136C5.75601 9.136 4.05902 7.439 4.05902 5.318C4.05902 3.196 5.75601 1.5 7.87701 1.5ZM7.87701 12.456C2.84701 12.456 0 13.411 0 16.115C0 18.823 2.86001 19.795 7.87701 19.795L8.52002 19.79C13.148 19.709 15.754 18.722 15.754 16.136C15.754 13.488 13.017 12.499 8.20099 12.458L7.87701 12.456ZM7.87701 13.956C12.078 13.956 14.254 14.696 14.254 16.136C14.254 17.567 12.084 18.295 7.87701 18.295C3.67601 18.295 1.5 17.555 1.5 16.115C1.5 14.722 3.55298 13.996 7.53998 13.958L7.87701 13.956ZM17.204 5.919C17.583 5.919 17.897 6.201 17.947 6.567L17.954 6.669V7.924H19.25C19.664 7.924 20 8.26 20 8.674C20 9.054 19.717 9.367 19.351 9.417L19.25 9.424H17.954V10.679C17.954 11.093 17.618 11.429 17.204 11.429C16.824 11.429 16.51 11.147 16.461 10.781L16.454 10.679V9.424H15.16C14.745 9.424 14.41 9.088 14.41 8.674C14.41 8.294 14.692 7.98 15.058 7.931L15.16 7.924H16.454V6.669C16.454 6.255 16.789 5.919 17.204 5.919Z" fill="black"/>
</svg>
