<svg width="20" height="18" viewBox="0 0 20 18" fill="none" xmlns="http://www.w3.org/2000/svg">
<path fill-rule="evenodd" clip-rule="evenodd" d="M7.64697 0H12.353C13.34 0.007 14.117 0.519998 14.568 1.407C14.633 1.534 14.71 1.69 14.803 1.881L15.446 3.234C15.481 3.308 15.556 3.355 15.658 3.356L15.869 3.361C18.18 3.482 20 5.392 20 7.713V13.643C20 16.049 18.047 18 15.638 18H4.36298C1.95298 18 0 16.049 0 13.643V7.713C0 5.306 1.953 3.355 4.315 3.357L4.39001 3.354C4.46101 3.345 4.52399 3.299 4.55499 3.234L5.04602 2.198L5.43201 1.408C5.88501 0.518997 6.66097 0.007 7.64697 0ZM12.348 1.498H7.65698C7.24998 1.501 6.97498 1.683 6.76898 2.088C6.70798 2.206 6.63498 2.355 6.54498 2.541L5.91101 3.875C5.66101 4.403 5.15902 4.766 4.53302 4.845L4.36298 4.854C2.78098 4.854 1.5 6.134 1.5 7.713V13.643C1.5 15.221 2.78198 16.502 4.36298 16.502H15.638C17.218 16.502 18.5 15.221 18.5 13.643V7.713C18.5 6.19 17.306 4.937 15.81 4.859L15.486 4.847C14.885 4.794 14.351 4.426 14.09 3.874L13.391 2.408L13.231 2.087C13.026 1.683 12.75 1.501 12.348 1.498ZM6.07202 10.329C6.05402 8.178 7.83303 6.392 10.004 6.395L10.206 6.4C12.28 6.508 13.932 8.231 13.929 10.331C13.925 12.491 12.163 14.252 10.002 14.255C7.83701 14.256 6.07002 12.487 6.07202 10.329ZM12.429 10.328C12.431 8.988 11.341 7.895 10.003 7.893L9.84302 7.898C8.57802 7.981 7.56102 9.052 7.57202 10.323C7.57102 11.661 8.66598 12.757 10.001 12.756C11.334 12.755 12.426 11.663 12.429 10.328ZM14.604 7.908C14.711 7.951 14.806 7.976 14.903 7.986L15 7.991L15.099 7.986C15.329 7.963 15.544 7.862 15.708 7.697C15.898 7.495 16 7.254 16 6.992C16 6.856 15.972 6.721 15.917 6.597L15.894 6.539C15.856 6.456 15.787 6.359 15.705 6.278C15.43 6.004 14.992 5.917 14.623 6.063C14.498 6.118 14.407 6.18 14.318 6.257C14.202 6.371 14.137 6.475 14.082 6.599C14.028 6.721 14 6.856 14 6.992C14 7.248 14.104 7.497 14.282 7.687C14.382 7.788 14.485 7.855 14.604 7.908Z" fill="black"/>
</svg>
