<svg width="18" height="20" viewBox="0 0 18 20" fill="none" xmlns="http://www.w3.org/2000/svg">
<path fill-rule="evenodd" clip-rule="evenodd" d="M11.107 0.0116999C11.064 0.00401992 11.02 0 10.974 0C10.929 0 10.885 0.00401992 10.842 0.0116999H4.58398C2.09698 0.0116999 0 2.02953 0 4.4907V15.2037C0 17.8043 2.00498 19.8647 4.58398 19.8647H12.573C15.026 19.8647 17.052 17.7028 17.052 15.2037V6.0377C17.052 5.84409 16.977 5.65797 16.843 5.5183L11.778 0.2423C11.637 0.0949798 11.441 0.0116999 11.237 0.0116999H11.107ZM10.224 1.5109L4.58398 1.5117C2.91298 1.5117 1.5 2.8711 1.5 4.4907V15.2037C1.5 16.985 2.84198 18.3647 4.58398 18.3647H12.573C14.175 18.3647 15.552 16.8954 15.552 15.2037L15.551 6.98309L14.676 6.98607C14.342 6.98567 13.963 6.98496 13.541 6.984C11.771 6.98026 10.327 5.59329 10.23 3.84739L10.224 3.659V1.5109ZM14.731 5.48384L13.544 5.48401C12.539 5.48188 11.724 4.66546 11.724 3.659V2.35245L14.731 5.48384ZM10.784 12.8076C11.199 12.8076 11.534 13.1434 11.534 13.5576C11.534 13.9373 11.252 14.2511 10.886 14.3008L10.784 14.3076H5.38702C4.97302 14.3076 4.63702 13.9719 4.63702 13.5576C4.63702 13.1779 4.91901 12.8642 5.28601 12.8145L5.38702 12.8076H10.784ZM9.49298 8.60536C9.49298 8.19116 9.15698 7.8554 8.74298 7.8554H5.38702L5.28497 7.86225C4.91897 7.91191 4.63702 8.22566 4.63702 8.60536C4.63702 9.01966 4.97302 9.35536 5.38702 9.35536H8.74298L8.84497 9.34856C9.21097 9.29886 9.49298 8.98506 9.49298 8.60536Z" fill="black"/>
</svg>
