<svg width="20" height="20" viewBox="0 0 20 20" fill="none" xmlns="http://www.w3.org/2000/svg">
<path fill-rule="evenodd" clip-rule="evenodd" d="M4.47001 0.00201091L4.49906 0.00400981C5.02206 0.0480098 5.47707 0.309009 5.89207 0.713009C6.68207 1.48701 8.37607 3.734 8.50407 4.346C8.64507 5.02901 8.49403 5.47202 8.04203 6.25702L7.93302 6.45102C7.72602 6.82902 7.69403 6.98501 7.75803 7.16401C8.74403 9.57601 10.426 11.258 12.811 12.232C13.037 12.314 13.2071 12.267 13.6841 11.994L13.9341 11.852C14.6041 11.485 15.029 11.368 15.657 11.498C16.267 11.626 18.518 13.322 19.287 14.11C19.693 14.525 19.9541 14.981 19.9991 15.54C20.0471 16.897 18.391 18.808 17.381 19.382C16.232 20.205 14.775 20.191 13.139 19.43C8.86402 17.651 2.32501 11.154 0.58201 6.88401L0.478067 6.64502C-0.183933 5.06402 -0.168971 3.69702 0.589029 2.66902C1.27903 1.52302 3.14601 -0.0599891 4.47001 0.00201091ZM4.38902 1.46402L4.30106 1.46801C3.62206 1.55901 2.25803 2.73301 1.80503 3.48001C1.33203 4.12401 1.34706 5.032 1.92606 6.305L2.03007 6.54802C3.78507 10.488 9.86307 16.482 13.7281 18.091L13.941 18.185C15.06 18.66 15.906 18.639 16.591 18.152C16.764 18.053 17.309 17.568 17.72 17.093C18.249 16.483 18.549 15.924 18.539 15.626C18.528 15.498 18.4301 15.327 18.2411 15.133C17.6691 14.547 15.587 12.979 15.358 12.931C15.141 12.886 14.962 12.947 14.474 13.227L14.2281 13.366C13.5091 13.753 13.001 13.858 12.285 13.597C9.50901 12.464 7.53804 10.494 6.39304 7.69001C6.12204 6.94001 6.26803 6.41001 6.74003 5.58801L6.85203 5.39001C7.06603 5.00301 7.11202 4.83901 7.07102 4.64401C7.02302 4.41301 5.45706 2.33501 4.86906 1.76001C4.67506 1.57101 4.50406 1.47302 4.37406 1.46202L4.38902 1.46402ZM18.5071 0.458005C18.7931 0.172005 19.256 0.172005 19.542 0.458005C19.801 0.718005 19.825 1.12401 19.613 1.41101L19.542 1.49301L17.133 3.902L19.542 6.31102C19.827 6.59702 19.827 7.06001 19.542 7.346C19.282 7.606 18.876 7.62902 18.589 7.41702L18.5071 7.346L16.0981 4.93701L13.69 7.346C13.404 7.632 12.9411 7.632 12.6551 7.346C12.3951 7.08601 12.372 6.68002 12.584 6.39302L12.6551 6.31102L15.0641 3.902L12.6551 1.49301C12.3691 1.20701 12.3691 0.744005 12.6551 0.458005C12.9151 0.198005 13.321 0.175005 13.608 0.387005L13.69 0.458005L16.0981 2.86702L18.5071 0.458005Z" fill="black"/>
</svg>
