<svg width="19" height="16" viewBox="0 0 19 16"  xmlns="http://www.w3.org/2000/svg">
<path  d="M18.2901 8.82288C18.6901 8.76788 19 8.41988 19 7.99988C19 7.54188 18.6301 7.16988 18.1801 7.16988H3.80007L9.00002 1.91889L9.06997 1.82589C9.30997 1.50089 9.29002 1.03989 9.00002 0.743887C8.68002 0.418887 8.15999 0.417889 7.83999 0.741889L1.25002 7.39988C1.21002 7.43888 1.18005 7.48089 1.15005 7.52589C0.920047 7.84988 0.950013 8.29989 1.24001 8.58889L7.83999 15.2579L7.93008 15.3379C8.25008 15.5789 8.71002 15.5509 9.00002 15.2559C9.32002 14.9309 9.32002 14.4049 9.00002 14.0809L3.80007 8.82989H18.1801L18.2901 8.82288Z" />
</svg>
