<svg width="19" height="21" viewBox="0 0 19 21"  xmlns="http://www.w3.org/2000/svg">
<path width="19" height="21" viewBox="0 0 19 21"  d="M18.494 4.23897C18.385 1.89097 16.448 0.0219727 14.073 0.0219727H9.18903L8.98102 0.0269699C6.62802 0.13597 4.75403 2.07697 4.75403 4.45597V5.38897L4.76099 5.49097C4.81099 5.85697 5.12503 6.13897 5.50403 6.13897C5.91903 6.13897 6.25403 5.80297 6.25403 5.38897V4.45597L6.25897 4.28397C6.34897 2.74297 7.62603 1.52197 9.18903 1.52197H14.073L14.245 1.52697C15.781 1.61597 16.998 2.88897 16.998 4.44697V15.587L16.993 15.759C16.904 17.3 15.626 18.522 14.063 18.522H9.17798L9.00702 18.517C7.47202 18.428 6.25403 17.154 6.25403 15.597V14.655L6.24799 14.553C6.19799 14.187 5.88403 13.905 5.50403 13.905C5.09003 13.905 4.75403 14.241 4.75403 14.655V15.597L4.75897 15.811C4.87097 18.155 6.80698 20.022 9.17798 20.022H14.063L14.272 20.017C16.624 19.908 18.498 17.966 18.498 15.587V4.44697L18.494 4.23897ZM9.35303 6.57697C9.61903 6.30997 10.036 6.28497 10.33 6.50197L10.414 6.57397L13.342 9.48997C13.61 9.75697 13.634 10.175 13.415 10.469L13.412 10.472C13.391 10.5 13.369 10.526 13.344 10.551L13.342 10.553L10.414 13.469C10.121 13.761 9.64603 13.761 9.35303 13.467C9.08803 13.2 9.06402 12.783 9.28302 12.49L9.35602 12.406L10.996 10.772H0.770996C0.356996 10.772 0.0209961 10.436 0.0209961 10.022C0.0209961 9.64197 0.303983 9.32797 0.669983 9.27897L0.770996 9.27197H10.996L9.35602 7.63697C9.08902 7.37097 9.06401 6.95497 9.28101 6.66097L9.35303 6.57697Z" />
</svg>
