<svg width="20" height="20" viewBox="0 0 20 20" fill="none" xmlns="http://www.w3.org/2000/svg">
<path fill-rule="evenodd" clip-rule="evenodd" d="M14.335 0.000244141H5.66602C2.26802 0.000244141 0.000976562 2.43284 0.000976562 5.91624V14.0842C0.000976562 17.5713 2.26202 20.0002 5.66602 20.0002H14.334C17.739 20.0002 20.001 17.5709 20.001 14.0842V5.91624C20.001 2.42974 17.739 0.000244141 14.335 0.000244141ZM5.66602 1.50024H14.335C16.885 1.50024 18.501 3.23524 18.501 5.91624V14.0842C18.501 16.7654 16.885 18.5002 14.334 18.5002H5.66602C3.11502 18.5002 1.50098 16.766 1.50098 14.0842V5.91624C1.50098 3.23864 3.12102 1.50024 5.66602 1.50024ZM4.323 10.0004C4.323 10.6604 4.86 11.1974 5.521 11.1974C6.182 11.1974 6.71899 10.6604 6.71899 10.0004C6.71899 9.34044 6.182 8.80244 5.521 8.80244C4.86 8.80244 4.323 9.34044 4.323 10.0004ZM10 11.1974C9.339 11.1974 8.802 10.6604 8.802 10.0004C8.802 9.34044 9.339 8.80244 10 8.80244C10.661 8.80244 11.198 9.34044 11.198 10.0004C11.198 10.6604 10.661 11.1974 10 11.1974ZM13.281 10.0004C13.281 10.6604 13.818 11.1974 14.479 11.1974C15.14 11.1974 15.677 10.6604 15.677 10.0004C15.677 9.34044 15.14 8.80244 14.479 8.80244C13.818 8.80244 13.281 9.34044 13.281 10.0004Z" fill="black"/>
</svg>
