<svg width="20" height="20" viewBox="0 0 20 20" fill="none" xmlns="http://www.w3.org/2000/svg">
<path fill-rule="evenodd" clip-rule="evenodd" d="M1.5 6.389C1.5 5.117 2.53995 4.081 3.81995 4.081H16.1801C17.4501 4.081 18.49 5.117 18.49 6.389V9.446C16.85 10.467 14.95 11.182 12.96 11.533C12.41 10.426 11.27 9.7 9.98999 9.7C8.71999 9.7 7.58001 10.423 7.01001 11.524C5.03001 11.175 3.14 10.463 1.5 9.446V6.389ZM8.69995 1.5H11.29C11.96 1.5 12.5199 1.961 12.6899 2.581H7.30005C7.47005 1.961 8.02995 1.5 8.69995 1.5ZM7.38 13.101C7.76 13.154 8.10996 12.92 8.20996 12.556C8.42996 11.744 9.14999 11.2 9.98999 11.2C10.82 11.2 11.54 11.756 11.75 12.552C11.83 12.888 12.13 13.118 12.47 13.118C12.51 13.118 12.54 13.116 12.58 13.111C15.15 12.755 17.59 11.846 19.65 10.482C19.86 10.342 19.99 10.108 19.99 9.856V6.389C19.99 4.289 18.2801 2.581 16.1801 2.581H14.21C14.02 1.13 12.79 0 11.29 0H8.69995C7.19995 0 5.97003 1.129 5.78003 2.581H3.81995C1.70995 2.581 0 4.289 0 6.389V9.856C0 10.108 0.129966 10.343 0.339966 10.482C2.39997 11.84 4.83 12.745 7.38 13.101ZM9.25 13.3841V14.6781C9.25 15.0921 9.58 15.4281 10 15.4281C10.41 15.4281 10.75 15.0921 10.75 14.6781V13.3841C10.75 12.9701 10.41 12.6341 10 12.6341C9.58 12.6341 9.25 12.9701 9.25 13.3841ZM18.51 13.4169C18.54 13.0329 18.85 12.7269 19.24 12.7269C19.66 12.7269 19.99 13.0619 19.99 13.4749C19.99 13.4813 19.98 13.6353 19.96 13.8639C19.92 14.4213 19.8399 15.4221 19.8199 15.8079C19.7599 16.7459 19.4 17.7029 18.85 18.3689C18.08 19.2969 17.09 19.7309 15.76 19.7339C15.14 19.7349 12.58 19.7359 10.02 19.7359C7.47002 19.7359 4.91004 19.7349 4.29004 19.7339C2.95004 19.7309 1.96995 19.2969 1.19995 18.3679C0.649951 17.7029 0.28998 16.7459 0.22998 15.8079C0.20998 15.4277 0.129966 14.4502 0.0899658 13.8884C0.0699658 13.6464 0.0600586 13.4815 0.0600586 13.4749C0.0600586 13.0619 0.390049 12.7269 0.800049 12.7269C1.20005 12.7269 1.51004 13.0329 1.54004 13.4169C1.54004 13.4169 1.68998 15.1659 1.72998 15.7179C1.75998 16.3289 2.00999 16.9939 2.35999 17.4099C2.84999 18.0009 3.39004 18.2319 4.29004 18.2339C5.53004 18.2359 14.52 18.2359 15.76 18.2339C16.66 18.2319 17.1999 18.0009 17.6899 17.4109C18.0399 16.9939 18.2899 16.3289 18.3199 15.7179C18.3499 15.1659 18.51 13.4169 18.51 13.4169Z" fill="black"/>
</svg>
