<svg width="18" height="20" viewBox="0 0 18 20" fill="none" xmlns="http://www.w3.org/2000/svg">
<path fill-rule="evenodd" clip-rule="evenodd" d="M11.606 0.0119441C11.563 0.00426406 11.519 0.000244141 11.473 0.000244141C11.428 0.000244141 11.384 0.00426406 11.341 0.0119441H5.08398C2.59698 0.0119441 0.5 2.02977 0.5 4.49094V15.2279C0.5 17.8255 2.50098 19.8649 5.08398 19.8649H13.072C15.528 19.8649 17.552 17.7229 17.552 15.2279V6.03794C17.552 5.8443 17.477 5.65817 17.343 5.51849L12.277 0.242494C12.136 0.0952041 11.94 0.0119441 11.736 0.0119441H11.606ZM10.723 1.51114L5.08398 1.51194C3.41298 1.51194 2 2.87134 2 4.49094V15.2279C2 17.0034 3.33598 18.3649 5.08398 18.3649H13.072C14.68 18.3649 16.052 16.9129 16.052 15.2279V6.98333L15.175 6.98631C14.842 6.98591 14.462 6.9852 14.041 6.98424C12.27 6.9805 10.826 5.59372 10.729 3.84765L10.723 3.65924V1.51114ZM15.231 5.48408L14.044 5.48425C13.038 5.48212 12.223 4.66581 12.223 3.65924V2.35209L15.231 5.48408ZM7.89001 9.256V14.0136L7.89697 14.1154C7.94697 14.4815 8.26101 14.7636 8.64001 14.7636C9.05501 14.7636 9.39001 14.4279 9.39001 14.0136V9.2568L10.947 10.8205L11.031 10.8932C11.325 11.1117 11.741 11.0884 12.008 10.8227C12.302 10.5304 12.303 10.0555 12.01 9.762L9.17297 6.91247C9.14697 6.88605 9.11799 6.86157 9.08899 6.83926L9.08698 6.83804C8.79298 6.61905 8.37497 6.64342 8.10797 6.91113L5.27002 9.7621L5.198 9.8464C4.981 10.1405 5.00601 10.5571 5.27301 10.8228L5.35699 10.8952C5.65099 11.1124 6.06801 11.0872 6.33301 10.8204L7.89001 9.256Z" fill="black"/>
</svg>
