<svg width="18" height="18" viewBox="0 0 18 18" fill="none" xmlns="http://www.w3.org/2000/svg">
<path fill-rule="evenodd" clip-rule="evenodd" d="M0.96901 10.916L10.659 1.41701C11.906 0.194006 13.928 0.194006 15.175 1.41701L16.469 2.685C17.716 3.908 17.716 5.89 16.469 7.112L6.74101 16.649C6.18401 17.194 5.43002 17.5 4.64302 17.5H0.659013C0.288013 17.5 -0.00898383 17.201 1.61702e-05 16.838L0.100022 12.897C0.120022 12.153 0.43101 11.443 0.96901 10.916ZM15.538 3.59801L14.244 2.33C13.511 1.612 12.323 1.612 11.591 2.33L10.838 3.067L14.786 6.936L15.538 6.199C16.271 5.481 16.271 4.31601 15.538 3.59801ZM1.90001 11.829L9.90701 3.97999L13.855 7.849L5.80902 15.736L5.70201 15.832C5.40701 16.074 5.03202 16.209 4.64302 16.209L1.33301 16.208L1.41702 12.93C1.42802 12.517 1.60101 12.121 1.90001 11.829ZM18 16.854C18 16.498 17.705 16.209 17.341 16.209H10.471L10.382 16.215C10.06 16.258 9.81201 16.528 9.81201 16.854C9.81201 17.211 10.107 17.5 10.471 17.5H17.341L17.431 17.494C17.752 17.451 18 17.181 18 16.854Z" fill="black"/>
</svg>
