<svg width="21" height="21" viewBox="0 0 21 21" fill="none" xmlns="http://www.w3.org/2000/svg">
<path fill-rule="evenodd" clip-rule="evenodd" d="M9.33099 0.0209961C11.711 0.0209961 13.653 1.89499 13.762 4.24799L13.766 4.45599V5.38899C13.766 5.80399 13.431 6.13899 13.016 6.13899C12.637 6.13899 12.323 5.85699 12.273 5.49099L12.266 5.38899V4.45599C12.266 2.89399 11.044 1.61599 9.50403 1.52599L9.33099 1.521H4.45599C2.89399 1.521 1.61698 2.74399 1.52698 4.28399L1.52197 4.45599V15.586C1.52197 17.149 2.744 18.427 4.284 18.517L4.45599 18.521H9.341C10.899 18.521 12.173 17.304 12.261 15.769L12.266 15.597V14.654C12.266 14.24 12.602 13.904 13.016 13.904C13.396 13.904 13.71 14.187 13.76 14.553L13.766 14.654V15.597C13.766 17.969 11.9 19.905 9.55603 20.016L9.341 20.021H4.45599C2.07799 20.021 0.135978 18.147 0.0269775 15.795L0.0219727 15.586V4.45599C0.0219727 2.07699 1.89599 0.134993 4.24799 0.0259933L4.45599 0.0209961H9.33099ZM20.329 9.48C20.471 9.616 20.56 9.808 20.56 10.021C20.56 10.236 20.469 10.43 20.324 10.567L17.411 13.469C17.117 13.761 16.643 13.76 16.35 13.467C16.085 13.2 16.061 12.783 16.28 12.49L16.352 12.406L17.992 10.771H7.76898C7.35498 10.771 7.01898 10.436 7.01898 10.021C7.01898 9.642 7.30099 9.32799 7.66699 9.27799L7.76898 9.271H17.994L16.353 7.63799C16.086 7.37199 16.061 6.956 16.278 6.661L16.35 6.577C16.616 6.31 17.032 6.28499 17.327 6.50199L17.411 6.57499L20.329 9.48Z" fill="black"/>
</svg>
