<svg width="20" height="18" viewBox="0 0 20 18" fill="none" xmlns="http://www.w3.org/2000/svg">
<path fill-rule="evenodd" clip-rule="evenodd" d="M18.418 0.716C18.125 0.428 17.65 0.428 17.357 0.716L15.269 2.77099C13.656 1.66299 11.855 1.07499 9.99999 1.07499C7.94299 1.07499 5.94698 1.79499 4.21898 3.14199C2.51098 4.46399 1.08699 6.37099 0.0609941 8.70799C-0.0200059 8.89399 -0.0200059 9.105 0.0609941 9.292C0.945994 11.322 2.13598 13.026 3.55398 14.3L1.583 16.24L1.51 16.323C1.293 16.612 1.317 17.022 1.583 17.284C1.876 17.572 2.351 17.572 2.644 17.284L18.418 1.75999L18.49 1.677C18.708 1.388 18.684 0.978 18.418 0.716ZM4.61599 13.255L6.75402 11.151C6.32302 10.526 6.08599 9.785 6.08599 9.001C6.08599 6.868 7.83399 5.147 9.99999 5.147C10.792 5.147 11.553 5.38199 12.187 5.80499L14.189 3.834C12.882 2.991 11.456 2.552 9.99999 2.552C8.28999 2.552 6.62 3.15399 5.148 4.30099C3.738 5.39199 2.52899 6.96099 1.61699 8.89999L1.57 9.001L1.61599 9.1C2.40899 10.795 3.42999 12.204 4.61599 13.255ZM11.094 6.88C10.762 6.714 10.388 6.62399 9.99999 6.62399C8.66199 6.62399 7.58599 7.683 7.58599 9.001C7.58599 9.385 7.67697 9.749 7.84697 10.076L11.094 6.88ZM13.137 8.81599L13.238 8.82699C13.646 8.89899 13.917 9.283 13.843 9.684C13.556 11.257 12.299 12.496 10.702 12.781C10.295 12.854 9.90401 12.588 9.83001 12.187C9.75601 11.786 10.027 11.402 10.434 11.329C11.415 11.154 12.19 10.389 12.367 9.423C12.434 9.055 12.767 8.79999 13.137 8.81599ZM16.997 5.31399C17.328 5.06899 17.798 5.135 18.047 5.46C18.773 6.409 19.407 7.499 19.938 8.707C20.02 8.894 20.021 9.106 19.939 9.293C17.861 14.029 14.135 16.924 9.99999 16.924C9.05899 16.924 8.12801 16.775 7.23101 16.48C6.83801 16.351 6.62501 15.933 6.75701 15.546C6.88801 15.16 7.31301 14.951 7.70501 15.08C8.45001 15.324 9.22099 15.448 9.99999 15.448C13.305 15.448 16.381 13.186 18.273 9.33L18.428 9.001L18.375 8.88499C17.995 8.07799 17.564 7.33899 17.09 6.67399L16.849 6.348C16.6 6.022 16.666 5.55999 16.997 5.31399Z" fill="black"/>
</svg>
