<svg width="20" height="20" viewBox="0 0 20 20" fill="none" xmlns="http://www.w3.org/2000/svg">
<path fill-rule="evenodd" clip-rule="evenodd" d="M19.705 2.59154C20.016 1.18588 18.7089 -0.0825219 17.2939 0.327078L1.63696 4.88281L1.48596 4.93304C0.0169556 5.48611 -0.209038 7.53286 1.16796 8.38022L7.64294 12.3661L11.5389 18.8201L11.6269 18.9534C12.5399 20.2329 14.5619 19.923 15.0229 18.372L19.668 2.73251L19.705 2.59154ZM17.7849 1.75323C18.0739 1.72222 18.3199 2.00312 18.2299 2.30473L13.585 17.9447L13.5549 18.0214C13.4099 18.3069 12.9989 18.336 12.8229 18.0451L9.13494 11.9361L14.3879 6.64975L14.46 6.56539C14.677 6.27105 14.6509 5.85447 14.3839 5.58909L14.2999 5.51676C14.0049 5.29988 13.5889 5.32547 13.3239 5.59262L8.07794 10.8721L1.95391 7.10283L1.88793 7.05318C1.64993 6.83652 1.72996 6.41781 2.05596 6.32322L17.7119 1.76764L17.7849 1.75323Z" fill="black"/>
</svg>
