<svg width="18" height="20" viewBox="0 0 18 20" fill="none" xmlns="http://www.w3.org/2000/svg">
<path fill-rule="evenodd" clip-rule="evenodd" d="M13.419 0.603001C13.373 0.262501 13.083 0 12.733 0C12.35 0 12.04 0.3124 12.04 0.697701V1.469H5.968V0.697701L5.962 0.603001C5.916 0.262501 5.626 0 5.276 0C4.893 0 4.584 0.3124 4.584 0.697701V1.4863C1.747 1.6817 0 3.5199 0 6.4858V14.9041C0 18.0872 1.958 20 5.096 20H12.904C16.045 20 18 18.1193 18 14.9744V6.4858C18.009 3.5189 16.268 1.6812 13.425 1.4863V0.697701L13.419 0.603001ZM12.04 2.8644V3.7589L12.047 3.8535C12.092 4.1941 12.382 4.4565 12.733 4.4565C13.115 4.4565 13.425 4.1442 13.425 3.7589V2.885C15.493 3.0571 16.622 4.3027 16.615 6.4836V6.8877H1.385V6.4858C1.385 4.3063 2.519 3.058 4.584 2.8851V3.7589L4.59 3.8535C4.636 4.1941 4.925 4.4565 5.276 4.4565C5.658 4.4565 5.968 4.1442 5.968 3.7589V2.8644H12.04ZM1.385 8.283V14.9041C1.385 17.3067 2.714 18.6047 5.096 18.6047H12.904C15.295 18.6047 16.615 17.3338 16.615 14.9744V8.283H1.385ZM13.801 11.2183C13.801 10.833 13.491 10.5206 13.109 10.5206L13.006 10.527C12.668 10.5732 12.408 10.8651 12.408 11.2183C12.408 11.6036 12.718 11.916 13.109 11.916L13.203 11.9096C13.541 11.8634 13.801 11.5715 13.801 11.2183ZM9.013 10.5206C9.395 10.5206 9.705 10.833 9.705 11.2183C9.705 11.5715 9.445 11.8634 9.107 11.9096L9.013 11.916C8.622 11.916 8.312 11.6036 8.312 11.2183C8.312 10.8651 8.572 10.5732 8.91 10.527L9.013 10.5206ZM5.6 11.2183C5.6 10.833 5.29 10.5206 4.908 10.5206L4.806 10.527C4.468 10.5732 4.207 10.8651 4.207 11.2183C4.207 11.6036 4.517 11.916 4.9 11.916L5.002 11.9096C5.34 11.8634 5.6 11.5715 5.6 11.2183ZM13.109 14.136C13.491 14.136 13.801 14.4484 13.801 14.8337C13.801 15.1869 13.541 15.4788 13.203 15.525L13.109 15.5314C12.718 15.5314 12.408 15.219 12.408 14.8337C12.408 14.4805 12.668 14.1886 13.006 14.1424L13.109 14.136ZM9.705 14.8337C9.705 14.4484 9.395 14.136 9.013 14.136L8.91 14.1424C8.572 14.1886 8.312 14.4805 8.312 14.8337C8.312 15.219 8.622 15.5314 9.013 15.5314L9.107 15.525C9.445 15.4788 9.705 15.1869 9.705 14.8337ZM4.908 14.136C5.29 14.136 5.6 14.4484 5.6 14.8337C5.6 15.1869 5.34 15.4788 5.002 15.525L4.9 15.5314C4.517 15.5314 4.207 15.219 4.207 14.8337C4.207 14.4805 4.468 14.1886 4.806 14.1424L4.908 14.136Z" fill="black"/>
</svg>
