<svg width="20" height="20" viewBox="0 0 20 20" fill="none" xmlns="http://www.w3.org/2000/svg">
<path fill-rule="evenodd" clip-rule="evenodd" d="M14.359 0H5.64099C2.25599 0 0 2.4199 0 5.8932V14.1068C0 17.5833 2.24999 20 5.64099 20H14.359C17.75 20 20 17.5833 20 14.1068V5.8932C20 2.4167 17.75 0 14.359 0ZM5.64099 1.3953H14.359C16.956 1.3953 18.605 3.1659 18.605 5.8932V14.1068C18.605 16.8341 16.956 18.6047 14.359 18.6047H5.64099C3.04399 18.6047 1.39499 16.8341 1.39499 14.1068V5.8932C1.39499 3.1695 3.04899 1.3953 5.64099 1.3953ZM10.727 5.1789C10.681 4.8384 10.389 4.5759 10.035 4.5759C9.65 4.5759 9.33801 4.8883 9.33801 5.2736V14.7087L9.34399 14.8034C9.38999 15.1439 9.682 15.4064 10.035 15.4064C10.421 15.4064 10.733 15.094 10.733 14.7087V5.2736L10.727 5.1789ZM6.38599 8.2325C6.33899 7.892 6.048 7.6295 5.694 7.6295C5.309 7.6295 4.99701 7.9419 4.99701 8.3272V14.7087L5.00299 14.8034C5.04899 15.1439 5.341 15.4064 5.694 15.4064C6.08 15.4064 6.392 15.094 6.392 14.7087V8.3272L6.38599 8.2325ZM14.306 11.0017C14.659 11.0017 14.951 11.2642 14.997 11.6047L15.003 11.6994V14.7087C15.003 15.094 14.691 15.4064 14.306 15.4064C13.952 15.4064 13.661 15.1439 13.614 14.8034L13.608 14.7087V11.6994C13.608 11.3141 13.92 11.0017 14.306 11.0017Z" fill="black"/>
</svg>
