<svg width="20" height="19" viewBox="0 0 20 19" fill="none" xmlns="http://www.w3.org/2000/svg">
<path fill-rule="evenodd" clip-rule="evenodd" d="M15.856 -0.000244141H4.14398C1.85598 -0.000244141 0.000976562 1.85445 0.000976562 4.14275L0 6.93246C0 7.34676 0.336 7.68275 0.75 7.68275C1.602 7.68275 2.23901 8.28555 2.23901 9.08475C2.23901 9.90946 1.575 10.5738 0.75 10.5738C0.336 10.5738 0 10.9095 0 11.3238V14.0238C0 16.3121 1.85403 18.1668 4.14203 18.1668H15.857C18.146 18.1668 20 16.3123 20 14.0238V11.3238C20 10.9095 19.664 10.5738 19.25 10.5738C18.424 10.5738 17.76 9.90956 17.76 9.08475C17.76 8.30775 18.348 7.67436 19.106 7.60246L19.25 7.59576C19.664 7.59576 20 7.25955 20 6.84515L19.998 4.14215C19.998 1.85435 18.144 -0.000244141 15.856 -0.000244141ZM15.856 1.49976L16.023 1.50496C17.405 1.59116 18.498 2.73885 18.498 4.14275L18.5 6.19096L18.4 6.21765C17.161 6.58265 16.26 7.72596 16.26 9.08475L16.265 9.26055C16.339 10.5409 17.215 11.6025 18.4 11.9518L18.5 11.977V14.0238C18.5 15.4839 17.317 16.6668 15.857 16.6668H4.14203L3.97498 16.6616C2.59298 16.5753 1.5 15.4276 1.5 14.0238V11.977L1.599 11.9518C2.838 11.5866 3.73901 10.4428 3.73901 9.08475L3.73401 8.90975C3.66001 7.63875 2.79003 6.62845 1.60303 6.29785L1.5 6.27196L1.50098 4.14296C1.50098 2.68296 2.68398 1.49976 4.14398 1.49976H15.856ZM8.43103 6.87795L6.87701 7.10406L6.76599 7.12666C6.05099 7.31436 5.78898 8.22565 6.33698 8.76155L7.46301 9.85796L7.19702 11.4083L7.185 11.5154C7.137 12.2553 7.92702 12.7886 8.60602 12.4343L9.99902 11.702L11.39 12.4331L11.488 12.4779C12.178 12.7503 12.932 12.1664 12.802 11.4086L12.535 9.85796L13.662 8.76276L13.738 8.67956C14.207 8.10776 13.883 7.21665 13.126 7.10435L11.568 6.87795L10.871 5.46716C10.516 4.74496 9.48703 4.74495 9.12903 5.46545L8.43103 6.87795ZM9.99902 7.08995L10.397 7.89526L10.45 7.98576C10.567 8.15796 10.752 8.27495 10.962 8.30535L11.847 8.43395L11.206 9.05865L11.137 9.13696C11.009 9.30196 10.954 9.51435 10.99 9.72315L11.142 10.608L10.349 10.1904L10.253 10.1482C10.056 10.0779 9.83802 10.0919 9.65002 10.1904L8.85699 10.607L9.00897 9.72315L9.01898 9.61875C9.02498 9.41025 8.94403 9.20655 8.79303 9.05885L8.15198 8.43395L9.03699 8.30535C9.28199 8.26985 9.49299 8.11656 9.60199 7.89526L9.99902 7.08995Z" fill="black"/>
</svg>
