<svg width="22" height="18" viewBox="0 0 22 18" fill="none" xmlns="http://www.w3.org/2000/svg">
<path fill-rule="evenodd" clip-rule="evenodd" d="M17.857 0H4.14301C1.85801 0 0.000976562 1.843 0.000976562 4.121L0 6.876C0 7.266 0.289025 7.589 0.663025 7.64L0.767029 7.647C1.60603 7.647 2.22699 8.231 2.22699 9.001C2.22699 9.798 1.57903 10.441 0.767029 10.441C0.344029 10.441 0 10.786 0 11.212V13.879C0 16.158 1.85603 18 4.14203 18H17.858C20.144 18 22 16.158 22 13.879V11.212C22 10.786 21.656 10.441 21.233 10.441C20.421 10.441 19.773 9.798 19.773 9.001C19.773 8.204 20.421 7.56 21.233 7.56C21.657 7.56 22 7.215 22 6.789L21.999 4.121C21.999 1.843 20.142 0 17.857 0ZM17.857 1.543L18.029 1.548C19.39 1.636 20.464 2.756 20.464 4.121V6.117L20.382 6.139C19.142 6.503 18.238 7.643 18.238 9.001L18.243 9.177C18.317 10.456 19.195 11.514 20.382 11.862L20.465 11.884V13.879C20.465 15.301 19.301 16.457 17.858 16.457H13.66V14.925L13.653 14.82C13.602 14.443 13.281 14.153 12.893 14.153C12.469 14.153 12.125 14.499 12.125 14.925V16.457H4.14203L3.96997 16.452C2.60797 16.364 1.53497 15.244 1.53497 13.879V11.883L1.61798 11.862C2.85798 11.498 3.76202 10.359 3.76202 9.001L3.75702 8.826C3.68302 7.556 2.80997 6.549 1.62097 6.219L1.534 6.197L1.53601 4.122C1.53601 2.699 2.70101 1.543 4.14301 1.543H12.125V3.518L12.132 3.623C12.183 3.999 12.504 4.289 12.893 4.289C13.317 4.289 13.66 3.944 13.66 3.518V1.543H17.857ZM12.893 5.661C13.281 5.661 13.602 5.951 13.653 6.328L13.66 6.432V11.391C13.66 11.817 13.317 12.162 12.893 12.162C12.504 12.162 12.183 11.872 12.132 11.496L12.125 11.391V6.432C12.125 6.006 12.469 5.661 12.893 5.661Z" fill="black"/>
</svg>
