<svg width="20" height="20" viewBox="0 0 20 20" fill="none" xmlns="http://www.w3.org/2000/svg">
<path fill-rule="evenodd" clip-rule="evenodd" d="M10 0C4.47715 0 0 4.477 0 10C0 15.523 4.47715 20 10 20C15.5228 20 20 15.523 20 10C20 4.477 15.5228 0 10 0ZM10 1.448C14.7233 1.448 18.5523 5.277 18.5523 10C18.5523 14.723 14.7233 18.552 10 18.552C5.27672 18.552 1.44774 14.723 1.44774 10C1.44774 5.277 5.27672 1.448 10 1.448ZM13.0084 6.085L8.0964 7.622C7.87 7.693 7.69266 7.87 7.6218 8.096L6.08461 13.008C5.91011 13.566 6.43404 14.09 6.99164 13.915L11.9036 12.378C12.13 12.307 12.3073 12.13 12.3782 11.904L13.9154 6.992C14.0899 6.434 13.566 5.91 13.0084 6.085ZM12.1204 7.879L11.109 11.109L7.87856 12.12L8.8901 8.89L12.1204 7.879Z" fill="black"/>
</svg>
