<svg width="20" height="20" viewBox="0 0 20 20" fill="none" xmlns="http://www.w3.org/2000/svg">
<path fill-rule="evenodd" clip-rule="evenodd" d="M10 20C15.52 20 20 15.523 20 10C20 4.477 15.52 0 10 0C4.48 0 0 4.478 0 10C0 15.522 4.48 20 10 20ZM10 18.5C5.31 18.5 1.5 14.694 1.5 10C1.5 5.306 5.31 1.5 10 1.5C14.69 1.5 18.5 5.306 18.5 10C18.5 14.694 14.69 18.5 10 18.5ZM13.02 12.044C13.32 12.263 13.73 12.239 14 11.974C14.29 11.682 14.29 11.207 14 10.913L10.53 7.427L10.45 7.354C10.15 7.135 9.73997 7.159 9.46997 7.427L6 10.913L5.93005 10.997C5.71005 11.291 5.73 11.708 6 11.974L6.07996 12.046C6.37996 12.263 6.79006 12.238 7.06006 11.971L10 9.02L12.9399 11.971L13.02 12.044Z" fill="black"/>
</svg>
