<svg width="20" height="20" viewBox="0 0 20 20" fill="none" xmlns="http://www.w3.org/2000/svg">
<path fill-rule="evenodd" clip-rule="evenodd" d="M14.335 0.000244141H5.66602C2.26802 0.000244141 0.000976562 2.43284 0.000976562 5.91624V14.0842C0.000976562 17.5709 2.26202 20.0002 5.66602 20.0002H14.334C17.739 20.0002 20.001 17.5709 20.001 14.0842V5.91624C20.001 2.42974 17.739 0.000244141 14.335 0.000244141ZM5.66602 1.50024H14.335C16.885 1.50024 18.501 3.23524 18.501 5.91624V14.0842C18.501 16.7654 16.885 18.5002 14.334 18.5002H5.66602C3.11602 18.5002 1.50098 16.7656 1.50098 14.0842V5.91624C1.50098 3.23864 3.12102 1.50024 5.66602 1.50024ZM10 5.45435C10.414 5.45435 10.75 5.79015 10.75 6.20435C10.75 6.58405 10.468 6.89785 10.102 6.94755L9.98999 6.95435C9.57599 6.95435 9.23999 6.61865 9.23999 6.20435C9.23999 5.82465 9.52198 5.51095 9.88898 5.46125L10 5.45435ZM9.98999 8.62714C10.37 8.62714 10.684 8.90934 10.733 9.27544L10.74 9.37714V13.7961C10.74 14.2104 10.404 14.5461 9.98999 14.5461C9.61099 14.5461 9.29701 14.264 9.24701 13.8979L9.23999 13.7961V9.37714C9.23999 8.96294 9.57599 8.62714 9.98999 8.62714Z" fill="black"/>
</svg>
