<svg width="20" height="20" viewBox="0 0 20 20" fill="none" xmlns="http://www.w3.org/2000/svg">
<path fill-rule="evenodd" clip-rule="evenodd" d="M5.66101 0H14.329C17.732 0 20 2.429 20 5.914V14.085C20 17.57 17.732 20 14.329 20H5.66101C2.26001 20 0 17.572 0 14.085V5.914C0 2.431 2.26601 0 5.66101 0ZM14.329 1.504H5.66101C3.12101 1.504 1.50299 3.239 1.50299 5.914V14.085C1.50299 16.765 3.11501 18.496 5.66101 18.496H14.329C16.878 18.496 18.497 16.762 18.497 14.085V5.914C18.497 3.237 16.878 1.504 14.329 1.504ZM11.531 10.459C12.418 9.378 14.016 9.26901 15.041 10.184L15.171 10.309L17.251 12.456C17.54 12.754 17.533 13.23 17.235 13.519C16.964 13.782 16.546 13.8 16.255 13.577L16.172 13.503L14.092 11.355C13.73 10.981 13.141 10.978 12.773 11.327L12.692 11.414L10.459 14.131C9.66898 15.094 8.248 15.197 7.328 14.39L7.20599 14.275L6.315 13.365C6.081 13.122 5.70702 13.099 5.44702 13.295L5.36499 13.368L3.83301 14.985C3.54801 15.287 3.072 15.3 2.771 15.014C2.497 14.754 2.462 14.337 2.672 14.037L2.742 13.951L4.27399 12.334C5.08099 11.482 6.40901 11.437 7.26801 12.197L7.39301 12.317L8.27899 13.222C8.53899 13.487 8.95399 13.493 9.22198 13.255L9.29797 13.177L11.531 10.459ZM6.573 4.64101C5.188 4.64101 4.065 5.76599 4.065 7.15199C4.065 8.53699 5.188 9.662 6.573 9.662C7.958 9.662 9.08197 8.53699 9.08197 7.15199C9.08197 5.76599 7.958 4.64101 6.573 4.64101ZM6.573 6.145C7.128 6.145 7.57898 6.59599 7.57898 7.15199C7.57898 7.70699 7.128 8.158 6.573 8.158C6.018 8.158 5.56799 7.70699 5.56799 7.15199C5.56799 6.59599 6.018 6.145 6.573 6.145Z" fill="black"/>
</svg>
