<svg width="20" height="20" viewBox="0 0 20 20" fill="none" xmlns="http://www.w3.org/2000/svg">
<path fill-rule="evenodd" clip-rule="evenodd" d="M14.433 18.5728C16.782 18.5228 18.655 16.5658 18.603 14.2118V9.86981C18.605 9.76481 18.604 9.67181 18.6 9.57881C18.499 7.24081 16.61 5.49682 14.195 5.49682C14.184 5.49682 14.174 5.49722 14.163 5.49772C14.15 5.49822 14.137 5.49882 14.119 5.49882H5.882C5.756 5.49381 5.66502 5.49282 5.57402 5.49482C4.43102 5.51982 3.369 5.98582 2.581 6.81082C1.791 7.63382 1.37101 8.71481 1.39601 9.85581V14.1958C1.39401 14.3038 1.395 14.3978 1.399 14.4898C1.502 16.8428 3.48002 18.6828 5.85002 18.5698C8.56902 18.6158 11.332 18.6158 14.106 18.5688C14.242 18.5748 14.338 18.5758 14.433 18.5728ZM14.114 4.10381C17.297 4.07781 19.86 6.44082 19.994 9.51782C19.999 9.63882 20 9.76281 19.998 9.88581V14.1958C20.066 17.3038 17.582 19.8998 14.46 19.9688C14.332 19.9718 14.211 19.9688 14.089 19.9638C12.711 19.9878 11.325 19.9998 9.94602 19.9998C8.57502 19.9998 7.211 19.9878 5.869 19.9648C2.79 20.0958 0.142016 17.6718 0.00501582 14.5528C-0.00098418 14.4298 -0.000981983 14.3058 0.00101802 14.1818V9.86981C-0.031982 8.37281 0.526009 6.93882 1.57301 5.84582C2.61901 4.75182 4.028 4.13182 5.541 4.09982C5.664 4.09582 5.79 4.09681 5.916 4.10481L9.87101 4.10381V3.87282C9.86201 3.19682 9.30001 2.64382 8.61601 2.64382H8.606H7.61802H7.60002C6.53602 2.64382 5.66002 1.77682 5.64802 0.705816C5.64402 0.319816 5.95402 0.00481758 6.33802 0.000817582C6.68202 -0.0151824 7.04001 0.305816 7.04301 0.690816C7.04601 0.998816 7.299 1.24782 7.606 1.24782H7.61201H8.60102H8.62101C10.061 1.24782 11.247 2.41682 11.266 3.86382V4.10381H14.114ZM7.08 9.58541C7.452 9.58541 7.76 9.85781 7.809 10.2111L7.81602 10.3093V11.3258H8.85002C9.25602 11.3258 9.58601 11.6499 9.58601 12.0497C9.58601 12.4161 9.30902 12.719 8.95002 12.7669L8.85002 12.7735H7.81602V13.7901C7.81602 14.1898 7.486 14.5139 7.08 14.5139C6.707 14.5139 6.39902 14.2416 6.35002 13.8883L6.343 13.7901V12.7735H5.31001C4.90301 12.7735 4.57301 12.4495 4.57301 12.0497C4.57301 11.6832 4.85 11.3803 5.21 11.3324L5.31001 11.3258H6.343V10.3093C6.343 9.90951 6.673 9.58541 7.08 9.58541ZM13.854 10.4153C13.854 10.0155 13.524 9.69141 13.118 9.69141H13.019L12.919 9.69811C12.56 9.74601 12.283 10.0488 12.283 10.4153C12.283 10.8151 12.612 11.1392 13.019 11.1392H13.118L13.218 11.1326C13.577 11.0846 13.854 10.7818 13.854 10.4153ZM14.798 13.0132C15.205 13.0132 15.534 13.3373 15.534 13.7371C15.534 14.1035 15.257 14.4064 14.898 14.4543L14.798 14.4609H14.699C14.293 14.4609 13.963 14.1368 13.963 13.7371C13.963 13.3706 14.24 13.0677 14.599 13.0198L14.699 13.0132H14.798Z" fill="black"/>
</svg>
