<svg width="12" height="18" viewBox="0 0 12 18" fill="none" xmlns="http://www.w3.org/2000/svg">
<path fill-rule="evenodd" clip-rule="evenodd" d="M6.70996 0.63459C6.65996 0.27622 6.36 0 6 0C5.6 0 5.28003 0.32872 5.28003 0.73421V8.7616H1.21997C0.649973 8.7616 0.309988 9.3983 0.609988 9.8872L5.39002 17.6572C5.67002 18.1143 6.32999 18.1143 6.60999 17.6572L11.39 9.8872C11.69 9.3983 11.35 8.7616 10.78 8.7616H6.71997V0.73421L6.70996 0.63459ZM5.96997 10.2293C5.97997 10.2298 5.99 10.2301 6 10.2301C6.01 10.2301 6.02003 10.2298 6.03003 10.2293H9.47998L6 15.8876L2.52002 10.2293H5.96997Z" fill="black"/>
</svg>
