<svg width="18" height="20" viewBox="0 0 18 20" fill="none" xmlns="http://www.w3.org/2000/svg">
<path fill-rule="evenodd" clip-rule="evenodd" d="M9.0288 5.21598e-05C4.4198 -0.0159478 0.655101 3.65105 0.504601 8.24105L0.5 8.52605C0.5766 10.7761 1.3421 12.9211 2.6903 14.6881L3.0069 15.1011C4.2938 16.7371 5.8231 18.173 7.5403 19.357L7.9537 19.635L8.014 19.6831C8.6026 20.1061 9.3973 20.1061 9.9858 19.6831L10.036 19.642C11.3986 18.758 12.655 17.72 13.7805 16.547C16.0686 14.125 17.4477 11.4111 17.4998 8.65505L17.4999 8.55305C17.5155 3.93205 13.8598 0.156049 9.284 0.00504941L9.0288 5.21598e-05ZM9.0237 1.51705C12.8022 1.53005 15.87 4.54905 15.9839 8.30905L15.9871 8.64105C15.9434 10.9511 14.7334 13.332 12.6866 15.499C11.6429 16.586 10.4727 17.553 9.2036 18.374L9.119 18.4381C9.0506 18.4971 8.9492 18.4971 8.8809 18.4381L8.7987 18.3761C6.908 17.1421 5.2486 15.5831 3.8964 13.7721C2.8072 12.3441 2.1618 10.6371 2.0318 8.85705L2.0128 8.50005C2.0256 4.71205 5.0353 1.63506 8.7835 1.52106L9.0237 1.51705ZM8.9999 5.40105C7.2115 5.40105 5.7618 6.85605 5.7618 8.64905C5.7618 10.4431 7.2115 11.8981 8.9999 11.8981C10.7883 11.8981 12.2381 10.4431 12.2381 8.64905C12.2381 6.85605 10.7883 5.40105 8.9999 5.40105ZM8.9999 6.91905C9.9528 6.91905 10.7253 7.69405 10.7253 8.64905C10.7253 9.60505 9.9528 10.38 8.9999 10.38C8.047 10.38 7.2745 9.60505 7.2745 8.64905C7.2745 7.69405 8.047 6.91905 8.9999 6.91905Z" fill="black"/>
</svg>
