<svg width="20" height="20" viewBox="0 0 20 20" fill="none" xmlns="http://www.w3.org/2000/svg">
<path fill-rule="evenodd" clip-rule="evenodd" d="M0 9.99976C0 15.5226 4.48 19.9998 10 19.9998C15.52 19.9998 20 15.5226 20 9.99976C20 4.47746 15.52 -0.000244141 10 -0.000244141C4.48 -0.000244141 0 4.47746 0 9.99976ZM1.5 9.99976C1.5 5.30596 5.31 1.49976 10 1.49976C14.69 1.49976 18.5 5.30596 18.5 9.99976C18.5 14.6942 14.69 18.4998 10 18.4998C5.31 18.4998 1.5 14.6942 1.5 9.99976ZM7.95996 13.0234C7.73996 13.3166 7.76003 13.7333 8.03003 14.0001C8.32003 14.2937 8.78997 14.2947 9.08997 14.0024L12.5699 10.5314L12.65 10.4472C12.86 10.1531 12.8399 9.73495 12.5699 9.46845L9.08997 5.99746L9 5.92495C8.71 5.70775 8.29003 5.73286 8.03003 5.99976L7.94995 6.08395C7.73995 6.37805 7.76003 6.79466 8.03003 7.06036L10.98 10.001L8.03003 12.9395L7.95996 13.0234Z" fill="black"/>
</svg>
