<svg width="18" height="12" viewBox="0 0 18 12" fill="none" xmlns="http://www.w3.org/2000/svg">
<path fill-rule="evenodd" clip-rule="evenodd" d="M17.37 6.71089C17.72 6.66289 18 6.36289 18 5.99989C18 5.60389 17.67 5.2829 17.27 5.2829H9.23997V1.2179C9.23997 0.653897 8.59996 0.310894 8.10996 0.611894L0.339941 5.3929C-0.110059 5.6749 -0.110059 6.32489 0.339941 6.60689L8.10996 11.3879C8.59996 11.6889 9.23997 11.3459 9.23997 10.7819V6.71689H17.27L17.37 6.71089ZM7.77 5.96689C7.77 5.97789 7.77 5.98889 7.77 5.99989C7.77 6.01089 7.77 6.0219 7.77 6.0329V9.4809L2.10996 5.99989L7.77 2.51689V5.96689Z" fill="black"/>
</svg>
