<svg width="22" height="22" viewBox="0 0 22 22" fill="none" xmlns="http://www.w3.org/2000/svg">
<path fill-rule="evenodd" clip-rule="evenodd" d="M2.27197 0H19.728C20.989 0 22 1.04401 22 2.32001V4.022C22 4.641 21.759 5.236 21.328 5.67L13.885 13.217V18.931C13.885 19.191 13.754 19.431 13.541 19.572L13.445 19.626L8.55701 21.926C8.04801 22.166 7.46301 21.794 7.46301 21.232V13.199L0.606018 5.63901C0.259018 5.25701 0.0499956 4.769 0.00799561 4.255L0 4.06V2.32001C0 1.04401 1.01097 0 2.27197 0ZM19.728 1.535H2.27197C1.86997 1.535 1.53497 1.88101 1.53497 2.32001V4.06C1.53497 4.266 1.61 4.46099 1.742 4.60699L8.79901 12.388C8.92701 12.529 8.99799 12.712 8.99799 12.903L8.99701 20.021L12.35 18.444V12.903C12.35 12.742 12.401 12.586 12.494 12.456L12.571 12.364L20.237 4.591C20.382 4.444 20.465 4.239 20.465 4.022V2.32001C20.465 1.88101 20.13 1.535 19.728 1.535Z" fill="black"/>
</svg>
