<svg width="20" height="18" viewBox="0 0 20 18" fill="none" xmlns="http://www.w3.org/2000/svg">
<path fill-rule="evenodd" clip-rule="evenodd" d="M5.35996 0.230148C5.05996 0.0110783 4.64998 0.0354183 4.37998 0.303168L0.299962 4.39984L0.229955 4.48412C0.00995502 4.77824 0.0399624 5.19485 0.299962 5.4605L0.389989 5.53292C0.679989 5.7501 1.09996 5.72493 1.35996 5.45805L4.15995 2.64845V14.4506L4.16996 14.5524C4.21996 14.9185 4.52995 15.2006 4.90995 15.2006C5.31995 15.2006 5.65995 14.8648 5.65995 14.4506V2.64858L8.46 5.45805L8.53995 5.53086C8.82995 5.74939 9.24999 5.72615 9.51999 5.4605C9.80999 5.16828 9.80999 4.69341 9.51999 4.39984L5.43998 0.303168V0.298668C5.40998 0.276108 5.38996 0.254998 5.35996 0.235508V0.230148ZM15.5799 3.44462C15.5299 3.07854 15.2199 2.79639 14.8399 2.79639C14.4199 2.79639 14.0899 3.13217 14.0899 3.54639V15.3481L11.29 12.5389L11.21 12.4661C10.92 12.2476 10.5 12.2708 10.23 12.5365C9.93995 12.8287 9.93995 13.3036 10.23 13.5972L14.31 17.6938V17.6983C14.34 17.7209 14.36 17.742 14.39 17.7615V17.7668C14.69 17.9859 15.1 17.9616 15.37 17.6938L19.4499 13.5972L19.52 13.5129C19.74 13.2188 19.7099 12.8021 19.4499 12.5365C19.1499 12.2443 18.68 12.2454 18.39 12.5389L15.5899 15.3471V3.54639L15.5799 3.44462Z" fill="black"/>
</svg>
