<svg width="20" height="20" viewBox="0 0 20 20" fill="none" xmlns="http://www.w3.org/2000/svg">
<path fill-rule="evenodd" clip-rule="evenodd" d="M6.013 0H2.97601C1.33101 0 0 1.34244 0 2.99552V6.05963C0 7.71203 1.33101 9.0551 2.97601 9.0551H6.013C7.658 9.0551 8.98901 7.71203 8.98901 6.05963V2.99552C8.98901 1.34244 7.658 0 6.013 0ZM2.97601 1.39535H6.013C6.885 1.39535 7.59399 2.11039 7.59399 2.99552V6.05963C7.59399 6.94418 6.885 7.6598 6.013 7.6598H2.97601C2.10501 7.6598 1.39499 6.94418 1.39499 6.05963V2.99552C1.39499 2.11039 2.10401 1.39535 2.97601 1.39535ZM17.025 0H13.987C12.342 0 11.011 1.34244 11.011 2.99552V6.05963C11.011 7.71203 12.342 9.0551 13.987 9.0551H17.025C18.669 9.0551 20 7.71184 20 6.05963V2.99552C20 1.34264 18.669 0 17.025 0ZM13.987 1.39535H17.025C17.896 1.39535 18.605 2.11049 18.605 2.99552V6.05963C18.605 6.94407 17.895 7.6598 17.025 7.6598H13.987C13.115 7.6598 12.406 6.94418 12.406 6.05963V2.99552C12.406 2.11039 13.115 1.39535 13.987 1.39535ZM2.97601 10.9449H6.013C7.659 10.9449 8.98901 12.2875 8.98901 13.9413V17.0045C8.98901 18.6576 7.658 20 6.013 20H2.97601C1.33101 20 0 18.6576 0 17.0045V13.9413C0 12.2875 1.33101 10.9449 2.97601 10.9449ZM6.013 12.3402H2.97601C2.10401 12.3402 1.39499 13.0553 1.39499 13.9413V17.0045C1.39499 17.8896 2.10401 18.6047 2.97601 18.6047H6.013C6.885 18.6047 7.59399 17.8896 7.59399 17.0045V13.9413C7.59399 13.0553 6.885 12.3402 6.013 12.3402ZM17.025 10.9449H13.987C12.341 10.9449 11.011 12.2875 11.011 13.9413V17.0045C11.011 18.6576 12.342 20 13.987 20H17.025C18.669 20 20 18.6574 20 17.0045V13.9413C20 12.2877 18.669 10.9449 17.025 10.9449ZM13.987 12.3402H17.025C17.896 12.3402 18.605 13.0554 18.605 13.9413V17.0045C18.605 17.8895 17.896 18.6047 17.025 18.6047H13.987C13.115 18.6047 12.406 17.8896 12.406 17.0045V13.9413C12.406 13.0553 13.115 12.3402 13.987 12.3402Z" fill="black"/>
</svg>
