<svg width="20" height="16" viewBox="0 0 20 16" fill="none" xmlns="http://www.w3.org/2000/svg">
<path fill-rule="evenodd" clip-rule="evenodd" d="M10.573 0.499756H4.304C1.739 0.499756 0 2.21875 0 4.68775V11.7028C0 14.1717 1.739 15.8908 4.304 15.8908H10.573C12.991 15.8908 14.681 14.3553 14.861 12.1066L17.508 13.1885L17.641 13.2369C18.792 13.6087 20 12.7525 20 11.5153V4.87625L19.994 4.73515C19.903 3.52855 18.654 2.73446 17.508 3.20176L14.861 4.28385C14.681 2.03355 12.995 0.499756 10.573 0.499756ZM13.377 5.36726C13.376 5.38536 13.376 5.40345 13.377 5.42175V10.9688C13.376 10.987 13.376 11.0051 13.377 11.0232V11.7028C13.377 13.3366 12.309 14.3908 10.573 14.3908H4.304C2.563 14.3908 1.5 13.3394 1.5 11.7028V4.68775C1.5 3.05105 2.563 1.99976 4.304 1.99976H10.573C12.313 1.99976 13.377 3.05145 13.377 4.68775V5.36726ZM14.877 10.4927V5.89775L18.075 4.59045L18.143 4.57125C18.324 4.54195 18.5 4.68145 18.5 4.87625V11.5153L18.492 11.5854C18.451 11.7642 18.256 11.8735 18.075 11.7998L14.877 10.4927Z" fill="black"/>
</svg>
