<svg width="20" height="20" viewBox="0 0 20 20" fill="none" xmlns="http://www.w3.org/2000/svg">
<path fill-rule="evenodd" clip-rule="evenodd" d="M14.335 0H5.66597C2.26797 0 0.000976562 2.433 0.000976562 5.916V14.084C0.000976562 17.571 2.26197 20 5.66597 20H14.334C17.739 20 20.001 17.571 20.001 14.084V5.916C20.001 2.43 17.739 0 14.335 0ZM5.66597 1.5H14.335C16.885 1.5 18.501 3.235 18.501 5.916V14.084C18.501 16.765 16.885 18.5 14.334 18.5H5.66597C3.11497 18.5 1.50098 16.766 1.50098 14.084V5.916C1.50098 3.239 3.12097 1.5 5.66597 1.5ZM10.744 5.532C10.694 5.166 10.38 4.884 10.001 4.884C9.58598 4.884 9.25098 5.22 9.25098 5.634V9.995L9.25897 10.106C9.29197 10.327 9.42197 10.523 9.61597 10.639L13.007 12.662L13.098 12.708C13.438 12.853 13.841 12.728 14.036 12.402L14.082 12.311C14.227 11.971 14.102 11.568 13.776 11.374L10.75 9.568L10.751 5.634L10.744 5.532Z" fill="black"/>
</svg>
