<svg width="12" height="18" viewBox="0 0 12 18" fill="none" xmlns="http://www.w3.org/2000/svg">
<path fill-rule="evenodd" clip-rule="evenodd" d="M5.29004 17.365C5.34004 17.724 5.64 18 6 18C6.4 18 6.71997 17.671 6.71997 17.266V9.23799H10.78C11.35 9.23799 11.69 8.60199 11.39 8.11299L6.60999 0.342994C6.32999 -0.114006 5.67002 -0.114006 5.39002 0.342994L0.609988 8.11299C0.309988 8.60199 0.649973 9.23799 1.21997 9.23799H5.28003V17.266L5.29004 17.365ZM6.03003 7.771C6.02003 7.77 6.01 7.76999 6 7.76999C5.99 7.76999 5.97997 7.77 5.96997 7.771H2.52002L6 2.11199L9.47998 7.771H6.03003Z" fill="black"/>
</svg>
