<svg width="20" height="20" viewBox="0 0 20 20" fill="none" xmlns="http://www.w3.org/2000/svg">
<path fill-rule="evenodd" clip-rule="evenodd" d="M10 0C4.477 0 0 4.477 0 10C0 15.523 4.477 20 10 20C15.523 20 20 15.523 20 10C20 4.477 15.523 0 10 0ZM10 1.395C14.752 1.395 18.605 5.248 18.605 10C18.605 14.752 14.752 18.605 10 18.605C5.248 18.605 1.39499 14.752 1.39499 10C1.39499 5.248 5.248 1.395 10 1.395ZM8.871 6.05499L8.767 6.045C8.57 6.038 8.36699 6.08701 8.18799 6.18401C7.95599 6.30801 7.76901 6.509 7.66501 6.759C7.61701 6.874 7.53499 7.23 7.49799 7.437C7.40399 7.945 7.35 8.726 7.341 9.584L7.34 9.87199C7.339 10.782 7.38899 11.648 7.48199 12.219L7.53299 12.481C7.58299 12.714 7.65101 12.963 7.70401 13.067C7.91001 13.465 8.32899 13.71 8.77399 13.696C8.96399 13.692 9.36201 13.56 9.63901 13.443C10.638 13.023 12.396 11.846 13.208 11.053L13.478 10.772C13.581 10.662 13.627 10.61 13.667 10.557C13.814 10.357 13.89 10.116 13.89 9.87199C13.89 9.61199 13.805 9.35899 13.642 9.15199L13.562 9.06L13.338 8.821C12.571 8.004 10.564 6.656 9.539 6.258C9.314 6.168 9.059 6.08299 8.871 6.05499ZM8.90601 7.51199L9.03 7.55701C9.817 7.86201 11.485 8.96999 12.197 9.65199L12.409 9.87L12.329 9.95599C11.735 10.597 9.982 11.785 9.099 12.157L8.90701 12.227L8.858 11.992C8.789 11.565 8.74499 10.888 8.73599 10.151L8.73499 9.87199C8.73398 9.06899 8.77501 8.319 8.84601 7.836L8.88 7.638L8.90601 7.51199Z" fill="black"/>
</svg>
