<svg width="20" height="20" viewBox="0 0 20 20" fill="none" xmlns="http://www.w3.org/2000/svg">
<path fill-rule="evenodd" clip-rule="evenodd" d="M0 14.334V5.665C0 2.2614 2.43004 0 5.92004 0H14.08C17.57 0 20 2.2681 20 5.665V14.334C20 17.7378 17.57 20 14.08 20H5.92004C2.43004 20 0 17.7378 0 14.334ZM1.5 5.665V14.334C1.5 16.8845 3.23004 18.5 5.92004 18.5H14.08C16.77 18.5 18.5 16.8845 18.5 14.334V5.665C18.5 3.121 16.76 1.5 14.08 1.5H5.92004C3.23004 1.5 1.5 3.1148 1.5 5.665ZM5.16003 10C5.16003 9.6203 5.45006 9.3065 5.81006 9.2568L5.91003 9.25H12.27L9.79004 6.7835C9.53004 6.5178 9.49997 6.1011 9.71997 5.8071L9.79004 5.7228C10.06 5.456 10.47 5.4309 10.77 5.6481L10.85 5.7205L14.62 9.4685C14.88 9.735 14.9099 10.1532 14.6899 10.4472V10.4503C14.6599 10.4782 14.64 10.5046 14.62 10.5292V10.5315L10.85 14.2795C10.56 14.5717 10.08 14.5707 9.79004 14.2772C9.53004 14.0104 9.49997 13.5937 9.71997 13.3005L9.79004 13.2165L12.27 10.75H5.91003C5.50003 10.75 5.16003 10.4142 5.16003 10Z" fill="black"/>
</svg>
