<svg width="19" height="20" viewBox="0 0 19 20" fill="none" xmlns="http://www.w3.org/2000/svg">
<path fill-rule="evenodd" clip-rule="evenodd" d="M17.839 5.65899C18.509 6.17799 18.92 6.94899 18.99 7.78799L19 7.98899V16.098C19 18.188 17.349 19.888 15.28 19.998H13.29C12.339 19.979 11.57 19.239 11.5 18.309L11.49 18.168V15.309C11.49 14.998 11.259 14.739 10.95 14.688L10.86 14.678H8.189C7.87 14.688 7.61001 14.918 7.57001 15.218L7.56 15.309V18.159C7.56 18.218 7.54901 18.288 7.54001 18.338L7.53 18.359L7.51901 18.428C7.40001 19.279 6.69999 19.928 5.82999 19.989L5.70001 19.998H3.91C1.82 19.998 0.11 18.359 0 16.298V7.98899C0.009 7.13799 0.38 6.34799 1 5.79799L7.23001 0.787988C8.50001 -0.221012 10.28 -0.261012 11.589 0.667988L11.75 0.787988L17.839 5.65899ZM17.599 16.258L17.61 16.098V7.99799C17.599 7.56899 17.42 7.16799 17.11 6.86899L16.98 6.75799L10.88 1.87799C10.12 1.26799 9.03999 1.23899 8.23999 1.76799L8.08899 1.87799L2.009 6.77899C1.66 7.03799 1.44999 7.42799 1.39999 7.83799L1.38901 7.99799V16.098C1.38901 17.428 2.429 18.518 3.75 18.598H5.70001C5.92001 18.598 6.11001 18.449 6.13901 18.239L6.16 18.059L6.17001 18.008V15.309C6.17001 14.239 6.99001 13.369 8.04001 13.288H10.86C11.929 13.288 12.799 14.109 12.88 15.159V18.168C12.88 18.378 13.03 18.559 13.23 18.598H15.089C16.429 18.598 17.519 17.569 17.599 16.258Z" fill="black"/>
</svg>
