<svg width="20" height="19" viewBox="0 0 20 19" fill="none" xmlns="http://www.w3.org/2000/svg">
<path fill-rule="evenodd" clip-rule="evenodd" d="M3.42099 18.2C3.68499 18.693 4.20001 19.001 4.76001 19C4.99601 19.001 5.23 18.946 5.44 18.84L9.992 16.46C10.004 16.453 10.018 16.449 10.032 16.45L14.553 18.81C14.772 18.928 15.017 18.989 15.265 18.988C15.344 18.988 15.424 18.981 15.502 18.97C16.316 18.837 16.872 18.075 16.752 17.26L15.872 12.25C15.867 12.243 15.866 12.242 15.865 12.242C15.865 12.241 15.865 12.241 15.865 12.24C15.865 12.237 15.872 12.23 15.872 12.23L19.542 8.68C20.084 8.157 20.153 7.314 19.702 6.71C19.457 6.394 19.098 6.186 18.702 6.13L13.64 5.4C13.631 5.4 13.621 5.39 13.611 5.38L11.35 0.839996C11.095 0.326996 10.573 0.003 10 0C9.834 0 9.66801 0.0260018 9.51001 0.0800018C9.13101 0.209002 8.81802 0.480996 8.64001 0.839996L6.38202 5.367C6.38202 5.388 6.361 5.397 6.341 5.397L1.29099 6.127C0.981985 6.179 0.693999 6.317 0.460999 6.527C0.165999 6.816 0 7.213 0 7.627C0.001 8.02 0.159002 8.396 0.440002 8.67L4.14001 12.23C4.14801 12.238 4.151 12.249 4.151 12.26L3.26001 17.25C3.20701 17.576 3.26399 17.91 3.42099 18.2ZM9.97101 1.467L9.98102 1.46H10L10.009 1.469C10.018 1.469 10.026 1.471 10.033 1.477C10.039 1.483 10.042 1.491 10.041 1.5L12.301 6.019C12.518 6.464 12.94 6.774 13.43 6.849L18.492 7.585C18.501 7.585 18.51 7.587 18.518 7.591C18.523 7.592 18.527 7.592 18.532 7.591L18.542 7.6L18.532 7.622L14.862 11.181C14.497 11.523 14.334 12.029 14.431 12.52L15.312 17.501L15.292 17.52H15.271C15.267 17.522 15.263 17.522 15.259 17.52C15.249 17.519 15.239 17.515 15.23 17.51H15.221L10.721 15.16C10.505 15.048 10.265 14.988 10.021 14.989C9.77 14.989 9.52199 15.052 9.29999 15.17L4.771 17.545C4.766 17.546 4.76 17.546 4.755 17.545C4.734 17.545 4.716 17.531 4.711 17.511V17.491L5.591 12.511C5.673 12.024 5.51301 11.527 5.16101 11.181L1.461 7.631C1.46 7.616 1.462 7.603 1.47 7.59L1.53101 7.57L6.56097 6.849C7.05097 6.773 7.472 6.464 7.69 6.019L9.95099 1.489C9.95599 1.48 9.96201 1.472 9.97101 1.467Z" fill="black"/>
</svg>
