<svg width="20" height="20" viewBox="0 0 20 20" fill="none" xmlns="http://www.w3.org/2000/svg">
<path fill-rule="evenodd" clip-rule="evenodd" d="M19.455 2.34251C19.766 0.936855 18.4589 -0.331545 17.0439 0.0780546L1.38696 4.63378L1.23596 4.68401C-0.233044 5.23708 -0.459038 7.28383 0.917962 8.1312L7.39294 12.1171L11.2889 18.5711L11.3769 18.7044C12.2899 19.9839 14.3119 19.674 14.7729 18.123L19.418 2.48348L19.455 2.34251ZM17.5349 1.5042C17.8239 1.47319 18.0699 1.75409 17.9799 2.0557L13.335 17.6957L13.3049 17.7724C13.1599 18.0579 12.7489 18.087 12.5729 17.7961L8.88494 11.6871L14.1379 6.40072L14.21 6.31636C14.427 6.02202 14.4009 5.60544 14.1339 5.34006L14.0499 5.26773C13.7549 5.05085 13.3389 5.07644 13.0739 5.34359L7.82794 10.6231L1.70391 6.8538L1.63793 6.80415C1.39993 6.58749 1.47996 6.16878 1.80596 6.07419L17.4619 1.51861L17.5349 1.5042Z" fill="black"/>
</svg>
