<svg width="16" height="20" viewBox="0 0 16 20" fill="none" xmlns="http://www.w3.org/2000/svg">
<path fill-rule="evenodd" clip-rule="evenodd" d="M8.00406 0C5.07006 0 2.69205 2.389 2.69205 5.335C2.69205 8.282 5.07006 10.67 8.00406 10.67C10.9381 10.67 13.317 8.282 13.317 5.335C13.317 2.389 10.9381 0 8.00406 0ZM8.00406 1.448C10.1421 1.448 11.875 3.188 11.875 5.335C11.875 7.482 10.1421 9.223 8.00406 9.223C5.86606 9.223 4.13303 7.482 4.13303 5.335C4.13303 3.188 5.86606 1.448 8.00406 1.448ZM5.83005 12.821C5.05205 12.875 4.26606 12.986 3.49106 13.152C1.99406 13.46 0.797018 14.076 0.287018 15.1C0.0950176 15.5 -0.00196969 15.929 3.0311e-05 16.363C-0.000969689 16.794 0.0950362 17.223 0.281036 17.615C0.770036 18.627 1.82801 19.2 3.25601 19.517L3.51205 19.57C4.26605 19.741 5.05302 19.855 5.84402 19.909C5.91202 19.929 6.07302 19.947 6.24802 19.956L6.39206 19.962C6.46606 19.963 6.55106 19.964 6.67606 19.964C7.81406 20.026 8.99306 20.008 10.1681 19.908C10.7931 19.865 11.423 19.783 12.048 19.664L12.515 19.567C14.058 19.262 15.213 18.684 15.719 17.616C16.094 16.824 16.094 15.905 15.719 15.113C15.214 14.048 14.074 13.474 12.503 13.151C11.887 13.019 11.261 12.922 10.631 12.86L10.17 12.821C8.72601 12.694 7.27405 12.694 5.83005 12.821ZM10.044 14.263L10.0561 14.264C10.7801 14.315 11.499 14.417 12.209 14.568C13.375 14.808 14.167 15.207 14.417 15.735C14.606 16.133 14.606 16.596 14.417 16.994C14.183 17.488 13.472 17.869 12.444 18.102L12.22 18.15C11.496 18.311 10.779 18.415 10.058 18.465C8.93801 18.56 7.82506 18.577 6.71506 18.517L6.32101 18.51C6.21201 18.505 6.12003 18.494 6.03403 18.477C5.35903 18.426 4.751 18.345 4.16 18.228L3.80801 18.154C2.63801 17.924 1.83905 17.524 1.58005 16.989C1.49005 16.797 1.44105 16.58 1.44205 16.361C1.44105 16.143 1.48802 15.931 1.58102 15.738C1.83302 15.232 2.67904 14.797 3.78604 14.569C4.50104 14.416 5.22002 14.314 5.94302 14.264C7.31602 14.143 8.68404 14.143 10.044 14.263Z" fill="black"/>
</svg>
