<svg width="20" height="20" viewBox="0 0 20 20" fill="none" xmlns="http://www.w3.org/2000/svg">
<path fill-rule="evenodd" clip-rule="evenodd" d="M10 0.000244141C4.477 0.000244141 0 4.47774 0 10.0002C0 15.5228 4.477 20.0002 10 20.0002C15.522 20.0002 20 15.5225 20 10.0002C20 4.47804 15.522 0.000244141 10 0.000244141ZM10 1.50024C14.694 1.50024 18.5 5.30654 18.5 10.0002C18.5 14.694 14.694 18.5002 10 18.5002C5.306 18.5002 1.5 14.6944 1.5 10.0002C1.5 5.30614 5.306 1.50024 10 1.50024ZM4.323 10.0004C4.323 10.6604 4.859 11.1974 5.521 11.1974C6.182 11.1974 6.71899 10.6604 6.71899 10.0004C6.71899 9.34044 6.182 8.80244 5.521 8.80244C4.859 8.80244 4.323 9.34044 4.323 10.0004ZM10 11.1974C9.339 11.1974 8.802 10.6604 8.802 10.0004C8.802 9.34044 9.339 8.80244 10 8.80244C10.661 8.80244 11.198 9.34044 11.198 10.0004C11.198 10.6604 10.661 11.1974 10 11.1974ZM13.281 10.0004C13.281 10.6604 13.818 11.1974 14.479 11.1974C15.14 11.1974 15.677 10.6604 15.677 10.0004C15.677 9.34044 15.14 8.80244 14.479 8.80244C13.818 8.80244 13.281 9.34044 13.281 10.0004Z" fill="black"/>
</svg>
