<svg width="18" height="20" viewBox="0 0 18 20" fill="none" xmlns="http://www.w3.org/2000/svg">
<path fill-rule="evenodd" clip-rule="evenodd" d="M8.38501 0.102L1.742 2.36999C0.998004 2.62299 0.5 3.305 0.5 4.072V10.71C0.5 12.731 1.25301 14.679 2.60901 16.196C3.24801 16.912 4.06201 17.508 5.04901 18.026L8.647 19.912C8.871 20.029 9.141 20.029 9.366 19.912L12.957 18.027C13.941 17.509 14.756 16.913 15.394 16.196C16.749 14.68 17.5 12.734 17.5 10.714V4.072C17.5 3.305 17.002 2.62299 16.257 2.36999L9.616 0.102C9.218 -0.034 8.78401 -0.034 8.38501 0.102ZM9.11301 1.49L15.756 3.75799C15.895 3.80499 15.986 3.93 15.986 4.072V10.714C15.986 12.379 15.367 13.983 14.251 15.233L14.053 15.443C13.572 15.925 12.967 16.349 12.237 16.733L9.005 18.428L5.76801 16.732C4.93101 16.292 4.25999 15.801 3.75299 15.232C2.63399 13.981 2.01401 12.376 2.01401 10.71V4.072C2.01401 3.93 2.10501 3.80499 2.24301 3.75799L8.88699 1.49C8.95999 1.465 9.04001 1.465 9.11301 1.49ZM12.755 7.24C12.46 6.953 11.98 6.953 11.685 7.24L8.285 10.542L6.91199 9.20599L6.827 9.13499C6.531 8.92099 6.11 8.94499 5.841 9.20599C5.546 9.49299 5.546 9.959 5.841 10.246L7.75101 12.102L7.83499 12.174C8.13199 12.387 8.55201 12.364 8.82101 12.102L12.755 8.27999L12.829 8.19799C13.048 7.90999 13.024 7.501 12.755 7.24Z" fill="black"/>
</svg>
