<svg width="20" height="20" viewBox="0 0 20 20" fill="none" xmlns="http://www.w3.org/2000/svg">
<path fill-rule="evenodd" clip-rule="evenodd" d="M5.4528 0H7.3846C8.3068 0 9.1753 0.435004 9.7281 1.173L10.6098 2.347C10.8906 2.72 11.3298 2.93999 11.7951 2.94099H14.5296C18.3106 2.94099 20 4.92299 20 8.97099L19.9735 13.772C19.9735 17.635 17.6114 20 13.7533 20H6.229C2.3635 20 0 17.636 0 13.772V6.228C0 2.175 1.7299 0 5.4528 0ZM7.3846 1.451H5.4528C2.6123 1.451 1.4495 2.914 1.4495 6.228V13.772C1.4495 16.834 3.1637 18.549 6.229 18.549H13.7533C16.8109 18.549 18.524 16.833 18.524 13.768L18.5505 8.967C18.5505 5.678 17.4547 4.39301 14.5296 4.39301H11.7936C10.8727 4.39101 10.0059 3.957 9.4516 3.22L8.569 2.04401C8.2894 1.67101 7.8506 1.451 7.3846 1.451ZM14.6178 10.634C15.0181 10.634 15.3426 10.959 15.3426 11.36C15.3426 11.727 15.0699 12.031 14.7161 12.079L14.6178 12.086H10.7081V15.996C10.7081 16.396 10.3832 16.72 9.9824 16.72C9.615 16.72 9.3113 16.448 9.2633 16.094L9.2567 15.996V12.086H5.347C4.9467 12.086 4.6222 11.761 4.6222 11.36C4.6222 10.993 4.8949 10.689 5.2486 10.641L5.347 10.634H9.2567V6.72501C9.2567 6.32401 9.5816 6 9.9824 6C10.3498 6 10.6534 6.27301 10.7015 6.62601L10.7081 6.72501V10.634H14.6178Z" fill="black"/>
</svg>
