<svg width="18" height="20" viewBox="0 0 18 20"  xmlns="http://www.w3.org/2000/svg">
<path fill-rule="evenodd" clip-rule="evenodd" 
d="M11.606 0.0119441C11.563 0.00426406 11.519 0.000244141 11.473 0.000244141C11.428 0.000244141 11.384 0.00426406 11.341 0.0119441H5.08398C2.59698 0.0119441 0.5 2.02977 0.5 4.49094V15.3399C0.5 17.9222 2.48498 19.8649 5.08398 19.8649H13.072C15.541 19.8649 17.552 17.82 17.552 15.3399V6.03794C17.552 5.8443 17.477 5.65817 17.343 5.51849L12.277 0.242494C12.136 0.0952041 11.94 0.0119441 11.736 0.0119441H11.606ZM10.723 1.51114L5.08398 1.51194C3.41298 1.51194 2 2.87134 2 4.49094V15.3399C2 17.0864 3.30698 18.3649 5.08398 18.3649H13.072C14.707 18.3649 16.052 16.9971 16.052 15.3399V6.98333L15.175 6.98631C14.842 6.98591 14.462 6.9852 14.041 6.98424C12.27 6.9805 10.826 5.59372 10.729 3.84765L10.723 3.65924V1.51114ZM15.231 5.48408L14.044 5.48425C13.038 5.48212 12.223 4.66581 12.223 3.65924V2.35209L15.231 5.48408ZM11.294 10.1642C11.708 10.1642 12.044 10.5 12.044 10.9142C12.044 11.2939 11.762 11.6077 11.396 11.6574L11.294 11.6642H9.59302V13.3654C9.59302 13.7797 9.25802 14.1154 8.84302 14.1154C8.46402 14.1154 8.14998 13.8333 8.09998 13.4672L8.09302 13.3654V11.6642H6.39301C5.97901 11.6642 5.64301 11.3285 5.64301 10.9142C5.64301 10.5345 5.92502 10.2208 6.29102 10.1711L6.39301 10.1642H8.09302V8.4644C8.09302 8.0502 8.42902 7.71444 8.84302 7.71444C9.22302 7.71444 9.53697 7.9966 9.58698 8.3627L9.59302 8.4644V10.1642H11.294Z" />
</svg>
