<svg width="20" height="21" viewBox="0 0 20 21" fill="none" xmlns="http://www.w3.org/2000/svg">
<path fill-rule="evenodd" clip-rule="evenodd" d="M0.877967 0.511101L0.776954 0.5005C0.406954 0.487 0.0759628 0.7481 0.0109628 1.1222L-2.35334e-05 1.2236C-0.0130235 1.5928 0.247986 1.9244 0.621986 1.9891L2.13096 2.2501L3.046 13.1458L3.06498 13.3096C3.24898 14.552 4.317 15.4861 5.59 15.4861H16.502L16.666 15.4809C17.863 15.4045 18.855 14.4997 19.029 13.2979L19.978 6.7395L19.995 6.5889C20.082 5.3898 19.132 4.3491 17.909 4.3491H3.81199L3.577 1.5474L3.55997 1.4365C3.49097 1.1482 3.25698 0.922798 2.95798 0.871098L0.877967 0.511101ZM5.47398 13.9798C4.97898 13.9256 4.58299 13.5278 4.54099 13.0208L3.93796 5.8491H17.909L17.997 5.8556C18.313 5.9025 18.541 6.1978 18.494 6.5248L17.545 13.0827L17.521 13.1999C17.401 13.6585 16.985 13.9861 16.502 13.9861H5.59L5.47398 13.9798ZM3.90897 18.5854C3.90897 17.7493 4.58595 17.0704 5.42295 17.0704C6.25895 17.0704 6.93796 17.7492 6.93796 18.5854C6.93796 19.4217 6.25895 20.0994 5.42295 20.0994C4.58595 20.0994 3.90897 19.4216 3.90897 18.5854ZM15.1599 18.5854C15.1599 17.7492 15.839 17.0704 16.675 17.0704C17.511 17.0704 18.19 17.7492 18.19 18.5854C18.19 19.4217 17.511 20.0994 16.675 20.0994C15.839 20.0994 15.1599 19.4217 15.1599 18.5854ZM15.649 8.7951C15.649 8.3809 15.313 8.0451 14.899 8.0451H12.126L12.024 8.0519C11.658 8.1016 11.376 8.4154 11.376 8.7951C11.376 9.2093 11.711 9.5451 12.126 9.5451H14.899L15 9.5383C15.366 9.4886 15.649 9.1748 15.649 8.7951Z" fill="black"/>
</svg>
