<svg width="19" height="20" viewBox="0 0 19 20" fill="none" xmlns="http://www.w3.org/2000/svg">
<path fill-rule="evenodd" clip-rule="evenodd" d="M18.526 0.763939C18.233 0.470939 17.758 0.470939 17.466 0.763939L12.577 5.65194C12.57 5.54194 12.561 5.44494 12.551 5.35294L12.491 4.90594L12.389 3.99694C12.338 3.56294 12.289 3.26494 12.21 2.96094C11.856 1.77894 10.904 1.00394 9.81 1.03694L9.655 1.04294C9.172 1.08994 8.54002 1.38594 8.11802 1.74494L4.62299 4.60294L2.779 4.60394L2.60102 4.60994C1.31702 4.69394 0.378997 5.69394 0.192997 7.02894C-0.00100254 8.59894 -0.00800253 11.2079 0.192997 12.6429C0.373997 14.1389 1.363 15.1329 2.779 15.1329H3.09699L0.317997 17.9109L0.244999 17.9959C0.0269994 18.2889 0.0519975 18.7059 0.317997 18.9719C0.610997 19.2649 1.086 19.2649 1.379 18.9719L18.526 1.82394L18.599 1.73994C18.817 1.44694 18.792 1.02994 18.526 0.763939ZM4.59699 13.6329L11.112 7.11694L11.099 6.17094C11.09 5.87994 11.078 5.68894 11.061 5.52594L10.975 4.86694L10.924 4.38694C10.87 3.89194 10.826 3.60094 10.766 3.36494C10.605 2.82894 10.232 2.52494 9.81699 2.53694C9.71099 2.53394 9.39602 2.66694 9.17002 2.82694L9.07901 2.89694L5.366 5.93494C5.259 6.02194 5.12999 6.07794 4.99399 6.09694L4.891 6.10394H2.779C2.205 6.10394 1.776 6.53894 1.68 7.22494C1.503 8.65794 1.497 11.1359 1.681 12.4489C1.77 13.1899 2.115 13.5789 2.659 13.6269L2.779 13.6329H4.59699ZM11.871 11.4419C12.285 11.4469 12.616 11.7879 12.61 12.2019L12.593 13.0249C12.573 13.7859 12.54 14.3609 12.497 14.7699L12.383 15.8279C12.337 16.2109 12.289 16.4779 12.203 16.8009C11.857 17.9569 10.905 18.7319 9.85199 18.6979C9.37499 18.7099 8.805 18.4949 8.366 18.1779L8.20801 18.0539L6.81202 16.9149C6.49102 16.6529 6.44299 16.1799 6.70499 15.8599C6.94299 15.5679 7.35501 15.5019 7.66901 15.6889L7.76001 15.7519L9.167 16.9009C9.369 17.0709 9.681 17.2019 9.857 17.1989C10.233 17.2099 10.605 16.9069 10.759 16.3929L10.814 16.1639C10.838 16.0479 10.858 15.9249 10.877 15.7789L10.993 14.7179C11.052 14.2439 11.093 13.4109 11.11 12.1809C11.116 11.7669 11.457 11.4359 11.871 11.4419Z" fill="black"/>
</svg>
