<svg width="20" height="20" viewBox="0 0 20 20" fill="none" xmlns="http://www.w3.org/2000/svg">
<path fill-rule="evenodd" clip-rule="evenodd" d="M14.33 20H5.66003C2.26003 20 0 17.571 0 14.084V5.916C0 2.433 2.27003 0 5.66003 0H14.33C17.74 0 20 2.43 20 5.916V14.084C20 17.57 17.74 20 14.33 20ZM5.66003 18.5H14.33C16.88 18.5 18.5 16.765 18.5 14.084V5.916C18.5 3.235 16.88 1.5 14.33 1.5H5.66003C3.12003 1.5 1.5 3.239 1.5 5.916V14.084C1.5 16.765 3.11003 18.5 5.66003 18.5ZM10 14.836C9.62 14.836 9.31001 14.554 9.26001 14.188L9.25 14.086V7.731L6.78003 10.207C6.52003 10.474 6.10006 10.499 5.81006 10.282L5.71997 10.209C5.45997 9.943 5.43002 9.527 5.65002 9.233L5.71997 9.149L9.46997 5.385C9.73997 5.117 10.15 5.093 10.45 5.312V5.314C10.48 5.335 10.5 5.358 10.53 5.383V5.385L14.28 9.149C14.57 9.442 14.57 9.917 14.28 10.209C14.01 10.475 13.59 10.498 13.3 10.28L13.22 10.207L10.75 7.729V14.086C10.75 14.5 10.41 14.836 10 14.836Z" fill="black"/>
</svg>
