<svg width="16" height="20" viewBox="0 0 16 20" fill="none" xmlns="http://www.w3.org/2000/svg">
<path fill-rule="evenodd" clip-rule="evenodd" d="M8.124 0H7.8764C5.48715 0 3.54956 1.981 3.54956 4.425V8.991C3.54956 11.435 5.48685 13.415 7.8764 13.415H8.124C10.5135 13.415 12.4508 11.435 12.4508 8.991V4.425C12.4508 1.981 10.5132 0 8.124 0ZM7.8764 1.505H8.124C9.7004 1.505 10.9791 2.813 10.9791 4.425V8.991C10.9791 10.603 9.7008 11.91 8.124 11.91H7.8764C6.2996 11.91 5.02127 10.603 5.02127 8.991V4.425C5.02127 2.813 6.2999 1.505 7.8764 1.505ZM15.2641 8.246C15.6705 8.246 16 8.583 16 8.998C16 13.263 12.8098 16.765 8.7362 17.145V19.247C8.7362 19.663 8.4068 20 8.0004 20C7.6278 20 7.32 19.717 7.2712 19.35L7.2645 19.247V17.145C3.19058 16.766 0 13.264 0 8.998C0 8.583 0.32945 8.246 0.73585 8.246C1.14225 8.246 1.4717 8.583 1.4717 8.998C1.4717 12.686 4.39402 15.674 8 15.674C11.606 15.674 14.5283 12.686 14.5283 8.998C14.5283 8.583 14.8577 8.246 15.2641 8.246Z" fill="black"/>
</svg>
