<svg width="20" height="20" viewBox="0 0 20 20" fill="none" xmlns="http://www.w3.org/2000/svg">
<path fill-rule="evenodd" clip-rule="evenodd" d="M20 5.666V14.335C20 17.739 17.57 20 14.08 20H5.92004C2.43004 20 0 17.732 0 14.335V5.666C0 2.262 2.43004 0 5.92004 0H14.08C17.57 0 20 2.262 20 5.666ZM18.5 14.335V5.666C18.5 3.115 16.77 1.5 14.08 1.5H5.92004C3.23004 1.5 1.5 3.115 1.5 5.666V14.335C1.5 16.879 3.24004 18.5 5.92004 18.5H14.08C16.77 18.5 18.5 16.885 18.5 14.335ZM14.84 10C14.84 10.38 14.5499 10.693 14.1899 10.743L14.09 10.75H7.72998L10.21 13.216C10.47 13.482 10.5 13.899 10.28 14.193L10.21 14.277C9.93996 14.544 9.52998 14.569 9.22998 14.352L9.15002 14.279L5.38 10.531C5.12 10.265 5.09006 9.84699 5.31006 9.55299V9.55C5.34006 9.522 5.36 9.49499 5.38 9.47099V9.468L9.15002 5.72C9.44002 5.428 9.91996 5.42901 10.21 5.72301C10.47 5.99001 10.5 6.406 10.28 6.69901L10.21 6.783L7.72998 9.25H14.09C14.5 9.25 14.84 9.586 14.84 10Z" fill="black"/>
</svg>
