<svg width="18" height="17" viewBox="0 0 18 17" fill="none" xmlns="http://www.w3.org/2000/svg">
<path fill-rule="evenodd" clip-rule="evenodd" d="M0.969193 10.4162L10.6592 0.91725C11.9062 -0.30575 13.9282 -0.30575 15.1752 0.91725L16.4692 2.18524C17.7162 3.40824 17.7162 5.39024 16.4692 6.61224L6.7412 16.1492C6.1842 16.6942 5.4302 17.0002 4.6432 17.0002H0.659196C0.288196 17.0002 -0.00880072 16.7012 0.000199276 16.3382L0.100205 12.3972C0.120205 11.6532 0.431193 10.9432 0.969193 10.4162ZM15.5382 3.09825L14.2442 1.83024C13.5112 1.11224 12.3232 1.11224 11.5912 1.83024L10.8382 2.56724L14.7862 6.43625L15.5382 5.69925C16.2712 4.98125 16.2712 3.81625 15.5382 3.09825ZM1.90019 11.3292L9.9072 3.48024L13.8552 7.34924L5.80921 15.2362L5.7022 15.3322C5.4072 15.5742 5.0322 15.7092 4.6432 15.7092L1.33319 15.7082L1.41721 12.4302C1.42821 12.0172 1.60119 11.6212 1.90019 11.3292ZM18.0002 16.3542C18.0002 15.9982 17.7052 15.7092 17.3412 15.7092H10.4712L10.3822 15.7152C10.0602 15.7582 9.8122 16.0282 9.8122 16.3542C9.8122 16.7112 10.1072 17.0002 10.4712 17.0002H17.3412L17.4312 16.9942C17.7522 16.9512 18.0002 16.6812 18.0002 16.3542Z" fill="black"/>
</svg>
