<svg width="20" height="20" viewBox="0 0 20 20" fill="none" xmlns="http://www.w3.org/2000/svg">
<path fill-rule="evenodd" clip-rule="evenodd" d="M14.33 0.000244141H5.66998C2.26998 0.000244141 0 2.43284 0 5.91624V14.0842C0 17.5709 2.25998 20.0002 5.66998 20.0002H14.33C17.74 20.0002 20 17.5709 20 14.0842V5.91624C20 2.42974 17.74 0.000244141 14.33 0.000244141ZM5.66998 1.50024H14.33C16.89 1.50024 18.5 3.23524 18.5 5.91624V14.0842C18.5 16.7654 16.89 18.5002 14.33 18.5002H5.66998C3.11998 18.5002 1.5 16.7656 1.5 14.0842V5.91624C1.5 3.23864 3.11998 1.50024 5.66998 1.50024ZM7.07001 7.06255C7.34001 6.79625 7.74999 6.77214 8.04999 6.98994L8.13 7.06264L10 8.93075L11.87 7.06464C12.16 6.77174 12.63 6.77174 12.93 7.06464C13.19 7.33094 13.22 7.74754 13 8.04124L12.93 8.12534L11.06 9.99145L12.93 11.8596C13.22 12.1525 13.22 12.6274 12.93 12.9202C12.66 13.1865 12.24 13.2106 11.95 12.9927L11.87 12.9201L10 11.0521L8.13 12.9173C7.84 13.2102 7.37001 13.2102 7.07001 12.9173C6.81001 12.651 6.78 12.2343 7 11.9407L7.07001 11.8566L8.94 9.99135L7.07001 8.12315C6.78001 7.83025 6.78001 7.35535 7.07001 7.06255Z" fill="black"/>
</svg>
