<svg width="20" height="18" viewBox="0 0 20 18" fill="none" xmlns="http://www.w3.org/2000/svg">
<path fill-rule="evenodd" clip-rule="evenodd" d="M14.525 0H5.45599C2.28699 0 0 2.5615 0 5.859V12.141C0 15.4385 2.28699 18 5.45599 18H14.517C16.039 17.9829 17.48 17.3421 18.513 16.2266C19.545 15.111 20.079 13.6183 19.989 12.0959L19.991 5.859C20.079 4.3817 19.545 2.889 18.513 1.7734C17.48 0.657899 16.039 0.0171 14.525 0ZM5.45599 1.5284H14.508C15.607 1.5407 16.653 2.0059 17.403 2.8156C18.152 3.6253 18.539 4.7089 18.474 5.8139L18.473 12.141C18.539 13.2911 18.152 14.3747 17.403 15.1844C16.653 15.9941 15.607 16.4593 14.508 16.4716H5.45599C3.16299 16.4716 1.517 14.6284 1.517 12.141V5.859C1.517 3.3716 3.16299 1.5284 5.45599 1.5284ZM16.024 5.6384C15.762 5.3089 15.285 5.2556 14.958 5.5193L10.858 8.8242L10.741 8.9068C10.257 9.2095 9.623 9.1816 9.16 8.8181L5.03101 5.5173L4.938 5.4536C4.617 5.2673 4.201 5.3403 3.965 5.6409C3.704 5.9715 3.75901 6.4522 4.08701 6.7145L8.222 10.0195L8.383 10.1375C9.423 10.8459 10.801 10.8067 11.799 10.0236L15.906 6.7125L15.988 6.6355C16.24 6.3626 16.262 5.9379 16.024 5.6384Z" fill="black"/>
</svg>
