<svg width="20" height="20" viewBox="0 0 20 20" fill="none" xmlns="http://www.w3.org/2000/svg">
<path fill-rule="evenodd" clip-rule="evenodd" d="M4.47001 0.00201199L4.49705 0.00301907C5.02105 0.0470191 5.47603 0.307011 5.89103 0.713011C6.68103 1.48401 8.37607 3.73401 8.50407 4.34601C8.64507 5.02901 8.49403 5.47302 8.04203 6.25702L7.93302 6.45102C7.72602 6.82902 7.69403 6.98501 7.75803 7.16401C8.74403 9.57601 10.426 11.258 12.811 12.232C13.036 12.314 13.2071 12.267 13.6841 11.993L13.933 11.852C14.604 11.484 15.029 11.368 15.657 11.499C16.267 11.626 18.518 13.322 19.287 14.111C19.693 14.526 19.9541 14.982 19.9991 15.54C20.0471 16.897 18.391 18.808 17.381 19.383C16.232 20.205 14.774 20.191 13.139 19.43C8.86402 17.651 2.32501 11.154 0.58201 6.88402L0.478067 6.64502C-0.183933 5.06402 -0.168971 3.69801 0.589029 2.66801C1.28103 1.52201 3.14601 -0.059988 4.47001 0.00201199ZM4.39005 1.46402L4.30106 1.46802C3.62206 1.55902 2.25903 2.73201 1.80503 3.47801L1.72703 3.59501C1.33603 4.23201 1.38103 5.10701 1.92503 6.30501L2.02903 6.54802C3.78503 10.488 9.86307 16.482 13.7281 18.091L13.941 18.186C15.059 18.66 15.906 18.639 16.591 18.153L16.6421 18.12C16.8541 17.973 17.343 17.529 17.72 17.094C18.249 16.483 18.549 15.924 18.539 15.626C18.528 15.499 18.4301 15.327 18.2411 15.133C17.6681 14.547 15.587 12.979 15.357 12.931C15.14 12.886 14.9611 12.946 14.4731 13.227L14.2281 13.365C13.5081 13.753 13.001 13.857 12.285 13.597C9.50901 12.464 7.53804 10.494 6.39304 7.69002C6.12204 6.94002 6.26803 6.41001 6.74003 5.58801L6.85203 5.39001C7.06603 5.00301 7.11202 4.83901 7.07102 4.64401C7.02302 4.41301 5.45606 2.33301 4.86906 1.76001C4.67506 1.57001 4.50402 1.47202 4.37602 1.46202L4.39005 1.46402Z" fill="black"/>
</svg>
