<svg width="18" height="20" viewBox="0 0 18 20" fill="none" xmlns="http://www.w3.org/2000/svg">
<path fill-rule="evenodd" clip-rule="evenodd" d="M12.939 1.39C12.652 0.545999 11.907 0 11.064 0H6.936L6.779 0.0059967C5.949 0.0729967 5.241 0.669005 5.023 1.505L4.775 2.76801L4.746 2.879C4.628 3.239 4.296 3.489 3.918 3.489H0.731003L0.632004 3.496C0.275004 3.546 0 3.859 0 4.239C0 4.653 0.327003 4.989 0.731003 4.989H3.918H14.082H17.269L17.368 4.98199C17.725 4.93299 18 4.619 18 4.239C18 3.825 17.673 3.489 17.269 3.489H14.082L13.97 3.48199C13.603 3.43299 13.299 3.14901 13.224 2.76801L12.987 1.552L12.939 1.39ZM11.914 3.489C11.881 3.404 11.852 3.317 11.828 3.228L11.79 3.062L11.564 1.89301C11.511 1.69001 11.347 1.541 11.15 1.507L11.064 1.5H6.936C6.731 1.5 6.548 1.623 6.473 1.778L6.447 1.84599L6.21 3.062C6.181 3.21 6.139 3.353 6.086 3.489H11.914ZM15.978 6.72C16.347 6.751 16.63 7.05699 16.65 7.42599L16.64 7.632L16.326 11.483L15.996 15.241C15.926 15.992 15.864 16.624 15.81 17.123C15.622 18.859 14.495 19.932 12.797 19.964C10.149 20.013 7.605 20.013 5.134 19.959C3.484 19.924 2.374 18.839 2.19 17.13L2.062 15.87L1.84 13.427L1.612 10.746L1.352 7.528C1.319 7.115 1.62 6.753 2.022 6.72C2.391 6.69 2.718 6.94601 2.795 7.30701L2.825 7.60201L3.07 10.619L3.337 13.746C3.456 15.1 3.56 16.195 3.643 16.965C3.748 17.939 4.261 18.44 5.164 18.459C7.616 18.512 10.141 18.513 12.77 18.464C13.728 18.446 14.249 17.95 14.356 16.957L14.483 15.705C14.52 15.319 14.559 14.892 14.601 14.429L14.869 11.354L15.191 7.407C15.22 7.029 15.519 6.73899 15.879 6.71899L15.978 6.72Z" fill="black"/>
</svg>
