<svg width="18" height="20" viewBox="0 0 18 20" fill="none" xmlns="http://www.w3.org/2000/svg">
<path fill-rule="evenodd" clip-rule="evenodd" d="M11.606 0.0119441C11.563 0.00426406 11.519 0.000244141 11.473 0.000244141C11.428 0.000244141 11.384 0.00426406 11.341 0.0119441H5.08398C2.59698 0.0119441 0.5 2.02977 0.5 4.49094V15.2279C0.5 17.8255 2.50098 19.8649 5.08398 19.8649H13.072C15.528 19.8649 17.552 17.7229 17.552 15.2279V6.03794C17.552 5.8443 17.477 5.65817 17.343 5.51849L12.277 0.242494C12.136 0.0952041 11.94 0.0119441 11.736 0.0119441H11.606ZM10.723 1.51114L5.08398 1.51194C3.41298 1.51194 2 2.87134 2 4.49094V15.2279C2 17.0034 3.33598 18.3649 5.08398 18.3649H13.072C14.68 18.3649 16.052 16.9129 16.052 15.2279V6.98333L15.175 6.98631C14.842 6.98591 14.462 6.9852 14.041 6.98424C12.27 6.9805 10.826 5.59372 10.729 3.84765L10.723 3.65924V1.51114ZM15.231 5.48408L14.044 5.48425C13.038 5.48212 12.223 4.66581 12.223 3.65924V2.3522L15.231 5.48408ZM8.64001 6.69084C9.02001 6.69084 9.334 6.973 9.383 7.33907L9.39001 7.44084V12.1967L10.947 10.634C11.24 10.3405 11.715 10.3395 12.008 10.6318C12.275 10.8975 12.3 11.3141 12.083 11.6082L12.01 11.6925L9.17297 14.5423L9.17102 14.5435C9.17102 14.5436 9.17102 14.5437 9.17102 14.5438C8.90402 14.8111 8.48699 14.8353 8.19299 14.6164L8.18597 14.6105C8.16097 14.5914 8.13699 14.5708 8.11499 14.5488L8.10797 14.5434L5.27002 11.6924C4.97802 11.3988 4.97901 10.9239 5.27301 10.6317C5.54001 10.366 5.95602 10.3428 6.24902 10.5613L6.33301 10.6341L7.89001 12.1989V7.44084C7.89001 7.02663 8.22601 6.69084 8.64001 6.69084Z" fill="black"/>
</svg>
