<svg width="20" height="21" viewBox="0 0 20 21" fill="none" xmlns="http://www.w3.org/2000/svg">
<path fill-rule="evenodd" clip-rule="evenodd" d="M14.518 5.0599C14.407 2.6608 12.427 0.749799 10.001 0.749799C7.51498 0.739099 5.487 2.7393 5.461 5.2242H5.258C2.492 5.2242 0.25 7.4647 0.25 10.2292V15.7452C0.25 18.5097 2.492 20.7502 5.258 20.7502H14.742C17.508 20.7502 19.75 18.5097 19.75 15.7452V10.2292C19.75 7.4647 17.508 5.2242 14.742 5.2242H14.522L14.518 5.0599ZM13.023 6.7242V8.3049L13.03 8.4066C13.079 8.7727 13.393 9.0549 13.773 9.0549C14.187 9.0549 14.523 8.7191 14.523 8.3049V6.7242H14.742C16.68 6.7242 18.25 8.2933 18.25 10.2292V15.7452C18.25 17.681 16.68 19.2502 14.742 19.2502H5.258C3.32 19.2502 1.75 17.681 1.75 15.7452V10.2292C1.75 8.2933 3.32 6.7242 5.258 6.7242H5.461V8.3049L5.46799 8.4066C5.51699 8.7727 5.831 9.0549 6.211 9.0549C6.625 9.0549 6.961 8.7191 6.961 8.3049V6.7242H13.023ZM13.023 5.2242C12.997 3.5769 11.654 2.2498 9.99799 2.2498C8.38699 2.2429 7.06598 3.4952 6.96698 5.0786L6.96198 5.2242H13.023Z" fill="black"/>
</svg>
