<svg width="20" height="20" viewBox="0 0 20 20" fill="none" xmlns="http://www.w3.org/2000/svg">
<path fill-rule="evenodd" clip-rule="evenodd" d="M14.33 0.000244141H5.66003C2.27003 0.000244141 0 2.43284 0 5.91624V14.0842C0 17.5709 2.26003 20.0002 5.66003 20.0002H14.33C17.74 20.0002 20 17.5709 20 14.0842V5.91624C20 2.42974 17.74 0.000244141 14.33 0.000244141ZM5.66003 1.50024H14.33C16.88 1.50024 18.5 3.23524 18.5 5.91624V14.0842C18.5 16.7654 16.88 18.5002 14.33 18.5002H5.66003C3.11003 18.5002 1.5 16.7656 1.5 14.0842V5.91624C1.5 3.23864 3.12003 1.50024 5.66003 1.50024ZM14.09 7.09695C13.8 6.80405 13.32 6.80405 13.03 7.09695L8.81006 11.312L6.96997 9.46985L6.89001 9.39725C6.59001 9.17945 6.18003 9.20375 5.91003 9.47005C5.62003 9.76305 5.62003 10.2379 5.91003 10.5307L8.28003 12.9037L8.37 12.9763C8.66 13.194 9.07997 13.1698 9.33997 12.9036L14.09 8.15765L14.16 8.07355C14.38 7.77985 14.36 7.36325 14.09 7.09695Z" fill="black"/>
</svg>
