<svg width="18" height="20" viewBox="0 0 18 20" fill="none" xmlns="http://www.w3.org/2000/svg">
<path fill-rule="evenodd" clip-rule="evenodd" d="M8.87 5.34057e-05C11.73 5.34057e-05 14.05 2.25605 14.17 5.08205V5.30105V6.87705C15.95 7.49305 17.23 9.18206 17.23 11.1691V15.458C17.23 17.966 15.19 20.0001 12.68 20.0001H5.03998C2.52998 20.0001 0.5 17.966 0.5 15.458V11.1691C0.5 9.18206 1.77999 7.49306 3.54999 6.87606V5.27705C3.56999 2.34905 5.95 -0.0129466 8.87 5.34057e-05ZM12.67 5.30105V6.62705H5.04999V5.28106L5.06 5.08506C5.17 3.08006 6.84 1.49105 8.87 1.50005C10.97 1.50005 12.67 3.20205 12.67 5.30105ZM12.68 8.12705H5.03998C3.35998 8.12705 2 9.48806 2 11.1691V15.458C2 17.138 3.35998 18.5001 5.03998 18.5001H12.68C14.36 18.5001 15.73 17.138 15.73 15.458V11.1691C15.73 9.48806 14.36 8.12705 12.68 8.12705ZM9.60999 12.1011C9.55999 11.7351 9.23999 11.4531 8.85999 11.4531C8.44999 11.4531 8.10999 11.7881 8.10999 12.2031V14.424L8.12 14.525C8.17 14.891 8.47999 15.174 8.85999 15.174C9.27999 15.174 9.60999 14.838 9.60999 14.424V12.2031V12.1011Z" fill="black"/>
</svg>
