<svg width="20" height="20" viewBox="0 0 20 20" fill="none" xmlns="http://www.w3.org/2000/svg">
<path fill-rule="evenodd" clip-rule="evenodd" d="M14.88 4.38194C14.623 1.91984 12.531 4.21952e-05 9.98904 4.21952e-05C8.68404 -0.0053578 7.42703 0.507744 6.50003 1.42614C5.69603 2.22324 5.19701 3.26864 5.08001 4.38194H5.07904C3.29704 4.38194 1.80103 5.68314 1.38003 7.94234L0.619015 13.8123C-0.0279853 18.1105 1.99303 20 5.94903 20H14.046C17.704 20 19.891 17.8703 19.442 14.0482L18.656 7.98174C18.153 5.69434 16.695 4.38194 14.952 4.38194H14.88ZM13.414 4.38194C13.165 2.72154 11.726 1.44784 9.98501 1.44784C9.06401 1.44394 8.18003 1.80534 7.52703 2.45194C6.99704 2.97694 6.65602 3.65494 6.54602 4.38194H13.414ZM5.07904 5.82974H14.952C15.974 5.82974 16.872 6.63794 17.224 8.22994L17.968 13.9973C18.411 17.0657 16.938 18.5522 14.046 18.5522H5.94903C2.81803 18.5522 1.55402 17.3711 2.06002 14.0121L2.81701 8.16665C3.10601 6.61895 4.01404 5.82974 5.07904 5.82974ZM12.865 8.51645C13.267 8.51645 13.593 8.84054 13.593 9.24035C13.593 9.60674 13.319 9.90964 12.964 9.95754L12.865 9.96415H12.821C12.419 9.96415 12.093 9.64005 12.093 9.24035C12.093 8.87385 12.367 8.57094 12.722 8.52304L12.821 8.51645H12.865ZM7.93704 9.24035C7.93704 8.84054 7.61102 8.51645 7.21002 8.51645H7.16504L7.06604 8.52304C6.71104 8.57094 6.43801 8.87385 6.43801 9.24035C6.43801 9.64005 6.76304 9.96415 7.16504 9.96415H7.21002L7.30804 9.95754C7.66304 9.90964 7.93704 9.60674 7.93704 9.24035Z" fill="black"/>
</svg>
