<svg width="20" height="20" viewBox="0 0 20 20" fill="none" xmlns="http://www.w3.org/2000/svg">
<path fill-rule="evenodd" clip-rule="evenodd" d="M4.4749 0.00400874L4.44694 0.00200984C3.12994 -0.0599902 1.27194 1.52402 0.584944 2.66902C-0.168056 3.69802 -0.183102 5.06502 0.474898 6.64502L0.578902 6.88401C2.3129 11.154 8.81791 17.651 13.0709 19.43C14.6979 20.191 16.1479 20.205 17.2909 19.382C18.2959 18.808 19.9429 16.897 19.8949 15.54C19.8499 14.981 19.5909 14.525 19.1879 14.11L19.0889 14.013L18.8149 13.759C17.8229 12.873 16.1059 11.61 15.5749 11.498C14.9509 11.368 14.5289 11.485 13.8619 11.852L13.6129 11.994C13.1389 12.267 12.9689 12.314 12.7449 12.232C10.3719 11.258 8.69794 9.57601 7.71794 7.16401C7.65394 6.98501 7.68595 6.82901 7.89195 6.45101L8.0009 6.25801C8.4499 5.47301 8.60091 5.02901 8.45891 4.34501L8.43394 4.25701C8.20194 3.58001 6.7779 1.67301 5.9879 0.842006L5.86095 0.713008C5.44895 0.309008 4.9959 0.0480087 4.4749 0.00400874ZM4.36491 1.46402L4.41893 1.47401C4.51393 1.50101 4.62594 1.56701 4.75194 1.67501L4.84392 1.75901L5.01695 1.94101C5.68895 2.68401 6.99092 4.43302 7.03392 4.64302C7.07492 4.83902 7.02994 5.00301 6.81694 5.39001L6.70494 5.58702C6.23494 6.41002 6.08991 6.94001 6.35991 7.69001C7.49891 10.494 9.45993 12.464 12.2209 13.597C12.9339 13.858 13.4389 13.753 14.1539 13.366L14.3989 13.227C14.8839 12.947 15.0619 12.886 15.2779 12.931C15.4899 12.975 17.3809 14.395 18.0749 15.062L18.1559 15.143C18.3349 15.327 18.4319 15.498 18.4429 15.626C18.4529 15.924 18.1539 16.483 17.6279 17.093C17.2529 17.528 16.767 17.972 16.556 18.12L16.5049 18.152C15.8239 18.639 14.9819 18.66 13.8689 18.185L13.6569 18.091C9.8119 16.482 3.7649 10.488 2.0189 6.54802L1.9149 6.305C1.3739 5.108 1.32894 4.232 1.71794 3.596L1.79594 3.47901C2.24594 2.73301 3.60291 1.55901 4.27891 1.46901L4.36491 1.46402ZM12.4219 0.244014L12.5209 0.248012C16.4499 0.687012 19.5539 3.80302 19.9949 7.75302C20.0399 8.15502 19.7529 8.51701 19.3529 8.56201C18.9539 8.60701 18.5939 8.31802 18.5489 7.91702C18.1829 4.64602 15.6139 2.06601 12.3599 1.70201C11.9609 1.65801 11.6729 1.29601 11.7169 0.894008C11.7539 0.560008 12.0099 0.303017 12.3249 0.253017L12.4219 0.244014ZM12.4809 3.70101L12.5789 3.71301C14.5879 4.10701 16.1569 5.68501 16.5489 7.70401C16.6259 8.10101 16.3679 8.48501 15.9739 8.56201C15.5789 8.63901 15.1969 8.381 15.1199 7.984C14.8419 6.55 13.7279 5.429 12.3009 5.15C11.9069 5.072 11.6489 4.68802 11.7259 4.29202C11.7899 3.96102 12.0659 3.72601 12.3849 3.70201L12.4809 3.70101Z" fill="black"/>
</svg>
