<svg width="20" height="20" viewBox="0 0 20 20" fill="none" xmlns="http://www.w3.org/2000/svg">
<path fill-rule="evenodd" clip-rule="evenodd" d="M10 0C4.477 0 0 4.477 0 10C0 15.524 4.477 20 10 20C15.523 20 20 15.524 20 10C20 4.477 15.523 0 10 0ZM10 1.5C14.695 1.5 18.5 5.306 18.5 10C18.5 14.695 14.695 18.5 10 18.5C5.305 18.5 1.5 14.695 1.5 10C1.5 5.306 5.305 1.5 10 1.5ZM10.405 5.745C10.355 5.379 10.041 5.097 9.66199 5.097C9.24699 5.097 8.91199 5.433 8.91199 5.847V10.694L8.92001 10.806C8.95301 11.026 9.08301 11.222 9.27701 11.338L13.047 13.587L13.138 13.633C13.478 13.778 13.881 13.653 14.076 13.327L14.122 13.236C14.267 12.896 14.142 12.493 13.816 12.299L10.411 10.267L10.412 5.847L10.405 5.745Z" fill="black"/>
</svg>
