<svg width="20" height="20" viewBox="0 0 20 20" fill="none" xmlns="http://www.w3.org/2000/svg">
<path fill-rule="evenodd" clip-rule="evenodd" d="M14.8212 2.5814C14.8212 1.1557 15.9805 0 17.4106 0C18.8407 0 20 1.1557 20 2.5814C20 4.007 18.8407 5.1628 17.4106 5.1628C15.9805 5.1628 14.8212 4.007 14.8212 2.5814ZM18.5465 2.5814C18.5465 1.956 18.0379 1.449 17.4106 1.449C16.7833 1.449 16.2747 1.956 16.2747 2.5814C16.2747 3.2068 16.7833 3.7137 17.4106 3.7137C18.0379 3.7137 18.5465 3.2068 18.5465 2.5814ZM13.5277 7.5402C13.7736 7.2239 14.2301 7.1662 14.5473 7.4113C14.8358 7.6341 14.9099 8.0304 14.7363 8.3383L14.6767 8.4277L11.8384 12.0796C11.6139 12.3685 11.2139 12.4415 10.9047 12.2658L10.815 12.2056L8.0835 10.0668L5.6312 13.2448C5.4086 13.5331 5.0113 13.6083 4.7019 13.4363L4.612 13.3772C4.3228 13.1554 4.2474 12.7593 4.4199 12.4508L4.4792 12.3612L7.3795 8.6032C7.6036 8.3129 8.0046 8.239 8.3145 8.415L8.4045 8.4753L11.1368 10.6155L13.5277 7.5402ZM13.2236 1.538C13.2236 1.1379 12.8982 0.813499 12.4968 0.813499H5.4543L5.2273 0.817299C2.0752 0.922799 0 3.2306 0 6.5073V14.315L0.00350189 14.5481C0.100602 17.7878 2.2269 20 5.4543 20H13.7918L14.0188 19.9962C17.1721 19.891 19.2461 17.5901 19.2461 14.315V7.5153L19.2394 7.417C19.1913 7.0634 18.8872 6.7908 18.5193 6.7908C18.1179 6.7908 17.7926 7.1152 17.7926 7.5153V14.315L17.7886 14.5399C17.7007 16.9868 16.1725 18.551 13.7918 18.551H5.4543L5.2384 18.5467C2.891 18.4534 1.4535 16.8291 1.4535 14.315V6.5073L1.4575 6.2822C1.5455 3.8328 3.0757 2.2625 5.4543 2.2625H12.4968L12.5954 2.2559C12.9502 2.2079 13.2236 1.9048 13.2236 1.538Z" fill="black"/>
</svg>
