<svg width="20" height="20" viewBox="0 0 20 20" fill="none" xmlns="http://www.w3.org/2000/svg">
<path fill-rule="evenodd" clip-rule="evenodd" d="M5.812 0.5H14.188C17.398 0.5 20 3.16116 20 6.44374V7.18592V7.20241V7.21891V12.5201V12.5366V12.5531V13.5563C20 16.8388 17.398 19.5 14.188 19.5H5.812C2.602 19.5 0 16.8388 0 13.5563V6.44374C0 3.16116 2.602 0.5 5.812 0.5ZM18.546 6.44374V6.45916H15.35L15.167 6.46431C13.41 6.56244 12.015 8.0491 12.015 9.8695C12.016 11.7531 13.508 13.2787 15.35 13.2798H18.546V13.5563C18.546 16.0179 16.595 18.0135 14.188 18.0135H5.812C3.405 18.0135 1.454 16.0179 1.454 13.5563V6.44374C1.454 3.98214 3.405 1.98651 5.812 1.98651H14.188C16.595 1.98651 18.546 3.98214 18.546 6.44374ZM15.351 7.94567H18.546V11.7933H15.35L15.203 11.7874C14.233 11.7102 13.469 10.8811 13.468 9.869C13.468 8.8074 14.311 7.94632 15.351 7.94567ZM16.521 9.8084C16.521 9.3979 16.196 9.0652 15.794 9.0652H15.492L15.394 9.072C15.039 9.1212 14.765 9.4322 14.765 9.8084C14.765 10.2189 15.091 10.5517 15.492 10.5517H15.794L15.893 10.5449C16.248 10.4957 16.521 10.1847 16.521 9.8084ZM11.081 5.74062C11.081 5.33013 10.755 4.99736 10.354 4.99736H5.122L5.023 5.00415C4.669 5.05337 4.395 5.36434 4.395 5.74062C4.395 6.15111 4.721 6.48388 5.122 6.48388H10.354L10.453 6.47709C10.807 6.42788 11.081 6.1169 11.081 5.74062Z" fill="black"/>
</svg>
