<svg width="20" height="19" viewBox="0 0 20 19" fill="none" xmlns="http://www.w3.org/2000/svg">
<path fill-rule="evenodd" clip-rule="evenodd" d="M12.38 1.29789C11.587 0.0557938 9.94498 -0.373707 8.62998 0.354893C8.16598 0.609893 7.78196 0.993891 7.52396 1.46009L0.251989 14.1868L0.186986 14.358C-0.327014 15.8448 0.370975 17.3951 1.76297 17.9625L1.986 18.0419C2.212 18.1118 2.44397 18.1535 2.67997 18.1667L2.76395 18.165L2.79496 18.1679H17.277L17.453 18.1536C18.964 17.9865 20.0739 16.6979 19.9959 15.1954C19.9779 14.8746 19.909 14.5637 19.79 14.2737L12.471 1.45079L12.38 1.29789ZM9.35495 1.66819C9.99895 1.31099 10.808 1.54329 11.163 2.18599L18.445 14.931L18.467 15.0285C18.48 15.0953 18.493 15.1845 18.499 15.2759C18.536 16.0056 17.972 16.6305 17.238 16.6689L2.79496 16.6679L2.76499 16.669L2.61399 16.6526C2.51499 16.6363 2.419 16.6094 2.327 16.5722C1.649 16.2963 1.322 15.5212 1.598 14.8411L8.83194 2.19499L8.913 2.06419C9.031 1.89779 9.18095 1.76369 9.35495 1.66819ZM9.24997 13.2696C9.24997 12.8556 9.58597 12.5136 9.99997 12.5136C10.414 12.5136 10.75 12.8446 10.75 13.2586V13.2696C10.75 13.6836 10.414 14.0196 9.99997 14.0196C9.58597 14.0196 9.24997 13.6836 9.24997 13.2696ZM10.7329 7.19429C10.6829 6.82829 10.369 6.54609 9.98996 6.54609C9.57496 6.54609 9.23996 6.88189 9.23996 7.29609V10.3961L9.24595 10.4979C9.29595 10.864 9.60996 11.1461 9.98996 11.1461C10.404 11.1461 10.74 10.8103 10.74 10.3961V7.29609L10.7329 7.19429Z" fill="black"/>
</svg>
