<svg width="20" height="20" viewBox="0 0 20 20" fill="none" xmlns="http://www.w3.org/2000/svg">
<path fill-rule="evenodd" clip-rule="evenodd" d="M6.19299 8.23801L13.542 0.9C14.746 -0.3 16.697 -0.3 17.9 0.9L19.097 2.09501C20.301 3.29701 20.301 5.24601 19.097 6.44601L11.713 13.819C11.174 14.357 10.443 14.659 9.681 14.659H5.998C5.583 14.659 5.24999 14.318 5.25999 13.904L5.353 10.193C5.371 9.458 5.67199 8.75801 6.19299 8.23801ZM18.054 3.137L16.858 1.94201C16.23 1.31601 15.213 1.31601 14.585 1.94201L13.981 2.545L17.45 6.00901L18.054 5.405C18.682 4.77901 18.682 3.763 18.054 3.137ZM16.406 7.05001L12.938 3.58701L7.23599 9.27901C6.98299 9.53201 6.836 9.872 6.827 10.23L6.75301 13.185L9.681 13.186C10.006 13.186 10.318 13.074 10.567 12.87L10.67 12.777L16.406 7.05001ZM9.33501 0.0380005C9.74201 0.0380005 10.072 0.368008 10.072 0.774008C10.072 1.14701 9.795 1.455 9.435 1.504L9.33501 1.51101H5.658C3.178 1.51101 1.572 3.15301 1.479 5.70301L1.47501 5.93801V14.1C1.47501 16.709 3.00301 18.424 5.43401 18.523L5.658 18.527H14.336C16.822 18.527 18.423 16.889 18.515 14.335L18.519 14.1V10.146C18.519 9.739 18.849 9.409 19.257 9.409C19.63 9.409 19.939 9.68601 19.988 10.046L19.994 10.146V14.1C19.994 17.499 17.838 19.889 14.566 19.996L14.336 20H5.658C2.335 20 0.103006 17.687 0.00300598 14.336L0 14.1V5.93801C0 2.54201 2.16199 0.149014 5.42799 0.0420136L5.658 0.0380005H9.33501Z" fill="black"/>
</svg>
