<svg width="20" height="20" viewBox="0 0 20 20" fill="none" xmlns="http://www.w3.org/2000/svg">
<path fill-rule="evenodd" clip-rule="evenodd" d="M7.3846 0H5.4528C1.7299 0 0 2.17544 0 6.22847V13.7715C0 17.6361 2.3635 20 6.229 20H13.7533C17.6114 20 19.9735 17.6347 19.9735 13.7715L20 8.9706C20 4.92273 18.3106 2.94127 14.5296 2.94127H11.7951C11.3298 2.94034 10.8906 2.72042 10.6098 2.34714L9.7281 1.17286C9.1753 0.43479 8.3068 0 7.3846 0ZM5.4528 1.45147H7.3846C7.8506 1.45147 8.2894 1.67116 8.569 2.04444L9.4516 3.21988C10.0059 3.95693 10.8727 4.3909 11.7936 4.39273L14.5296 4.39274C17.4547 4.39274 18.5505 5.67793 18.5505 8.9666L18.524 13.7675C18.524 16.8331 16.8109 18.5485 13.7533 18.5485H6.229C3.1637 18.5485 1.4495 16.8341 1.4495 13.7715V6.22847C1.4495 2.91372 2.6123 1.45147 5.4528 1.45147ZM15.3425 12.5438C15.3425 12.143 15.0181 11.8181 14.6178 11.8181H5.347L5.2486 11.8247C4.8948 11.8727 4.6222 12.1764 4.6222 12.5438C4.6222 12.9446 4.9467 13.2695 5.347 13.2695H14.6178L14.7161 13.2629C15.0699 13.2149 15.3425 12.9112 15.3425 12.5438Z" fill="black"/>
</svg>
