<svg width="20" height="20" viewBox="0 0 20 20"  xmlns="http://www.w3.org/2000/svg">
<path fill-rule="evenodd" clip-rule="evenodd" 
d="M14.359 0H5.64099C2.25599 0 0 2.4199 0 5.8932V14.1068C0 17.5833 2.24999 20 5.64099 20H14.359C17.75 20 20 17.5833 20 14.1068V5.8932C20 2.4167 17.75 0 14.359 0ZM5.64099 1.3953H14.359C16.956 1.3953 18.605 3.1659 18.605 5.8932V14.1068C18.605 16.8341 16.956 18.6047 14.359 18.6047H5.64099C3.04399 18.6047 1.39499 16.8341 1.39499 14.1068V5.8932C1.39499 3.1695 3.04899 1.3953 5.64099 1.3953ZM10 5.8859C10.353 5.8859 10.645 6.1483 10.691 6.4889L10.698 6.5835V9.2935H13.411C13.796 9.2935 14.109 9.6058 14.109 9.9911C14.109 10.3444 13.846 10.6363 13.506 10.6825L13.411 10.6888H10.698V13.3988C10.698 13.7841 10.385 14.0964 10 14.0964C9.647 14.0964 9.35499 13.834 9.30899 13.4934L9.302 13.3988V10.6888H6.58899C6.20399 10.6888 5.89099 10.3765 5.89099 9.9911C5.89099 9.6379 6.15399 9.346 6.49399 9.2998L6.58899 9.2935H9.302V6.5835C9.302 6.1982 9.615 5.8859 10 5.8859Z" />
</svg>
