<svg width="20" height="20" viewBox="0 0 20 20" fill="none" xmlns="http://www.w3.org/2000/svg">
<path fill-rule="evenodd" clip-rule="evenodd" d="M0 10.0002C0 4.47804 4.478 0.000244141 10 0.000244141C15.523 0.000244141 20 4.47774 20 10.0002C20 15.5228 15.523 20.0002 10 20.0002C4.478 20.0002 0 15.5225 0 10.0002ZM18.5 10.0002C18.5 5.30614 14.694 1.50024 10 1.50024C5.306 1.50024 1.5 5.30654 1.5 10.0002C1.5 14.694 5.306 18.5002 10 18.5002C14.694 18.5002 18.5 14.6944 18.5 10.0002ZM9.995 5.45435C10.375 5.45435 10.689 5.73655 10.738 6.10265L10.745 6.20435V10.6233C10.745 11.0376 10.409 11.3733 9.995 11.3733C9.615 11.3733 9.30201 11.0912 9.25201 10.7251L9.245 10.6233V6.20435C9.245 5.79015 9.581 5.45435 9.995 5.45435ZM10.755 13.7961C10.755 13.3819 10.419 13.0461 10.005 13.0461L9.89301 13.053C9.52701 13.1027 9.245 13.4164 9.245 13.7961C9.245 14.2104 9.581 14.5461 9.995 14.5461L10.107 14.5393C10.473 14.4896 10.755 14.1758 10.755 13.7961Z" fill="black"/>
</svg>
