<svg width="20" height="20" viewBox="0 0 20 20" fill="none" xmlns="http://www.w3.org/2000/svg">
<path fill-rule="evenodd" clip-rule="evenodd" d="M5.76001 4.214C5.76001 3.127 4.86502 2.242 3.76202 2.242C2.66102 2.242 1.76501 3.127 1.76501 4.214C1.76501 5.301 2.66102 6.186 3.76202 6.186C4.86502 6.186 5.76001 5.301 5.76001 4.214ZM7.52502 4.214C7.52502 6.261 5.83802 7.92799 3.76202 7.92799C1.68802 7.92799 0 6.261 0 4.214C0 2.166 1.68802 0.5 3.76202 0.5C5.83802 0.5 7.52502 2.166 7.52502 4.214ZM20 4.214C20 3.733 19.605 3.343 19.118 3.343H11.882C11.395 3.343 11 3.733 11 4.214C11 4.695 11.395 5.08501 11.882 5.08501H19.118C19.605 5.08501 20 4.695 20 4.214ZM14.24 15.786C14.24 16.873 15.135 17.758 16.237 17.758C17.34 17.758 18.235 16.873 18.235 15.786C18.235 14.698 17.34 13.814 16.237 13.814C15.135 13.814 14.24 14.698 14.24 15.786ZM12.475 15.786C12.475 13.738 14.162 12.072 16.237 12.072C18.313 12.072 20 13.738 20 15.786C20 17.834 18.313 19.5 16.237 19.5C14.162 19.5 12.475 17.834 12.475 15.786ZM0.882996 14.915H8.117C8.604 14.915 8.99902 15.305 8.99902 15.786C8.99902 16.267 8.604 16.657 8.117 16.657H0.882996C0.395996 16.657 0.000976562 16.267 0.000976562 15.786C0.000976562 15.305 0.395996 14.915 0.882996 14.915Z" fill="black"/>
</svg>
