<svg width="20" height="20" viewBox="0 0 20 20" fill="none" xmlns="http://www.w3.org/2000/svg">
<path fill-rule="evenodd" clip-rule="evenodd" d="M4.48305 0.815291C0.812053 1.99738 -0.82595 6.00569 0.40505 9.8295C1.02905 11.6301 2.04506 13.2485 3.38006 14.5762C5.21106 16.3545 7.22306 17.9194 9.38506 19.2491L9.63006 19.3961C9.86606 19.5369 10.1601 19.5344 10.3931 19.3897L10.6221 19.2473C12.7811 17.9194 14.7931 16.3545 16.6171 14.5824C17.9581 13.2485 18.974 11.6301 19.594 9.8452C20.829 6.00801 19.1851 1.9978 15.5121 0.815351L15.246 0.736231C13.562 0.273091 11.7731 0.501301 10.2651 1.35535L9.99602 1.51429L9.73302 1.35623C8.14202 0.453441 6.24005 0.250031 4.48305 0.815291ZM9.37505 2.85427L9.57104 2.99538C9.83104 3.18111 10.181 3.17742 10.436 2.98625C11.766 1.99057 13.4871 1.70082 15.0641 2.20669C17.9101 3.12284 19.205 6.28096 18.206 9.382C17.665 10.9417 16.769 12.3696 15.592 13.5405L15.0641 14.0421C13.6411 15.3642 12.103 16.561 10.469 17.6156L10.001 17.9098L10.144 17.9998C8.08003 16.7308 6.15406 15.2319 4.40606 13.5343C3.23506 12.3696 2.33904 10.9417 1.79204 9.3664C0.798043 6.27801 2.08706 3.12212 4.93206 2.20646C6.43306 1.72339 8.07105 1.96289 9.37505 2.85427ZM13.87 4.48374C13.485 4.36093 13.074 4.57304 12.951 4.95749C12.828 5.34194 13.04 5.75316 13.425 5.87597C14.181 6.11735 14.7211 6.79803 14.7881 7.60096C14.8221 8.0031 15.1761 8.3017 15.5781 8.2679C15.9811 8.2341 16.28 7.8807 16.246 7.47853C16.129 6.08859 15.192 4.90551 13.87 4.48374Z" fill="black"/>
</svg>
