<svg width="23" height="18" viewBox="0 0 23 18" fill="none" xmlns="http://www.w3.org/2000/svg">
<path fill-rule="evenodd" clip-rule="evenodd" d="M11.938 0.437988C9.38198 0.437988 7.32897 2.48998 7.32897 5.04598C7.32897 7.60198 9.38198 9.65498 11.938 9.65498C14.493 9.65498 16.546 7.60198 16.546 5.04598C16.546 2.48998 14.493 0.437988 11.938 0.437988ZM11.938 1.93799C13.665 1.93799 15.046 3.31898 15.046 5.04598C15.046 6.77398 13.665 8.15498 11.938 8.15498C10.21 8.15498 8.82897 6.77398 8.82897 5.04598C8.82897 3.31898 10.211 1.93799 11.938 1.93799ZM6.28997 1.37898C6.70397 1.37898 7.03997 1.71498 7.03997 2.12898C7.03997 2.54398 6.70397 2.87898 6.28997 2.87898C5.10197 2.87898 4.13799 3.84298 4.13799 5.03098C4.13799 6.21798 5.10197 7.18198 6.28997 7.18198C6.70397 7.18198 7.03997 7.51798 7.03997 7.93198C7.03997 8.34598 6.70397 8.68198 6.28997 8.68198C4.27297 8.68198 2.63799 7.04698 2.63799 5.03098C2.63799 3.01398 4.27297 1.37898 6.28997 1.37898ZM21.247 5.03098C21.247 3.01398 19.611 1.37898 17.595 1.37898C17.181 1.37898 16.845 1.71498 16.845 2.12898C16.845 2.54398 17.181 2.87898 17.595 2.87898C18.783 2.87898 19.747 3.84298 19.747 5.03098C19.747 6.21798 18.783 7.18198 17.595 7.18198C17.181 7.18198 16.845 7.51798 16.845 7.93198C16.845 8.34598 17.181 8.68198 17.595 8.68198C19.611 8.68198 21.247 7.04698 21.247 5.03098ZM20.496 10.555C20.016 10.447 19.502 10.373 18.981 10.337C18.567 10.308 18.209 10.62 18.181 11.033C18.152 11.446 18.464 11.804 18.877 11.833C19.324 11.864 19.762 11.927 20.187 12.023C20.849 12.153 21.28 12.368 21.387 12.592C21.468 12.761 21.468 12.961 21.386 13.132C21.281 13.354 20.853 13.568 20.201 13.702C19.795 13.786 19.534 14.182 19.617 14.588C19.7 14.994 20.097 15.255 20.503 15.172C21.581 14.95 22.371 14.555 22.741 13.776C23.016 13.196 23.016 12.525 22.741 11.947C22.368 11.165 21.565 10.764 20.496 10.555ZM5.70397 11.033C5.67497 10.62 5.31698 10.308 4.90398 10.337C4.38198 10.373 3.86897 10.447 3.36797 10.559L3.16198 10.603C2.21398 10.819 1.49097 11.217 1.14397 11.947C0.868973 12.524 0.86901 13.197 1.14501 13.776C1.51401 14.554 2.30301 14.95 3.38201 15.172C3.78801 15.255 4.184 14.994 4.268 14.588C4.351 14.182 4.09001 13.786 3.68401 13.702C3.03201 13.568 2.60501 13.354 2.49901 13.132C2.41701 12.96 2.41698 12.762 2.49798 12.592C2.60498 12.368 3.03599 12.152 3.67699 12.027L4.01 11.959C4.343 11.897 4.67201 11.856 5.00701 11.833C5.42101 11.804 5.73197 11.446 5.70397 11.033ZM5.16698 14.185C5.16698 11.799 7.63498 10.96 11.938 10.96L12.243 10.961C16.365 11 18.708 11.841 18.708 14.167C18.708 16.439 16.469 17.309 12.54 17.386L11.938 17.392C7.62498 17.392 5.16698 16.568 5.16698 14.185ZM17.208 14.167C17.208 13.057 15.428 12.46 11.938 12.46C8.45098 12.46 6.66698 13.066 6.66698 14.185C6.66698 15.295 8.44698 15.892 11.938 15.892C15.423 15.892 17.208 15.285 17.208 14.167Z" fill="black"/>
</svg>
