<svg width="16" height="18" viewBox="0 0 16 18" fill="none" xmlns="http://www.w3.org/2000/svg">
<path fill-rule="evenodd" clip-rule="evenodd" d="M8.81996 0.70716C8.76996 0.3078 8.42001 0 8.00001 0C7.54001 0 7.17005 0.36631 7.17005 0.81818V15.1999L1.92005 10.0047L1.82997 9.9253C1.49997 9.687 1.04 9.7124 0.74 10.0023C0.42 10.3212 0.42 10.8392 0.74 11.1594L7.40003 17.7477C7.44003 17.787 7.48004 17.8224 7.53004 17.8536C7.85004 18.0766 8.29998 18.0452 8.58998 17.7593L15.26 11.1593L15.34 11.0674C15.58 10.7466 15.55 10.2921 15.26 10.0023C14.93 9.6834 14.4 9.6845 14.08 10.0047L8.82997 15.2012V0.81818L8.81996 0.70716Z" fill="black"/>
</svg>
