<svg width="20" height="16" viewBox="0 0 20 16" fill="none" xmlns="http://www.w3.org/2000/svg">
<path fill-rule="evenodd" clip-rule="evenodd" d="M10.288 0.00500488L10.002 0C5.861 0 2.12899 2.92299 0.0609941 7.70599C-0.0200059 7.89399 -0.0200059 8.10601 0.0609941 8.29401L0.204 8.617C2.246 13.093 5.77499 15.864 9.712 15.995L9.99798 16C14.139 16 17.871 13.077 19.939 8.29401C20.021 8.10401 20.02 7.88801 19.936 7.69901L19.797 7.386C17.75 2.901 14.219 0.135005 10.288 0.00500488ZM10.009 1.489L10.248 1.495L10.515 1.508C13.712 1.735 16.653 4.10599 18.429 7.99899L18.42 8.02299C16.599 12 13.557 14.385 10.259 14.505L10.004 14.509L9.747 14.505L9.48098 14.491C6.38298 14.272 3.526 12.034 1.739 8.36L1.57 7.99899L1.72698 7.666C3.61098 3.773 6.69099 1.49 10.009 1.489ZM9.99999 4.11301C7.83899 4.11301 6.08898 5.853 6.08898 8C6.08898 10.146 7.83899 11.886 9.99999 11.886C12.16 11.886 13.911 10.146 13.911 8C13.911 5.853 12.16 4.11301 9.99999 4.11301ZM9.99999 5.604C11.332 5.604 12.411 6.676 12.411 8C12.411 9.323 11.332 10.396 9.99999 10.396C8.66799 10.396 7.58898 9.323 7.58898 8C7.58898 6.676 8.66799 5.604 9.99999 5.604Z" fill="black"/>
</svg>
