<svg width="16" height="20" viewBox="0 0 16 20" fill="none" xmlns="http://www.w3.org/2000/svg">
<path fill-rule="evenodd" clip-rule="evenodd" d="M10.986 0H5.01401C1.90901 0 0 1.49929 0 4.43434V18.3309C0.004 18.613 0.0699932 18.8782 0.192993 19.1174L0.285995 19.2719L0.384003 19.3975C0.895003 19.9969 1.711 20.1624 2.384 19.8037L7.974 16.6635L13.586 19.7971C13.837 19.9291 14.097 19.9957 14.361 20C14.804 20.0001 15.218 19.8242 15.523 19.5112C15.828 19.1982 16 18.7736 16 18.3309V4.25765C16 1.43503 14.048 0 10.986 0ZM5.01401 1.44775H10.986C13.35 1.44775 14.588 2.35788 14.588 4.25765V18.3309C14.588 18.3897 14.565 18.446 14.525 18.4875C14.484 18.529 14.429 18.5523 14.372 18.5523C14.336 18.5517 14.289 18.5397 14.246 18.5173L8.644 15.3894C8.225 15.1576 7.72301 15.1576 7.30701 15.3883L1.72 18.5265C1.635 18.5715 1.51401 18.5421 1.44901 18.4519L1.412 18.3897C1.419 18.4 1.41799 18.3876 1.41499 18.3662C1.41399 18.3528 1.412 18.3359 1.412 18.3189V4.43434C1.412 2.39579 2.61901 1.44775 5.01401 1.44775ZM12.114 7.0405C12.114 6.64072 11.798 6.31663 11.408 6.31663H4.53999L4.44501 6.32324C4.10001 6.37117 3.834 6.67404 3.834 7.0405C3.834 7.44029 4.14999 7.76438 4.53999 7.76438H11.408L11.504 7.75777C11.848 7.70984 12.114 7.40697 12.114 7.0405Z" fill="black"/>
</svg>
