<svg width="20" height="20" viewBox="0 0 20 20" fill="none" xmlns="http://www.w3.org/2000/svg">
<path fill-rule="evenodd" clip-rule="evenodd" d="M5.67004 0H14.34C17.74 0 20 2.42931 20 5.916V14.084C20 17.567 17.73 20 14.34 20H5.67004C2.26004 20 0 17.5705 0 14.084V5.916C0 2.4295 2.26004 0 5.67004 0ZM14.34 1.5H5.67004C3.12004 1.5 1.5 3.23496 1.5 5.916V14.084C1.5 16.765 3.12004 18.5 5.67004 18.5H14.34C16.88 18.5 18.5 16.7612 18.5 14.084V5.916C18.5 3.23468 16.89 1.5 14.34 1.5ZM10 5.164C10.38 5.164 10.69 5.44615 10.74 5.81223L10.75 5.914V12.2692L13.22 9.7931C13.48 9.5263 13.8999 9.5012 14.1899 9.7184L14.28 9.7908C14.54 10.0565 14.57 10.4732 14.35 10.7672L14.28 10.8515L10.53 14.6155C10.26 14.8831 9.85005 14.9075 9.55005 14.6885V14.6858C9.52005 14.6648 9.49997 14.642 9.46997 14.6174V14.6155L5.71997 10.8515C5.42997 10.558 5.42997 10.0831 5.71997 9.7908C5.98997 9.5251 6.40995 9.5018 6.69995 9.7203L6.78003 9.7931L9.25 12.2706V5.914C9.25 5.49979 9.59 5.164 10 5.164Z" fill="black"/>
</svg>
