<svg width="20" height="20" viewBox="0 0 20 20" fill="none" xmlns="http://www.w3.org/2000/svg">
<path fill-rule="evenodd" clip-rule="evenodd" d="M20 10C20 4.477 15.52 0 10 0C4.48 0 0 4.477 0 10C0 15.522 4.48 20 10 20C15.52 20 20 15.522 20 10ZM18.5 10C18.5 14.694 14.69 18.5 10 18.5C5.31 18.5 1.5 14.694 1.5 10C1.5 5.306 5.31 1.5 10 1.5C14.69 1.5 18.5 5.306 18.5 10ZM12.04 6.97701C12.26 6.683 12.24 6.267 11.97 6C11.68 5.706 11.21 5.705 10.91 5.998L7.43005 9.46899L7.34998 9.55299C7.13998 9.84699 7.16005 10.265 7.43005 10.532L10.91 14.003L11 14.075C11.29 14.292 11.71 14.267 11.97 14L12.05 13.916C12.26 13.622 12.24 13.205 11.97 12.94L9.02002 9.99899L11.97 7.061L12.04 6.97701Z" fill="black"/>
</svg>
