<svg width="21" height="21" viewBox="0 0 21 21" fill="none" xmlns="http://www.w3.org/2000/svg">
<path fill-rule="evenodd" clip-rule="evenodd" d="M18.72 0.220971C19.013 -0.0720293 19.4881 -0.0720293 19.7811 0.220971C20.0471 0.486971 20.0711 0.903984 19.8531 1.19698L19.7811 1.28198L10.3351 10.727C11.0531 11.328 11.887 11.824 12.819 12.208C13.011 12.279 13.1631 12.25 13.5281 12.051L13.7281 11.937C14.5161 11.484 14.965 11.332 15.644 11.475C16.264 11.596 18.5251 13.299 19.2911 14.092C19.6951 14.512 19.9541 14.965 20.0001 15.522C20.0531 16.893 18.3911 18.812 17.3791 19.38C16.2301 20.208 14.7681 20.196 13.1331 19.435C11.2191 18.643 8.77406 16.856 6.44506 14.617L1.28106 19.782C0.988063 20.074 0.513028 20.074 0.220028 19.782C-0.0459723 19.515 -0.0699704 19.099 0.14703 18.805L0.220028 18.721L8.70404 10.237C8.70904 10.231 8.71503 10.226 8.72003 10.22C8.72603 10.215 8.73106 10.21 8.73706 10.204L18.72 0.220971ZM9.27105 11.792L7.50604 13.556C9.70504 15.667 12.0001 17.343 13.7371 18.062C14.8751 18.591 15.735 18.631 16.433 18.21L16.5701 18.119C17.2141 17.755 18.527 16.239 18.503 15.613C18.493 15.494 18.3971 15.326 18.2111 15.133C17.6531 14.555 15.5741 12.989 15.3461 12.945C15.1561 12.905 14.9941 12.949 14.6121 13.161L14.4031 13.28C13.5881 13.746 13.0501 13.892 12.2751 13.605C11.1381 13.137 10.1331 12.532 9.27105 11.792ZM4.51507 0.00397547C5.03707 0.0489755 5.49008 0.306975 5.91308 0.712975C6.24108 1.03098 6.83806 1.74897 7.38006 2.47097L7.66406 2.85497C8.18906 3.57697 8.47104 4.03897 8.52404 4.34597C8.65704 4.97797 8.54008 5.40798 8.17108 6.08198L8.02404 6.34197C7.75904 6.80497 7.71505 6.96898 7.78405 7.15798C7.87505 7.37998 7.96608 7.58297 8.05908 7.77097C8.24308 8.14197 8.09103 8.59198 7.72003 8.77598C7.34903 8.95998 6.89908 8.80797 6.71508 8.43697C6.60508 8.21497 6.50004 7.97998 6.38604 7.70098C6.13104 7.00898 6.23605 6.49698 6.62005 5.78098L6.76306 5.52598C7.04106 5.04198 7.10008 4.86698 7.05108 4.62998L7.03009 4.58997C6.94909 4.45697 6.65206 4.00898 6.27606 3.49998L6.18005 3.37098C5.68205 2.70798 5.12707 2.03998 4.87207 1.79298C4.67607 1.60498 4.50706 1.50898 4.41406 1.49998C3.82406 1.47098 2.46709 2.59398 1.91809 3.37798L1.83404 3.50597C1.39604 4.10297 1.38406 4.93598 1.86706 6.08598L1.96307 6.30497C2.48107 7.56297 3.49806 9.11298 4.86206 10.744C5.12806 11.062 5.08606 11.535 4.76806 11.8C4.45006 12.066 3.97703 12.024 3.71203 11.706C2.35503 10.083 1.30908 8.51998 0.710079 7.18598L0.58807 6.90398C-0.18493 5.21798 -0.209954 3.75598 0.589046 2.67298C1.28905 1.51898 3.15607 -0.0630245 4.51507 0.00397547Z" fill="black"/>
</svg>
