<svg width="18" height="20" viewBox="0 0 18 20" fill="none" xmlns="http://www.w3.org/2000/svg">
<path fill-rule="evenodd" clip-rule="evenodd" d="M11.474 0.000244141C11.52 0.000244141 11.564 0.00426406 11.607 0.0119441H11.737C11.941 0.0119441 12.137 0.0952041 12.278 0.242494L17.344 5.51849C17.478 5.65817 17.553 5.8443 17.553 6.03794V15.3399C17.553 17.82 15.542 19.8649 13.073 19.8649H5.08502C2.48602 19.8649 0.500977 17.9222 0.500977 15.3399V4.49094C0.500977 2.02948 2.59702 0.0119441 5.08502 0.0119441H11.342C11.385 0.00426406 11.429 0.000244141 11.474 0.000244141ZM5.08502 1.51194L10.724 1.51114V3.65924L10.73 3.84765C10.827 5.59372 12.271 6.9805 14.042 6.98424C14.463 6.9852 14.843 6.98591 15.176 6.98631L16.053 6.98333V15.3399C16.053 16.9971 14.708 18.3649 13.073 18.3649H5.08502C3.30802 18.3649 2.00098 17.0864 2.00098 15.3399V4.49094C2.00098 2.87098 3.41302 1.51194 5.08502 1.51194ZM14.045 5.48425L15.232 5.48408L12.224 2.3523V3.65924C12.224 4.66581 13.039 5.48212 14.045 5.48425ZM12.045 11.7472C12.045 11.333 11.709 10.9972 11.295 10.9972H6.39398L6.29199 11.0041C5.92599 11.0538 5.64398 11.3675 5.64398 11.7472C5.64398 12.1615 5.97898 12.4972 6.39398 12.4972H11.295L11.396 12.4904C11.762 12.4407 12.045 12.1269 12.045 11.7472Z" fill="black"/>
</svg>
