<svg width="18" height="20" viewBox="0 0 18 20" fill="none" xmlns="http://www.w3.org/2000/svg">
<path fill-rule="evenodd" clip-rule="evenodd" d="M9.03601 0H8.965C5.596 0 2.507 2.44456 2.207 5.68096C2.187 5.91248 2.173 6.14906 2.164 6.40391L2.15201 6.99974L2.14999 7.53395L2.16501 7.47306C2.02601 8.151 1.705 8.7799 1.237 9.2938L1.16901 9.3802C0.768007 9.9898 0.537015 10.6955 0.502015 11.4242L0.501008 11.6624C0.480008 12.6208 0.809003 13.5691 1.427 14.3223C2.264 15.2069 3.349 15.7346 4.513 15.8466C7.49 16.1699 10.502 16.1699 13.487 15.8457C14.643 15.7393 15.731 15.2101 16.534 14.3582C17.14 13.6331 17.471 12.763 17.499 11.862L17.5 11.4587C17.467 10.698 17.235 9.9917 16.829 9.3847L16.767 9.3055L16.616 9.1282C16.278 8.7052 16.03 8.218 15.89 7.69688L15.845 7.50977L15.836 7.31353C15.833 7.22527 15.832 7.1274 15.831 7.00516V6.33206C15.829 6.07458 15.821 5.89148 15.803 5.68536C15.493 2.44285 12.403 0 9.03601 0ZM8.965 1.39535H9.03601C11.734 1.39535 14.194 3.34075 14.431 5.81326C14.445 5.97558 14.451 6.13044 14.453 6.3605L14.456 7.26514C14.459 7.40982 14.464 7.53013 14.474 7.66551L14.487 7.75818L14.552 8.034C14.744 8.7635 15.089 9.4441 15.565 10.0309L15.703 10.1926L15.687 10.1672C15.951 10.5613 16.101 11.0186 16.122 11.4901V11.6536C16.137 12.3097 15.92 12.933 15.508 13.4267C14.965 14.002 14.187 14.3802 13.351 14.4572C10.453 14.7719 7.53901 14.7719 4.65201 14.4583C3.80701 14.377 3.02901 13.9985 2.45401 13.3931C2.08101 12.9356 1.866 12.3142 1.879 11.6774V11.4587L1.897 11.2682C1.939 10.9495 2.04499 10.6265 2.20999 10.3291L2.29401 10.1905C2.90801 9.5004 3.32901 8.6611 3.51401 7.75667L3.52899 7.61486L3.535 6.69559L3.551 6.2292C3.559 6.08207 3.56799 5.94228 3.57999 5.80678C3.80799 3.34087 6.267 1.39535 8.965 1.39535ZM2.29401 10.1905C2.27901 10.2072 2.26399 10.2238 2.24899 10.2404L2.29901 10.1833L2.29401 10.1905ZM11.608 17.6906C11.311 17.4491 10.878 17.4967 10.639 17.7969C10.536 17.927 10.416 18.0437 10.283 18.1443C9.83099 18.4986 9.26699 18.6564 8.70599 18.5896C8.14699 18.523 7.638 18.2381 7.293 17.7995C7.056 17.4981 6.62201 17.4484 6.32401 17.6885C6.02601 17.9286 5.977 18.3676 6.215 18.6689C6.787 19.3962 7.62601 19.8659 8.54501 19.9754C9.46401 20.0849 10.389 19.826 11.117 19.255C11.333 19.0922 11.537 18.8935 11.713 18.6715C11.952 18.3713 11.905 17.9321 11.608 17.6906Z" fill="black"/>
</svg>
