<svg width="19" height="18" viewBox="0 0 19 18" fill="none" xmlns="http://www.w3.org/2000/svg">
<path fill-rule="evenodd" clip-rule="evenodd" d="M9.98701 0.250977L9.831 0.256981C9.321 0.303981 8.69399 0.595981 8.27399 0.951981L4.80301 3.78098L2.97101 3.78197C1.60401 3.78197 0.591009 4.80398 0.397009 6.18898C0.204009 7.73998 0.198009 10.324 0.397009 11.748L0.424017 11.931C0.660017 13.313 1.62201 14.219 2.97101 14.219H4.80399L8.36402 17.111C8.81602 17.491 9.46499 17.762 9.99799 17.749C11.046 17.781 11.994 17.012 12.337 15.866C12.417 15.57 12.465 15.312 12.508 14.977L12.616 13.983C12.789 12.597 12.794 5.87298 12.631 4.16098L12.55 3.42297C12.489 2.85997 12.437 2.51398 12.344 2.15998C12.012 1.04998 11.144 0.300976 10.129 0.251976L9.98701 0.250977ZM9.96399 1.74998H10.002C10.374 1.73898 10.743 2.03798 10.9 2.56498L10.944 2.75497C10.971 2.89097 10.995 3.04998 11.02 3.24998L11.127 4.19997C11.291 5.50997 11.291 12.491 11.127 13.799L11.099 14.05L11.065 14.38C11.014 14.886 10.973 15.162 10.894 15.456C10.743 15.962 10.374 16.261 10.002 16.25C9.82902 16.253 9.52001 16.124 9.31901 15.955L5.543 12.887C5.409 12.779 5.24201 12.719 5.07001 12.719H2.97101C2.36401 12.719 1.97901 12.335 1.88401 11.553C1.70301 10.252 1.70801 7.79898 1.88401 6.38598C1.97901 5.70998 2.40401 5.28197 2.97101 5.28197H5.07001C5.24201 5.28197 5.41001 5.22198 5.54401 5.11298L9.23301 2.10598C9.45401 1.91898 9.84299 1.74798 9.96399 1.74998ZM16.332 3.14598C16.096 2.80598 15.628 2.72198 15.288 2.95798C14.948 3.19498 14.864 3.66198 15.101 4.00198C15.997 5.29198 16.505 7.00898 16.505 8.87698C16.505 10.743 15.997 12.46 15.101 13.75C14.864 14.09 14.948 14.557 15.288 14.794C15.628 15.03 16.096 14.946 16.332 14.606C17.409 13.058 18.005 11.041 18.005 8.87698C18.005 6.71098 17.409 4.69398 16.332 3.14598Z" fill="black"/>
</svg>
