<svg width="21" height="21" viewBox="0 0 21 21"  xmlns="http://www.w3.org/2000/svg">
<path 
fill-rule="evenodd" clip-rule="evenodd" 
d="M0.0200195 11.6689C0.0200195 9.28992 1.9 7.34791 4.25 7.23891L4.45996 7.23392H5.39001C5.80001 7.23392 6.14001 7.56992 6.14001 7.98392C6.14001 8.36392 5.85999 8.67791 5.48999 8.72691L5.39001 8.73392H4.45996C2.88996 8.73392 1.62003 9.95592 1.53003 11.4969L1.52002 11.6689V16.5439C1.52002 18.1059 2.74003 19.3839 4.28003 19.4729L4.45996 19.4779H15.59C17.15 19.4779 18.43 18.2559 18.52 16.7159V16.5439V11.6589C18.52 10.1019 17.3 8.82791 15.77 8.73891L15.6 8.73392H14.65C14.24 8.73392 13.9 8.39792 13.9 7.98392C13.9 7.60392 14.19 7.29091 14.55 7.24091L14.65 7.23392H15.6C17.97 7.23392 19.9 9.10092 20.02 11.4449V11.6589V16.5439C20.02 18.9219 18.15 20.8639 15.8 20.9729L15.59 20.9779H4.45996C2.07996 20.9779 0.140029 19.1039 0.0300293 16.7529L0.0200195 16.5439V11.6689ZM9.47998 0.671913C9.61998 0.528913 9.81002 0.440918 10.02 0.440918C10.24 0.440918 10.4299 0.530919 10.5699 0.675919L13.47 3.58991C13.76 3.88291 13.76 4.35792 13.47 4.64992C13.2 4.91592 12.78 4.93892 12.49 4.72092L12.41 4.64792L10.77 3.00792V13.2319C10.77 13.6459 10.44 13.9819 10.02 13.9819C9.64002 13.9819 9.33003 13.6989 9.28003 13.3329L9.27002 13.2319V3.00591L7.64001 4.64792C7.37001 4.91492 6.96003 4.93992 6.66003 4.72292L6.57996 4.64992C6.30996 4.38492 6.29 3.96792 6.5 3.67392L6.56995 3.58991L9.47998 0.671913Z" />
</svg>
