<svg width="19" height="16" viewBox="0 0 19 16"  xmlns="http://www.w3.org/2000/svg">
<path  d="M0.709961 7.1771C0.309961 7.2321 0 7.5795 0 7.9999C0 8.4585 0.369946 8.8302 0.819946 8.8302H15.2L10 14.0813L9.93005 14.1743C9.69005 14.4989 9.71 14.9602 10 15.2556C10.32 15.5805 10.84 15.5816 11.16 15.258L17.75 8.5996C17.79 8.5614 17.82 8.5194 17.85 8.474C18.08 8.1498 18.05 7.6999 17.76 7.4111L11.16 0.7419L11.0699 0.661699C10.7499 0.421299 10.29 0.448997 10 0.744497C9.68 1.0694 9.68 1.5951 10 1.9187L15.2 7.1696H0.819946L0.709961 7.1771Z" />
</svg>
