<svg width="18" height="20" viewBox="0 0 18 20" fill="none" xmlns="http://www.w3.org/2000/svg">
<path fill-rule="evenodd" clip-rule="evenodd" d="M11.607 0.0119441C11.564 0.00426406 11.52 0.000244141 11.474 0.000244141C11.429 0.000244141 11.385 0.00426406 11.342 0.0119441H5.08398C2.59698 0.0119441 0.5 2.02977 0.5 4.49094V15.2039C0.5 17.8045 2.50498 19.8649 5.08398 19.8649H13.073C15.526 19.8649 17.552 17.703 17.552 15.2039V6.03794C17.552 5.84433 17.477 5.65821 17.343 5.51854L12.278 0.242544C12.137 0.0952239 11.941 0.0119441 11.737 0.0119441H11.607ZM10.724 1.51114L5.08398 1.51194C3.41298 1.51194 2 2.87134 2 4.49094V15.2039C2 16.9852 3.34198 18.3649 5.08398 18.3649H13.073C14.675 18.3649 16.052 16.8956 16.052 15.2039L16.051 6.98333L15.176 6.98631C14.842 6.98591 14.463 6.9852 14.041 6.98424C12.271 6.9805 10.827 5.59353 10.73 3.84763L10.724 3.65924V1.51114ZM15.231 5.48408L14.044 5.48425C13.039 5.48212 12.224 4.6657 12.224 3.65924V2.35269L15.231 5.48408ZM11.284 12.8078C11.699 12.8078 12.034 13.1436 12.034 13.5578C12.034 13.9375 11.752 14.2513 11.386 14.301L11.284 14.3078H5.88702C5.47302 14.3078 5.13702 13.9721 5.13702 13.5578C5.13702 13.1781 5.41901 12.8644 5.78601 12.8147L5.88702 12.8078H11.284ZM9.99298 8.6056C9.99298 8.1914 9.65698 7.85564 9.24298 7.85564H5.88702L5.78497 7.86249C5.41897 7.91215 5.13702 8.2259 5.13702 8.6056C5.13702 9.0199 5.47302 9.3556 5.88702 9.3556H9.24298L9.34497 9.3488C9.71097 9.2991 9.99298 8.9853 9.99298 8.6056Z" fill="black"/>
</svg>
