<svg width="20" height="20" viewBox="0 0 20 20" fill="none" xmlns="http://www.w3.org/2000/svg">
<path fill-rule="evenodd" clip-rule="evenodd" d="M10 0C4.48 0 0 4.47745 0 10C0 15.5225 4.48 20 10 20C15.52 20 20 15.5222 20 10C20 4.47779 15.52 0 10 0ZM10 1.5C14.69 1.5 18.5 5.30621 18.5 10C18.5 14.6938 14.69 18.5 10 18.5C5.31 18.5 1.5 14.6941 1.5 10C1.5 5.30586 5.31 1.5 10 1.5ZM6.97998 7.95572C6.67998 7.73723 6.27 7.76054 6 8.0262C5.71 8.3185 5.71 8.7934 6 9.0869L9.46997 12.5729L9.55005 12.6459C9.85005 12.8649 10.26 12.8405 10.53 12.5729L14 9.0869L14.0699 9.0026C14.2899 8.7085 14.27 8.2919 14 8.0262L13.92 7.95379C13.62 7.73657 13.2099 7.76167 12.9399 8.0285L10 10.98L7.06006 8.0285L6.97998 7.95572Z" fill="black"/>
</svg>
