<svg width="16" height="20" viewBox="0 0 16 20" fill="none" xmlns="http://www.w3.org/2000/svg">
<path fill-rule="evenodd" clip-rule="evenodd" d="M8.1235 0H7.8759C5.4868 0 3.5494 1.981 3.5494 4.425V8.991C3.5494 11.435 5.4865 13.415 7.8759 13.415H8.1235C10.5135 13.415 12.4501 11.435 12.4501 8.991V4.425C12.4501 1.981 10.5133 0 8.1235 0ZM7.8759 1.505H8.1235C9.6188 1.505 10.8454 2.681 10.9683 4.177H9.8472L9.7474 4.18401C9.3882 4.23401 9.1114 4.54899 9.1114 4.92999C9.1114 5.34499 9.4409 5.68201 9.8472 5.68201H10.9785V7.35899H8.9129L8.813 7.366C8.4539 7.416 8.1771 7.731 8.1771 8.112C8.1771 8.527 8.5065 8.864 8.9129 8.864H10.9785V8.991C10.9785 10.604 9.7008 11.91 8.1235 11.91H7.8759C6.2992 11.91 5.021 10.603 5.021 8.991V4.425C5.021 2.813 6.2996 1.505 7.8759 1.505ZM15.2642 8.246C15.6706 8.246 16 8.583 16 8.998C16 13.263 12.8093 16.765 8.7357 17.145V19.247C8.7357 19.663 8.4063 20 7.9999 20C7.6274 20 7.3195 19.717 7.2708 19.35L7.2641 19.247V17.145C3.1904 16.766 0 13.264 0 8.998C0 8.583 0.329402 8.246 0.735802 8.246C1.1422 8.246 1.4716 8.583 1.4716 8.998C1.4716 12.686 4.3938 15.674 7.9995 15.674C11.6055 15.674 14.5284 12.686 14.5284 8.998C14.5284 8.583 14.8578 8.246 15.2642 8.246Z" fill="black"/>
</svg>
