<svg width="20" height="20" viewBox="0 0 20 20" fill="none" xmlns="http://www.w3.org/2000/svg">
<path fill-rule="evenodd" clip-rule="evenodd" d="M18.339 5.65923C19.009 6.17823 19.42 6.94923 19.49 7.78823L19.5 7.98923V16.0983C19.5 18.1883 17.849 19.8883 15.78 19.9983H13.79C12.839 19.9793 12.07 19.2393 12 18.3093L11.99 18.1683V15.3093C11.99 14.9983 11.759 14.7393 11.45 14.6883L11.36 14.6783H8.689C8.37 14.6883 8.11001 14.9183 8.07001 15.2183L8.06 15.3093V18.1593C8.06 18.2183 8.04901 18.2883 8.04001 18.3383L8.03 18.3593L8.01901 18.4283C7.90001 19.2793 7.19999 19.9283 6.32999 19.9893L6.20001 19.9983H4.41C2.32 19.9983 0.61 18.3593 0.5 16.2983V7.98923C0.509 7.13823 0.88 6.34823 1.5 5.79823L7.73001 0.788233C9.00001 -0.220767 10.78 -0.260768 12.089 0.668232L12.25 0.788233L18.339 5.65923ZM18.099 16.2583L18.11 16.0983V7.99823C18.099 7.56923 17.92 7.16823 17.61 6.86923L17.48 6.75823L11.38 1.87823C10.62 1.26823 9.53999 1.23923 8.73999 1.76823L8.58899 1.87823L2.509 6.77923C2.16 7.03823 1.94999 7.42823 1.89999 7.83823L1.88901 7.99823V16.0983C1.88901 17.4283 2.929 18.5183 4.25 18.5983H6.20001C6.42001 18.5983 6.61001 18.4493 6.63901 18.2393L6.66 18.0593L6.67001 18.0083V15.3093C6.67001 14.2393 7.49001 13.3693 8.54001 13.2883H11.36C12.429 13.2883 13.299 14.1093 13.38 15.1593V18.1683C13.38 18.3783 13.53 18.5593 13.73 18.5983H15.589C16.929 18.5983 18.019 17.5693 18.099 16.2583Z" fill="black"/>
</svg>
