<svg width="18" height="12" viewBox="0 0 18 12" fill="none" xmlns="http://www.w3.org/2000/svg">
<path fill-rule="evenodd" clip-rule="evenodd" d="M0.630005 5.28941C0.280005 5.33691 0 5.63701 0 6.00001C0 6.39611 0.32998 6.71711 0.72998 6.71711H8.76001V10.7817C8.76001 11.3462 9.40001 11.6893 9.89001 11.3885L17.66 6.60671C18.11 6.32541 18.11 5.67461 17.66 5.39331L9.89001 0.611509C9.40001 0.310709 8.76001 0.653809 8.76001 1.21831V5.28291H0.72998L0.630005 5.28941ZM10.23 6.03341C10.23 6.02231 10.23 6.01121 10.23 6.00001C10.23 5.98881 10.23 5.97771 10.23 5.96661V2.51891L15.89 6.00031L10.23 9.48261V6.03341Z" fill="black"/>
</svg>
