<svg width="22" height="18" viewBox="0 0 22 18" fill="none" xmlns="http://www.w3.org/2000/svg">
<path fill-rule="evenodd" clip-rule="evenodd" d="M8.14486 0.715C8.14461 0.3199 7.81799 -0.000199906 7.41534 9.36696e-08L5.78185 0.000999544L5.58449 0.00600061C3.49232 0.109101 1.82902 1.8056 1.82902 3.8832V5.7498L1.83568 5.8469C1.88395 6.1961 2.18899 6.4653 2.55809 6.4653C2.96075 6.4653 3.28716 6.145 3.28716 5.7498V3.8832L3.29207 3.7283C3.37347 2.4476 4.45718 1.4333 5.78313 1.4318L7.41625 1.4308L7.51517 1.4242C7.871 1.3766 8.14509 1.0771 8.14486 0.715ZM16.2097 9.36696e-08C18.3243 9.36696e-08 20.0628 1.643 20.1662 3.6937L20.1711 3.8872V5.7498C20.1711 6.145 19.8447 6.4653 19.442 6.4653C19.0729 6.4653 18.7679 6.1961 18.7196 5.8469L18.7129 5.7498V3.8872C18.7129 2.5894 17.6702 1.5163 16.3672 1.4357L16.2097 1.4308H14.6118C14.2092 1.4308 13.8827 1.1105 13.8827 0.715401C13.8827 0.353201 14.157 0.0539003 14.5129 0.00650034L14.6118 9.36696e-08H16.2097ZM21.2709 9.0755C21.6736 9.0755 22 9.3958 22 9.7909C22 10.1531 21.7257 10.4524 21.3699 10.4998L21.2709 10.5063H20.1711V14.1128C20.1711 16.1872 18.4964 17.8937 16.4067 17.9952L16.2097 18H14.6118C14.2092 18 13.8827 17.6797 13.8827 17.2846C13.8827 16.9224 14.157 16.6231 14.5129 16.5757L14.6118 16.5692H16.2097C17.5318 16.5692 18.6258 15.5454 18.708 14.2674L18.7129 14.1128V10.5063H3.28716V14.1168C3.28716 15.4176 4.31987 16.4819 5.62489 16.5632L5.78276 16.5682L7.41625 16.5692C7.8189 16.5694 8.14511 16.8899 8.14486 17.285C8.14463 17.6472 7.87016 17.9464 7.51427 17.9935L7.41534 18L5.78147 17.999C3.66407 17.9966 1.93661 16.363 1.83386 14.3105L1.82902 14.1168V10.5063H0.72907C0.32642 10.5063 0 10.186 0 9.7909C0 9.4287 0.27428 9.1294 0.63014 9.082L0.72907 9.0755H2.55809H19.442H21.2709Z" fill="black"/>
</svg>
